%TF.GenerationSoftware,KiCad,Pcbnew,10.0.3*%
%TF.CreationDate,2026-07-15T13:12:54+01:00*%
%TF.ProjectId,pico_debug,7069636f-5f64-4656-9275-672e6b696361,rev?*%
%TF.SameCoordinates,Original*%
%TF.FileFunction,Legend,Top*%
%TF.FilePolarity,Positive*%
%FSLAX46Y46*%
G04 Gerber Fmt 4.6, Leading zero omitted, Abs format (unit mm)*
G04 Created by KiCad (PCBNEW 10.0.3) date 2026-07-15 13:12:54*
%MOMM*%
%LPD*%
G01*
G04 APERTURE LIST*
%ADD10C,0.100000*%
%ADD11C,0.150000*%
%ADD12C,0.120000*%
G04 APERTURE END LIST*
D10*
X98500000Y-87000000D02*
X98500000Y-91000000D01*
X98500000Y-91000000D02*
X127000000Y-91000000D01*
X127000000Y-87000000D02*
X98500000Y-87000000D01*
X127000000Y-91000000D02*
X131000000Y-95000000D01*
X129000000Y-61000000D02*
X129000000Y-85000000D01*
X129000000Y-85000000D02*
X127000000Y-87000000D01*
X131000000Y-95000000D02*
X141000000Y-95000000D01*
X141000000Y-61000000D02*
X129000000Y-61000000D01*
X141000000Y-61000000D02*
X141000000Y-72000000D01*
X141000000Y-82500000D02*
X141000000Y-95000000D01*
X51675312Y-64547180D02*
X51627693Y-64594800D01*
X51627693Y-64594800D02*
X51484836Y-64642419D01*
X51484836Y-64642419D02*
X51389598Y-64642419D01*
X51389598Y-64642419D02*
X51246741Y-64594800D01*
X51246741Y-64594800D02*
X51151503Y-64499561D01*
X51151503Y-64499561D02*
X51103884Y-64404323D01*
X51103884Y-64404323D02*
X51056265Y-64213847D01*
X51056265Y-64213847D02*
X51056265Y-64070990D01*
X51056265Y-64070990D02*
X51103884Y-63880514D01*
X51103884Y-63880514D02*
X51151503Y-63785276D01*
X51151503Y-63785276D02*
X51246741Y-63690038D01*
X51246741Y-63690038D02*
X51389598Y-63642419D01*
X51389598Y-63642419D02*
X51484836Y-63642419D01*
X51484836Y-63642419D02*
X51627693Y-63690038D01*
X51627693Y-63690038D02*
X51675312Y-63737657D01*
X52580074Y-64642419D02*
X52103884Y-64642419D01*
X52103884Y-64642419D02*
X52103884Y-63642419D01*
X52913408Y-64642419D02*
X52913408Y-63642419D01*
X53484836Y-64642419D02*
X53056265Y-64070990D01*
X53484836Y-63642419D02*
X52913408Y-64213847D01*
X52373884Y-71292419D02*
X52373884Y-70292419D01*
X53040550Y-70292419D02*
X53231026Y-70292419D01*
X53231026Y-70292419D02*
X53326264Y-70340038D01*
X53326264Y-70340038D02*
X53421502Y-70435276D01*
X53421502Y-70435276D02*
X53469121Y-70625752D01*
X53469121Y-70625752D02*
X53469121Y-70959085D01*
X53469121Y-70959085D02*
X53421502Y-71149561D01*
X53421502Y-71149561D02*
X53326264Y-71244800D01*
X53326264Y-71244800D02*
X53231026Y-71292419D01*
X53231026Y-71292419D02*
X53040550Y-71292419D01*
X53040550Y-71292419D02*
X52945312Y-71244800D01*
X52945312Y-71244800D02*
X52850074Y-71149561D01*
X52850074Y-71149561D02*
X52802455Y-70959085D01*
X52802455Y-70959085D02*
X52802455Y-70625752D01*
X52802455Y-70625752D02*
X52850074Y-70435276D01*
X52850074Y-70435276D02*
X52945312Y-70340038D01*
X52945312Y-70340038D02*
X53040550Y-70292419D01*
X61121027Y-63642419D02*
X61692455Y-63642419D01*
X61406741Y-64642419D02*
X61406741Y-63642419D01*
X61930551Y-63642419D02*
X62597217Y-64642419D01*
X62597217Y-63642419D02*
X61930551Y-64642419D01*
X61835312Y-71292419D02*
X61501979Y-70816228D01*
X61263884Y-71292419D02*
X61263884Y-70292419D01*
X61263884Y-70292419D02*
X61644836Y-70292419D01*
X61644836Y-70292419D02*
X61740074Y-70340038D01*
X61740074Y-70340038D02*
X61787693Y-70387657D01*
X61787693Y-70387657D02*
X61835312Y-70482895D01*
X61835312Y-70482895D02*
X61835312Y-70625752D01*
X61835312Y-70625752D02*
X61787693Y-70720990D01*
X61787693Y-70720990D02*
X61740074Y-70768609D01*
X61740074Y-70768609D02*
X61644836Y-70816228D01*
X61644836Y-70816228D02*
X61263884Y-70816228D01*
X62168646Y-70292419D02*
X62835312Y-71292419D01*
X62835312Y-70292419D02*
X62168646Y-71292419D01*
X53164800Y-68323734D02*
X53212419Y-68180877D01*
X53212419Y-68180877D02*
X53212419Y-67942782D01*
X53212419Y-67942782D02*
X53164800Y-67847544D01*
X53164800Y-67847544D02*
X53117180Y-67799925D01*
X53117180Y-67799925D02*
X53021942Y-67752306D01*
X53021942Y-67752306D02*
X52926704Y-67752306D01*
X52926704Y-67752306D02*
X52831466Y-67799925D01*
X52831466Y-67799925D02*
X52783847Y-67847544D01*
X52783847Y-67847544D02*
X52736228Y-67942782D01*
X52736228Y-67942782D02*
X52688609Y-68133258D01*
X52688609Y-68133258D02*
X52640990Y-68228496D01*
X52640990Y-68228496D02*
X52593371Y-68276115D01*
X52593371Y-68276115D02*
X52498133Y-68323734D01*
X52498133Y-68323734D02*
X52402895Y-68323734D01*
X52402895Y-68323734D02*
X52307657Y-68276115D01*
X52307657Y-68276115D02*
X52260038Y-68228496D01*
X52260038Y-68228496D02*
X52212419Y-68133258D01*
X52212419Y-68133258D02*
X52212419Y-67895163D01*
X52212419Y-67895163D02*
X52260038Y-67752306D01*
X52212419Y-67418972D02*
X53212419Y-67180877D01*
X53212419Y-67180877D02*
X52498133Y-66990401D01*
X52498133Y-66990401D02*
X53212419Y-66799925D01*
X53212419Y-66799925D02*
X52212419Y-66561830D01*
X53212419Y-66180877D02*
X52212419Y-66180877D01*
X52212419Y-66180877D02*
X52212419Y-65942782D01*
X52212419Y-65942782D02*
X52260038Y-65799925D01*
X52260038Y-65799925D02*
X52355276Y-65704687D01*
X52355276Y-65704687D02*
X52450514Y-65657068D01*
X52450514Y-65657068D02*
X52640990Y-65609449D01*
X52640990Y-65609449D02*
X52783847Y-65609449D01*
X52783847Y-65609449D02*
X52974323Y-65657068D01*
X52974323Y-65657068D02*
X53069561Y-65704687D01*
X53069561Y-65704687D02*
X53164800Y-65799925D01*
X53164800Y-65799925D02*
X53212419Y-65942782D01*
X53212419Y-65942782D02*
X53212419Y-66180877D01*
X60467419Y-68911115D02*
X61276942Y-68911115D01*
X61276942Y-68911115D02*
X61372180Y-68863496D01*
X61372180Y-68863496D02*
X61419800Y-68815877D01*
X61419800Y-68815877D02*
X61467419Y-68720639D01*
X61467419Y-68720639D02*
X61467419Y-68530163D01*
X61467419Y-68530163D02*
X61419800Y-68434925D01*
X61419800Y-68434925D02*
X61372180Y-68387306D01*
X61372180Y-68387306D02*
X61276942Y-68339687D01*
X61276942Y-68339687D02*
X60467419Y-68339687D01*
X61181704Y-67911115D02*
X61181704Y-67434925D01*
X61467419Y-68006353D02*
X60467419Y-67673020D01*
X60467419Y-67673020D02*
X61467419Y-67339687D01*
X61467419Y-66434925D02*
X60991228Y-66768258D01*
X61467419Y-67006353D02*
X60467419Y-67006353D01*
X60467419Y-67006353D02*
X60467419Y-66625401D01*
X60467419Y-66625401D02*
X60515038Y-66530163D01*
X60515038Y-66530163D02*
X60562657Y-66482544D01*
X60562657Y-66482544D02*
X60657895Y-66434925D01*
X60657895Y-66434925D02*
X60800752Y-66434925D01*
X60800752Y-66434925D02*
X60895990Y-66482544D01*
X60895990Y-66482544D02*
X60943609Y-66530163D01*
X60943609Y-66530163D02*
X60991228Y-66625401D01*
X60991228Y-66625401D02*
X60991228Y-67006353D01*
X60467419Y-66149210D02*
X60467419Y-65577782D01*
X61467419Y-65863496D02*
X60467419Y-65863496D01*
X62872419Y-99196115D02*
X61872419Y-99196115D01*
X61872419Y-99196115D02*
X61872419Y-98958020D01*
X61872419Y-98958020D02*
X61920038Y-98815163D01*
X61920038Y-98815163D02*
X62015276Y-98719925D01*
X62015276Y-98719925D02*
X62110514Y-98672306D01*
X62110514Y-98672306D02*
X62300990Y-98624687D01*
X62300990Y-98624687D02*
X62443847Y-98624687D01*
X62443847Y-98624687D02*
X62634323Y-98672306D01*
X62634323Y-98672306D02*
X62729561Y-98719925D01*
X62729561Y-98719925D02*
X62824800Y-98815163D01*
X62824800Y-98815163D02*
X62872419Y-98958020D01*
X62872419Y-98958020D02*
X62872419Y-99196115D01*
X62824800Y-97815163D02*
X62872419Y-97910401D01*
X62872419Y-97910401D02*
X62872419Y-98100877D01*
X62872419Y-98100877D02*
X62824800Y-98196115D01*
X62824800Y-98196115D02*
X62729561Y-98243734D01*
X62729561Y-98243734D02*
X62348609Y-98243734D01*
X62348609Y-98243734D02*
X62253371Y-98196115D01*
X62253371Y-98196115D02*
X62205752Y-98100877D01*
X62205752Y-98100877D02*
X62205752Y-97910401D01*
X62205752Y-97910401D02*
X62253371Y-97815163D01*
X62253371Y-97815163D02*
X62348609Y-97767544D01*
X62348609Y-97767544D02*
X62443847Y-97767544D01*
X62443847Y-97767544D02*
X62539085Y-98243734D01*
X62872419Y-97338972D02*
X61872419Y-97338972D01*
X62253371Y-97338972D02*
X62205752Y-97243734D01*
X62205752Y-97243734D02*
X62205752Y-97053258D01*
X62205752Y-97053258D02*
X62253371Y-96958020D01*
X62253371Y-96958020D02*
X62300990Y-96910401D01*
X62300990Y-96910401D02*
X62396228Y-96862782D01*
X62396228Y-96862782D02*
X62681942Y-96862782D01*
X62681942Y-96862782D02*
X62777180Y-96910401D01*
X62777180Y-96910401D02*
X62824800Y-96958020D01*
X62824800Y-96958020D02*
X62872419Y-97053258D01*
X62872419Y-97053258D02*
X62872419Y-97243734D01*
X62872419Y-97243734D02*
X62824800Y-97338972D01*
X62205752Y-96005639D02*
X62872419Y-96005639D01*
X62205752Y-96434210D02*
X62729561Y-96434210D01*
X62729561Y-96434210D02*
X62824800Y-96386591D01*
X62824800Y-96386591D02*
X62872419Y-96291353D01*
X62872419Y-96291353D02*
X62872419Y-96148496D01*
X62872419Y-96148496D02*
X62824800Y-96053258D01*
X62824800Y-96053258D02*
X62777180Y-96005639D01*
X62205752Y-95100877D02*
X63015276Y-95100877D01*
X63015276Y-95100877D02*
X63110514Y-95148496D01*
X63110514Y-95148496D02*
X63158133Y-95196115D01*
X63158133Y-95196115D02*
X63205752Y-95291353D01*
X63205752Y-95291353D02*
X63205752Y-95434210D01*
X63205752Y-95434210D02*
X63158133Y-95529448D01*
X62824800Y-95100877D02*
X62872419Y-95196115D01*
X62872419Y-95196115D02*
X62872419Y-95386591D01*
X62872419Y-95386591D02*
X62824800Y-95481829D01*
X62824800Y-95481829D02*
X62777180Y-95529448D01*
X62777180Y-95529448D02*
X62681942Y-95577067D01*
X62681942Y-95577067D02*
X62396228Y-95577067D01*
X62396228Y-95577067D02*
X62300990Y-95529448D01*
X62300990Y-95529448D02*
X62253371Y-95481829D01*
X62253371Y-95481829D02*
X62205752Y-95386591D01*
X62205752Y-95386591D02*
X62205752Y-95196115D01*
X62205752Y-95196115D02*
X62253371Y-95100877D01*
X62872419Y-93862781D02*
X61872419Y-93862781D01*
X61872419Y-93862781D02*
X61872419Y-93481829D01*
X61872419Y-93481829D02*
X61920038Y-93386591D01*
X61920038Y-93386591D02*
X61967657Y-93338972D01*
X61967657Y-93338972D02*
X62062895Y-93291353D01*
X62062895Y-93291353D02*
X62205752Y-93291353D01*
X62205752Y-93291353D02*
X62300990Y-93338972D01*
X62300990Y-93338972D02*
X62348609Y-93386591D01*
X62348609Y-93386591D02*
X62396228Y-93481829D01*
X62396228Y-93481829D02*
X62396228Y-93862781D01*
X62872419Y-92862781D02*
X62205752Y-92862781D01*
X62396228Y-92862781D02*
X62300990Y-92815162D01*
X62300990Y-92815162D02*
X62253371Y-92767543D01*
X62253371Y-92767543D02*
X62205752Y-92672305D01*
X62205752Y-92672305D02*
X62205752Y-92577067D01*
X62872419Y-92100876D02*
X62824800Y-92196114D01*
X62824800Y-92196114D02*
X62777180Y-92243733D01*
X62777180Y-92243733D02*
X62681942Y-92291352D01*
X62681942Y-92291352D02*
X62396228Y-92291352D01*
X62396228Y-92291352D02*
X62300990Y-92243733D01*
X62300990Y-92243733D02*
X62253371Y-92196114D01*
X62253371Y-92196114D02*
X62205752Y-92100876D01*
X62205752Y-92100876D02*
X62205752Y-91958019D01*
X62205752Y-91958019D02*
X62253371Y-91862781D01*
X62253371Y-91862781D02*
X62300990Y-91815162D01*
X62300990Y-91815162D02*
X62396228Y-91767543D01*
X62396228Y-91767543D02*
X62681942Y-91767543D01*
X62681942Y-91767543D02*
X62777180Y-91815162D01*
X62777180Y-91815162D02*
X62824800Y-91862781D01*
X62824800Y-91862781D02*
X62872419Y-91958019D01*
X62872419Y-91958019D02*
X62872419Y-92100876D01*
X62872419Y-91338971D02*
X61872419Y-91338971D01*
X62253371Y-91338971D02*
X62205752Y-91243733D01*
X62205752Y-91243733D02*
X62205752Y-91053257D01*
X62205752Y-91053257D02*
X62253371Y-90958019D01*
X62253371Y-90958019D02*
X62300990Y-90910400D01*
X62300990Y-90910400D02*
X62396228Y-90862781D01*
X62396228Y-90862781D02*
X62681942Y-90862781D01*
X62681942Y-90862781D02*
X62777180Y-90910400D01*
X62777180Y-90910400D02*
X62824800Y-90958019D01*
X62824800Y-90958019D02*
X62872419Y-91053257D01*
X62872419Y-91053257D02*
X62872419Y-91243733D01*
X62872419Y-91243733D02*
X62824800Y-91338971D01*
X62824800Y-90053257D02*
X62872419Y-90148495D01*
X62872419Y-90148495D02*
X62872419Y-90338971D01*
X62872419Y-90338971D02*
X62824800Y-90434209D01*
X62824800Y-90434209D02*
X62729561Y-90481828D01*
X62729561Y-90481828D02*
X62348609Y-90481828D01*
X62348609Y-90481828D02*
X62253371Y-90434209D01*
X62253371Y-90434209D02*
X62205752Y-90338971D01*
X62205752Y-90338971D02*
X62205752Y-90148495D01*
X62205752Y-90148495D02*
X62253371Y-90053257D01*
X62253371Y-90053257D02*
X62348609Y-90005638D01*
X62348609Y-90005638D02*
X62443847Y-90005638D01*
X62443847Y-90005638D02*
X62539085Y-90481828D01*
X93485864Y-67196115D02*
X94485864Y-67196115D01*
X93533483Y-67196115D02*
X93485864Y-67100877D01*
X93485864Y-67100877D02*
X93485864Y-66910401D01*
X93485864Y-66910401D02*
X93533483Y-66815163D01*
X93533483Y-66815163D02*
X93581102Y-66767544D01*
X93581102Y-66767544D02*
X93676340Y-66719925D01*
X93676340Y-66719925D02*
X93962054Y-66719925D01*
X93962054Y-66719925D02*
X94057292Y-66767544D01*
X94057292Y-66767544D02*
X94104912Y-66815163D01*
X94104912Y-66815163D02*
X94152531Y-66910401D01*
X94152531Y-66910401D02*
X94152531Y-67100877D01*
X94152531Y-67100877D02*
X94104912Y-67196115D01*
X94152531Y-66291353D02*
X93485864Y-66291353D01*
X93152531Y-66291353D02*
X93200150Y-66338972D01*
X93200150Y-66338972D02*
X93247769Y-66291353D01*
X93247769Y-66291353D02*
X93200150Y-66243734D01*
X93200150Y-66243734D02*
X93152531Y-66291353D01*
X93152531Y-66291353D02*
X93247769Y-66291353D01*
X94104912Y-65386592D02*
X94152531Y-65481830D01*
X94152531Y-65481830D02*
X94152531Y-65672306D01*
X94152531Y-65672306D02*
X94104912Y-65767544D01*
X94104912Y-65767544D02*
X94057292Y-65815163D01*
X94057292Y-65815163D02*
X93962054Y-65862782D01*
X93962054Y-65862782D02*
X93676340Y-65862782D01*
X93676340Y-65862782D02*
X93581102Y-65815163D01*
X93581102Y-65815163D02*
X93533483Y-65767544D01*
X93533483Y-65767544D02*
X93485864Y-65672306D01*
X93485864Y-65672306D02*
X93485864Y-65481830D01*
X93485864Y-65481830D02*
X93533483Y-65386592D01*
X94152531Y-64815163D02*
X94104912Y-64910401D01*
X94104912Y-64910401D02*
X94057292Y-64958020D01*
X94057292Y-64958020D02*
X93962054Y-65005639D01*
X93962054Y-65005639D02*
X93676340Y-65005639D01*
X93676340Y-65005639D02*
X93581102Y-64958020D01*
X93581102Y-64958020D02*
X93533483Y-64910401D01*
X93533483Y-64910401D02*
X93485864Y-64815163D01*
X93485864Y-64815163D02*
X93485864Y-64672306D01*
X93485864Y-64672306D02*
X93533483Y-64577068D01*
X93533483Y-64577068D02*
X93581102Y-64529449D01*
X93581102Y-64529449D02*
X93676340Y-64481830D01*
X93676340Y-64481830D02*
X93962054Y-64481830D01*
X93962054Y-64481830D02*
X94057292Y-64529449D01*
X94057292Y-64529449D02*
X94104912Y-64577068D01*
X94104912Y-64577068D02*
X94152531Y-64672306D01*
X94152531Y-64672306D02*
X94152531Y-64815163D01*
X94247769Y-64291354D02*
X94247769Y-63529449D01*
X94152531Y-62862782D02*
X93152531Y-62862782D01*
X94104912Y-62862782D02*
X94152531Y-62958020D01*
X94152531Y-62958020D02*
X94152531Y-63148496D01*
X94152531Y-63148496D02*
X94104912Y-63243734D01*
X94104912Y-63243734D02*
X94057292Y-63291353D01*
X94057292Y-63291353D02*
X93962054Y-63338972D01*
X93962054Y-63338972D02*
X93676340Y-63338972D01*
X93676340Y-63338972D02*
X93581102Y-63291353D01*
X93581102Y-63291353D02*
X93533483Y-63243734D01*
X93533483Y-63243734D02*
X93485864Y-63148496D01*
X93485864Y-63148496D02*
X93485864Y-62958020D01*
X93485864Y-62958020D02*
X93533483Y-62862782D01*
X94104912Y-62005639D02*
X94152531Y-62100877D01*
X94152531Y-62100877D02*
X94152531Y-62291353D01*
X94152531Y-62291353D02*
X94104912Y-62386591D01*
X94104912Y-62386591D02*
X94009673Y-62434210D01*
X94009673Y-62434210D02*
X93628721Y-62434210D01*
X93628721Y-62434210D02*
X93533483Y-62386591D01*
X93533483Y-62386591D02*
X93485864Y-62291353D01*
X93485864Y-62291353D02*
X93485864Y-62100877D01*
X93485864Y-62100877D02*
X93533483Y-62005639D01*
X93533483Y-62005639D02*
X93628721Y-61958020D01*
X93628721Y-61958020D02*
X93723959Y-61958020D01*
X93723959Y-61958020D02*
X93819197Y-62434210D01*
X94152531Y-61529448D02*
X93152531Y-61529448D01*
X93533483Y-61529448D02*
X93485864Y-61434210D01*
X93485864Y-61434210D02*
X93485864Y-61243734D01*
X93485864Y-61243734D02*
X93533483Y-61148496D01*
X93533483Y-61148496D02*
X93581102Y-61100877D01*
X93581102Y-61100877D02*
X93676340Y-61053258D01*
X93676340Y-61053258D02*
X93962054Y-61053258D01*
X93962054Y-61053258D02*
X94057292Y-61100877D01*
X94057292Y-61100877D02*
X94104912Y-61148496D01*
X94104912Y-61148496D02*
X94152531Y-61243734D01*
X94152531Y-61243734D02*
X94152531Y-61434210D01*
X94152531Y-61434210D02*
X94104912Y-61529448D01*
X93485864Y-60196115D02*
X94152531Y-60196115D01*
X93485864Y-60624686D02*
X94009673Y-60624686D01*
X94009673Y-60624686D02*
X94104912Y-60577067D01*
X94104912Y-60577067D02*
X94152531Y-60481829D01*
X94152531Y-60481829D02*
X94152531Y-60338972D01*
X94152531Y-60338972D02*
X94104912Y-60243734D01*
X94104912Y-60243734D02*
X94057292Y-60196115D01*
X93485864Y-59291353D02*
X94295388Y-59291353D01*
X94295388Y-59291353D02*
X94390626Y-59338972D01*
X94390626Y-59338972D02*
X94438245Y-59386591D01*
X94438245Y-59386591D02*
X94485864Y-59481829D01*
X94485864Y-59481829D02*
X94485864Y-59624686D01*
X94485864Y-59624686D02*
X94438245Y-59719924D01*
X94104912Y-59291353D02*
X94152531Y-59386591D01*
X94152531Y-59386591D02*
X94152531Y-59577067D01*
X94152531Y-59577067D02*
X94104912Y-59672305D01*
X94104912Y-59672305D02*
X94057292Y-59719924D01*
X94057292Y-59719924D02*
X93962054Y-59767543D01*
X93962054Y-59767543D02*
X93676340Y-59767543D01*
X93676340Y-59767543D02*
X93581102Y-59719924D01*
X93581102Y-59719924D02*
X93533483Y-59672305D01*
X93533483Y-59672305D02*
X93485864Y-59577067D01*
X93485864Y-59577067D02*
X93485864Y-59386591D01*
X93485864Y-59386591D02*
X93533483Y-59291353D01*
X93485864Y-58148495D02*
X94152531Y-57910400D01*
X94152531Y-57910400D02*
X93485864Y-57672305D01*
X93247769Y-57338971D02*
X93200150Y-57291352D01*
X93200150Y-57291352D02*
X93152531Y-57196114D01*
X93152531Y-57196114D02*
X93152531Y-56958019D01*
X93152531Y-56958019D02*
X93200150Y-56862781D01*
X93200150Y-56862781D02*
X93247769Y-56815162D01*
X93247769Y-56815162D02*
X93343007Y-56767543D01*
X93343007Y-56767543D02*
X93438245Y-56767543D01*
X93438245Y-56767543D02*
X93581102Y-56815162D01*
X93581102Y-56815162D02*
X94152531Y-57386590D01*
X94152531Y-57386590D02*
X94152531Y-56767543D01*
X95095808Y-67291353D02*
X95762475Y-67053258D01*
X95095808Y-66815163D02*
X95762475Y-67053258D01*
X95762475Y-67053258D02*
X96000570Y-67148496D01*
X96000570Y-67148496D02*
X96048189Y-67196115D01*
X96048189Y-67196115D02*
X96095808Y-67291353D01*
X95762475Y-66005639D02*
X95238665Y-66005639D01*
X95238665Y-66005639D02*
X95143427Y-66053258D01*
X95143427Y-66053258D02*
X95095808Y-66148496D01*
X95095808Y-66148496D02*
X95095808Y-66338972D01*
X95095808Y-66338972D02*
X95143427Y-66434210D01*
X95714856Y-66005639D02*
X95762475Y-66100877D01*
X95762475Y-66100877D02*
X95762475Y-66338972D01*
X95762475Y-66338972D02*
X95714856Y-66434210D01*
X95714856Y-66434210D02*
X95619617Y-66481829D01*
X95619617Y-66481829D02*
X95524379Y-66481829D01*
X95524379Y-66481829D02*
X95429141Y-66434210D01*
X95429141Y-66434210D02*
X95381522Y-66338972D01*
X95381522Y-66338972D02*
X95381522Y-66100877D01*
X95381522Y-66100877D02*
X95333903Y-66005639D01*
X95762475Y-65529448D02*
X95095808Y-65529448D01*
X95286284Y-65529448D02*
X95191046Y-65481829D01*
X95191046Y-65481829D02*
X95143427Y-65434210D01*
X95143427Y-65434210D02*
X95095808Y-65338972D01*
X95095808Y-65338972D02*
X95095808Y-65243734D01*
X95095808Y-64481829D02*
X95905332Y-64481829D01*
X95905332Y-64481829D02*
X96000570Y-64529448D01*
X96000570Y-64529448D02*
X96048189Y-64577067D01*
X96048189Y-64577067D02*
X96095808Y-64672305D01*
X96095808Y-64672305D02*
X96095808Y-64815162D01*
X96095808Y-64815162D02*
X96048189Y-64910400D01*
X95714856Y-64481829D02*
X95762475Y-64577067D01*
X95762475Y-64577067D02*
X95762475Y-64767543D01*
X95762475Y-64767543D02*
X95714856Y-64862781D01*
X95714856Y-64862781D02*
X95667236Y-64910400D01*
X95667236Y-64910400D02*
X95571998Y-64958019D01*
X95571998Y-64958019D02*
X95286284Y-64958019D01*
X95286284Y-64958019D02*
X95191046Y-64910400D01*
X95191046Y-64910400D02*
X95143427Y-64862781D01*
X95143427Y-64862781D02*
X95095808Y-64767543D01*
X95095808Y-64767543D02*
X95095808Y-64577067D01*
X95095808Y-64577067D02*
X95143427Y-64481829D01*
X95381522Y-64005638D02*
X95381522Y-63243734D01*
X95762475Y-62624686D02*
X95714856Y-62719924D01*
X95714856Y-62719924D02*
X95619617Y-62767543D01*
X95619617Y-62767543D02*
X94762475Y-62767543D01*
X95762475Y-61815162D02*
X95238665Y-61815162D01*
X95238665Y-61815162D02*
X95143427Y-61862781D01*
X95143427Y-61862781D02*
X95095808Y-61958019D01*
X95095808Y-61958019D02*
X95095808Y-62148495D01*
X95095808Y-62148495D02*
X95143427Y-62243733D01*
X95714856Y-61815162D02*
X95762475Y-61910400D01*
X95762475Y-61910400D02*
X95762475Y-62148495D01*
X95762475Y-62148495D02*
X95714856Y-62243733D01*
X95714856Y-62243733D02*
X95619617Y-62291352D01*
X95619617Y-62291352D02*
X95524379Y-62291352D01*
X95524379Y-62291352D02*
X95429141Y-62243733D01*
X95429141Y-62243733D02*
X95381522Y-62148495D01*
X95381522Y-62148495D02*
X95381522Y-61910400D01*
X95381522Y-61910400D02*
X95333903Y-61815162D01*
X95095808Y-61338971D02*
X95762475Y-61338971D01*
X95191046Y-61338971D02*
X95143427Y-61291352D01*
X95143427Y-61291352D02*
X95095808Y-61196114D01*
X95095808Y-61196114D02*
X95095808Y-61053257D01*
X95095808Y-61053257D02*
X95143427Y-60958019D01*
X95143427Y-60958019D02*
X95238665Y-60910400D01*
X95238665Y-60910400D02*
X95762475Y-60910400D01*
X95095808Y-60005638D02*
X95905332Y-60005638D01*
X95905332Y-60005638D02*
X96000570Y-60053257D01*
X96000570Y-60053257D02*
X96048189Y-60100876D01*
X96048189Y-60100876D02*
X96095808Y-60196114D01*
X96095808Y-60196114D02*
X96095808Y-60338971D01*
X96095808Y-60338971D02*
X96048189Y-60434209D01*
X95714856Y-60005638D02*
X95762475Y-60100876D01*
X95762475Y-60100876D02*
X95762475Y-60291352D01*
X95762475Y-60291352D02*
X95714856Y-60386590D01*
X95714856Y-60386590D02*
X95667236Y-60434209D01*
X95667236Y-60434209D02*
X95571998Y-60481828D01*
X95571998Y-60481828D02*
X95286284Y-60481828D01*
X95286284Y-60481828D02*
X95191046Y-60434209D01*
X95191046Y-60434209D02*
X95143427Y-60386590D01*
X95143427Y-60386590D02*
X95095808Y-60291352D01*
X95095808Y-60291352D02*
X95095808Y-60100876D01*
X95095808Y-60100876D02*
X95143427Y-60005638D01*
X95667236Y-59529447D02*
X95714856Y-59481828D01*
X95714856Y-59481828D02*
X95762475Y-59529447D01*
X95762475Y-59529447D02*
X95714856Y-59577066D01*
X95714856Y-59577066D02*
X95667236Y-59529447D01*
X95667236Y-59529447D02*
X95762475Y-59529447D01*
X95762475Y-58624686D02*
X94762475Y-58624686D01*
X95714856Y-58624686D02*
X95762475Y-58719924D01*
X95762475Y-58719924D02*
X95762475Y-58910400D01*
X95762475Y-58910400D02*
X95714856Y-59005638D01*
X95714856Y-59005638D02*
X95667236Y-59053257D01*
X95667236Y-59053257D02*
X95571998Y-59100876D01*
X95571998Y-59100876D02*
X95286284Y-59100876D01*
X95286284Y-59100876D02*
X95191046Y-59053257D01*
X95191046Y-59053257D02*
X95143427Y-59005638D01*
X95143427Y-59005638D02*
X95095808Y-58910400D01*
X95095808Y-58910400D02*
X95095808Y-58719924D01*
X95095808Y-58719924D02*
X95143427Y-58624686D01*
X95714856Y-57767543D02*
X95762475Y-57862781D01*
X95762475Y-57862781D02*
X95762475Y-58053257D01*
X95762475Y-58053257D02*
X95714856Y-58148495D01*
X95714856Y-58148495D02*
X95619617Y-58196114D01*
X95619617Y-58196114D02*
X95238665Y-58196114D01*
X95238665Y-58196114D02*
X95143427Y-58148495D01*
X95143427Y-58148495D02*
X95095808Y-58053257D01*
X95095808Y-58053257D02*
X95095808Y-57862781D01*
X95095808Y-57862781D02*
X95143427Y-57767543D01*
X95143427Y-57767543D02*
X95238665Y-57719924D01*
X95238665Y-57719924D02*
X95333903Y-57719924D01*
X95333903Y-57719924D02*
X95429141Y-58196114D01*
X95095808Y-57386590D02*
X95762475Y-57148495D01*
X95762475Y-57148495D02*
X95095808Y-56910400D01*
X96372419Y-66910401D02*
X97086704Y-66910401D01*
X97086704Y-66910401D02*
X97229561Y-66958020D01*
X97229561Y-66958020D02*
X97324800Y-67053258D01*
X97324800Y-67053258D02*
X97372419Y-67196115D01*
X97372419Y-67196115D02*
X97372419Y-67291353D01*
X97372419Y-66291353D02*
X97324800Y-66386591D01*
X97324800Y-66386591D02*
X97277180Y-66434210D01*
X97277180Y-66434210D02*
X97181942Y-66481829D01*
X97181942Y-66481829D02*
X96896228Y-66481829D01*
X96896228Y-66481829D02*
X96800990Y-66434210D01*
X96800990Y-66434210D02*
X96753371Y-66386591D01*
X96753371Y-66386591D02*
X96705752Y-66291353D01*
X96705752Y-66291353D02*
X96705752Y-66148496D01*
X96705752Y-66148496D02*
X96753371Y-66053258D01*
X96753371Y-66053258D02*
X96800990Y-66005639D01*
X96800990Y-66005639D02*
X96896228Y-65958020D01*
X96896228Y-65958020D02*
X97181942Y-65958020D01*
X97181942Y-65958020D02*
X97277180Y-66005639D01*
X97277180Y-66005639D02*
X97324800Y-66053258D01*
X97324800Y-66053258D02*
X97372419Y-66148496D01*
X97372419Y-66148496D02*
X97372419Y-66291353D01*
X97372419Y-65529448D02*
X96372419Y-65529448D01*
X97372419Y-65100877D02*
X96848609Y-65100877D01*
X96848609Y-65100877D02*
X96753371Y-65148496D01*
X96753371Y-65148496D02*
X96705752Y-65243734D01*
X96705752Y-65243734D02*
X96705752Y-65386591D01*
X96705752Y-65386591D02*
X96753371Y-65481829D01*
X96753371Y-65481829D02*
X96800990Y-65529448D01*
X96705752Y-64624686D02*
X97372419Y-64624686D01*
X96800990Y-64624686D02*
X96753371Y-64577067D01*
X96753371Y-64577067D02*
X96705752Y-64481829D01*
X96705752Y-64481829D02*
X96705752Y-64338972D01*
X96705752Y-64338972D02*
X96753371Y-64243734D01*
X96753371Y-64243734D02*
X96848609Y-64196115D01*
X96848609Y-64196115D02*
X97372419Y-64196115D01*
X97372419Y-62958019D02*
X96372419Y-62958019D01*
X96372419Y-62958019D02*
X97086704Y-62624686D01*
X97086704Y-62624686D02*
X96372419Y-62291353D01*
X96372419Y-62291353D02*
X97372419Y-62291353D01*
X97324800Y-61386591D02*
X97372419Y-61481829D01*
X97372419Y-61481829D02*
X97372419Y-61672305D01*
X97372419Y-61672305D02*
X97324800Y-61767543D01*
X97324800Y-61767543D02*
X97277180Y-61815162D01*
X97277180Y-61815162D02*
X97181942Y-61862781D01*
X97181942Y-61862781D02*
X96896228Y-61862781D01*
X96896228Y-61862781D02*
X96800990Y-61815162D01*
X96800990Y-61815162D02*
X96753371Y-61767543D01*
X96753371Y-61767543D02*
X96705752Y-61672305D01*
X96705752Y-61672305D02*
X96705752Y-61481829D01*
X96705752Y-61481829D02*
X96753371Y-61386591D01*
X97086704Y-61005638D02*
X97086704Y-60529448D01*
X97372419Y-61100876D02*
X96372419Y-60767543D01*
X96372419Y-60767543D02*
X97372419Y-60434210D01*
X97372419Y-59958019D02*
X97324800Y-60053257D01*
X97324800Y-60053257D02*
X97229561Y-60100876D01*
X97229561Y-60100876D02*
X96372419Y-60100876D01*
X97324800Y-59196114D02*
X97372419Y-59291352D01*
X97372419Y-59291352D02*
X97372419Y-59481828D01*
X97372419Y-59481828D02*
X97324800Y-59577066D01*
X97324800Y-59577066D02*
X97229561Y-59624685D01*
X97229561Y-59624685D02*
X96848609Y-59624685D01*
X96848609Y-59624685D02*
X96753371Y-59577066D01*
X96753371Y-59577066D02*
X96705752Y-59481828D01*
X96705752Y-59481828D02*
X96705752Y-59291352D01*
X96705752Y-59291352D02*
X96753371Y-59196114D01*
X96753371Y-59196114D02*
X96848609Y-59148495D01*
X96848609Y-59148495D02*
X96943847Y-59148495D01*
X96943847Y-59148495D02*
X97039085Y-59624685D01*
X97324800Y-58338971D02*
X97372419Y-58434209D01*
X97372419Y-58434209D02*
X97372419Y-58624685D01*
X97372419Y-58624685D02*
X97324800Y-58719923D01*
X97324800Y-58719923D02*
X97229561Y-58767542D01*
X97229561Y-58767542D02*
X96848609Y-58767542D01*
X96848609Y-58767542D02*
X96753371Y-58719923D01*
X96753371Y-58719923D02*
X96705752Y-58624685D01*
X96705752Y-58624685D02*
X96705752Y-58434209D01*
X96705752Y-58434209D02*
X96753371Y-58338971D01*
X96753371Y-58338971D02*
X96848609Y-58291352D01*
X96848609Y-58291352D02*
X96943847Y-58291352D01*
X96943847Y-58291352D02*
X97039085Y-58767542D01*
X97372419Y-57719923D02*
X97324800Y-57815161D01*
X97324800Y-57815161D02*
X97229561Y-57862780D01*
X97229561Y-57862780D02*
X96372419Y-57862780D01*
X96705752Y-57434208D02*
X97372419Y-57196113D01*
X96705752Y-56958018D02*
X97372419Y-57196113D01*
X97372419Y-57196113D02*
X97610514Y-57291351D01*
X97610514Y-57291351D02*
X97658133Y-57338970D01*
X97658133Y-57338970D02*
X97705752Y-57434208D01*
X96467657Y-55862779D02*
X96420038Y-55815160D01*
X96420038Y-55815160D02*
X96372419Y-55719922D01*
X96372419Y-55719922D02*
X96372419Y-55481827D01*
X96372419Y-55481827D02*
X96420038Y-55386589D01*
X96420038Y-55386589D02*
X96467657Y-55338970D01*
X96467657Y-55338970D02*
X96562895Y-55291351D01*
X96562895Y-55291351D02*
X96658133Y-55291351D01*
X96658133Y-55291351D02*
X96800990Y-55338970D01*
X96800990Y-55338970D02*
X97372419Y-55910398D01*
X97372419Y-55910398D02*
X97372419Y-55291351D01*
X96372419Y-54672303D02*
X96372419Y-54577065D01*
X96372419Y-54577065D02*
X96420038Y-54481827D01*
X96420038Y-54481827D02*
X96467657Y-54434208D01*
X96467657Y-54434208D02*
X96562895Y-54386589D01*
X96562895Y-54386589D02*
X96753371Y-54338970D01*
X96753371Y-54338970D02*
X96991466Y-54338970D01*
X96991466Y-54338970D02*
X97181942Y-54386589D01*
X97181942Y-54386589D02*
X97277180Y-54434208D01*
X97277180Y-54434208D02*
X97324800Y-54481827D01*
X97324800Y-54481827D02*
X97372419Y-54577065D01*
X97372419Y-54577065D02*
X97372419Y-54672303D01*
X97372419Y-54672303D02*
X97324800Y-54767541D01*
X97324800Y-54767541D02*
X97277180Y-54815160D01*
X97277180Y-54815160D02*
X97181942Y-54862779D01*
X97181942Y-54862779D02*
X96991466Y-54910398D01*
X96991466Y-54910398D02*
X96753371Y-54910398D01*
X96753371Y-54910398D02*
X96562895Y-54862779D01*
X96562895Y-54862779D02*
X96467657Y-54815160D01*
X96467657Y-54815160D02*
X96420038Y-54767541D01*
X96420038Y-54767541D02*
X96372419Y-54672303D01*
X96467657Y-53958017D02*
X96420038Y-53910398D01*
X96420038Y-53910398D02*
X96372419Y-53815160D01*
X96372419Y-53815160D02*
X96372419Y-53577065D01*
X96372419Y-53577065D02*
X96420038Y-53481827D01*
X96420038Y-53481827D02*
X96467657Y-53434208D01*
X96467657Y-53434208D02*
X96562895Y-53386589D01*
X96562895Y-53386589D02*
X96658133Y-53386589D01*
X96658133Y-53386589D02*
X96800990Y-53434208D01*
X96800990Y-53434208D02*
X97372419Y-54005636D01*
X97372419Y-54005636D02*
X97372419Y-53386589D01*
X96372419Y-52529446D02*
X96372419Y-52719922D01*
X96372419Y-52719922D02*
X96420038Y-52815160D01*
X96420038Y-52815160D02*
X96467657Y-52862779D01*
X96467657Y-52862779D02*
X96610514Y-52958017D01*
X96610514Y-52958017D02*
X96800990Y-53005636D01*
X96800990Y-53005636D02*
X97181942Y-53005636D01*
X97181942Y-53005636D02*
X97277180Y-52958017D01*
X97277180Y-52958017D02*
X97324800Y-52910398D01*
X97324800Y-52910398D02*
X97372419Y-52815160D01*
X97372419Y-52815160D02*
X97372419Y-52624684D01*
X97372419Y-52624684D02*
X97324800Y-52529446D01*
X97324800Y-52529446D02*
X97277180Y-52481827D01*
X97277180Y-52481827D02*
X97181942Y-52434208D01*
X97181942Y-52434208D02*
X96943847Y-52434208D01*
X96943847Y-52434208D02*
X96848609Y-52481827D01*
X96848609Y-52481827D02*
X96800990Y-52529446D01*
X96800990Y-52529446D02*
X96753371Y-52624684D01*
X96753371Y-52624684D02*
X96753371Y-52815160D01*
X96753371Y-52815160D02*
X96800990Y-52910398D01*
X96800990Y-52910398D02*
X96848609Y-52958017D01*
X96848609Y-52958017D02*
X96943847Y-53005636D01*
X99372419Y-99338972D02*
X99372419Y-98767544D01*
X100372419Y-99053258D02*
X99372419Y-99053258D01*
X100372419Y-98005639D02*
X99848609Y-98005639D01*
X99848609Y-98005639D02*
X99753371Y-98053258D01*
X99753371Y-98053258D02*
X99705752Y-98148496D01*
X99705752Y-98148496D02*
X99705752Y-98338972D01*
X99705752Y-98338972D02*
X99753371Y-98434210D01*
X100324800Y-98005639D02*
X100372419Y-98100877D01*
X100372419Y-98100877D02*
X100372419Y-98338972D01*
X100372419Y-98338972D02*
X100324800Y-98434210D01*
X100324800Y-98434210D02*
X100229561Y-98481829D01*
X100229561Y-98481829D02*
X100134323Y-98481829D01*
X100134323Y-98481829D02*
X100039085Y-98434210D01*
X100039085Y-98434210D02*
X99991466Y-98338972D01*
X99991466Y-98338972D02*
X99991466Y-98100877D01*
X99991466Y-98100877D02*
X99943847Y-98005639D01*
X100372419Y-97529448D02*
X99705752Y-97529448D01*
X99896228Y-97529448D02*
X99800990Y-97481829D01*
X99800990Y-97481829D02*
X99753371Y-97434210D01*
X99753371Y-97434210D02*
X99705752Y-97338972D01*
X99705752Y-97338972D02*
X99705752Y-97243734D01*
X99705752Y-96481829D02*
X100515276Y-96481829D01*
X100515276Y-96481829D02*
X100610514Y-96529448D01*
X100610514Y-96529448D02*
X100658133Y-96577067D01*
X100658133Y-96577067D02*
X100705752Y-96672305D01*
X100705752Y-96672305D02*
X100705752Y-96815162D01*
X100705752Y-96815162D02*
X100658133Y-96910400D01*
X100324800Y-96481829D02*
X100372419Y-96577067D01*
X100372419Y-96577067D02*
X100372419Y-96767543D01*
X100372419Y-96767543D02*
X100324800Y-96862781D01*
X100324800Y-96862781D02*
X100277180Y-96910400D01*
X100277180Y-96910400D02*
X100181942Y-96958019D01*
X100181942Y-96958019D02*
X99896228Y-96958019D01*
X99896228Y-96958019D02*
X99800990Y-96910400D01*
X99800990Y-96910400D02*
X99753371Y-96862781D01*
X99753371Y-96862781D02*
X99705752Y-96767543D01*
X99705752Y-96767543D02*
X99705752Y-96577067D01*
X99705752Y-96577067D02*
X99753371Y-96481829D01*
X100324800Y-95624686D02*
X100372419Y-95719924D01*
X100372419Y-95719924D02*
X100372419Y-95910400D01*
X100372419Y-95910400D02*
X100324800Y-96005638D01*
X100324800Y-96005638D02*
X100229561Y-96053257D01*
X100229561Y-96053257D02*
X99848609Y-96053257D01*
X99848609Y-96053257D02*
X99753371Y-96005638D01*
X99753371Y-96005638D02*
X99705752Y-95910400D01*
X99705752Y-95910400D02*
X99705752Y-95719924D01*
X99705752Y-95719924D02*
X99753371Y-95624686D01*
X99753371Y-95624686D02*
X99848609Y-95577067D01*
X99848609Y-95577067D02*
X99943847Y-95577067D01*
X99943847Y-95577067D02*
X100039085Y-96053257D01*
X99705752Y-95291352D02*
X99705752Y-94910400D01*
X99372419Y-95148495D02*
X100229561Y-95148495D01*
X100229561Y-95148495D02*
X100324800Y-95100876D01*
X100324800Y-95100876D02*
X100372419Y-95005638D01*
X100372419Y-95005638D02*
X100372419Y-94910400D01*
X141372419Y-81696115D02*
X140372419Y-81696115D01*
X141372419Y-81267544D02*
X140848609Y-81267544D01*
X140848609Y-81267544D02*
X140753371Y-81315163D01*
X140753371Y-81315163D02*
X140705752Y-81410401D01*
X140705752Y-81410401D02*
X140705752Y-81553258D01*
X140705752Y-81553258D02*
X140753371Y-81648496D01*
X140753371Y-81648496D02*
X140800990Y-81696115D01*
X141324800Y-80410401D02*
X141372419Y-80505639D01*
X141372419Y-80505639D02*
X141372419Y-80696115D01*
X141372419Y-80696115D02*
X141324800Y-80791353D01*
X141324800Y-80791353D02*
X141229561Y-80838972D01*
X141229561Y-80838972D02*
X140848609Y-80838972D01*
X140848609Y-80838972D02*
X140753371Y-80791353D01*
X140753371Y-80791353D02*
X140705752Y-80696115D01*
X140705752Y-80696115D02*
X140705752Y-80505639D01*
X140705752Y-80505639D02*
X140753371Y-80410401D01*
X140753371Y-80410401D02*
X140848609Y-80362782D01*
X140848609Y-80362782D02*
X140943847Y-80362782D01*
X140943847Y-80362782D02*
X141039085Y-80838972D01*
X141372419Y-79791353D02*
X141324800Y-79886591D01*
X141324800Y-79886591D02*
X141229561Y-79934210D01*
X141229561Y-79934210D02*
X140372419Y-79934210D01*
X141372419Y-79267543D02*
X141324800Y-79362781D01*
X141324800Y-79362781D02*
X141229561Y-79410400D01*
X141229561Y-79410400D02*
X140372419Y-79410400D01*
X141372419Y-78743733D02*
X141324800Y-78838971D01*
X141324800Y-78838971D02*
X141277180Y-78886590D01*
X141277180Y-78886590D02*
X141181942Y-78934209D01*
X141181942Y-78934209D02*
X140896228Y-78934209D01*
X140896228Y-78934209D02*
X140800990Y-78886590D01*
X140800990Y-78886590D02*
X140753371Y-78838971D01*
X140753371Y-78838971D02*
X140705752Y-78743733D01*
X140705752Y-78743733D02*
X140705752Y-78600876D01*
X140705752Y-78600876D02*
X140753371Y-78505638D01*
X140753371Y-78505638D02*
X140800990Y-78458019D01*
X140800990Y-78458019D02*
X140896228Y-78410400D01*
X140896228Y-78410400D02*
X141181942Y-78410400D01*
X141181942Y-78410400D02*
X141277180Y-78458019D01*
X141277180Y-78458019D02*
X141324800Y-78505638D01*
X141324800Y-78505638D02*
X141372419Y-78600876D01*
X141372419Y-78600876D02*
X141372419Y-78743733D01*
X141467657Y-78219924D02*
X141467657Y-77458019D01*
X141372419Y-77219923D02*
X140372419Y-77219923D01*
X140753371Y-77219923D02*
X140705752Y-77124685D01*
X140705752Y-77124685D02*
X140705752Y-76934209D01*
X140705752Y-76934209D02*
X140753371Y-76838971D01*
X140753371Y-76838971D02*
X140800990Y-76791352D01*
X140800990Y-76791352D02*
X140896228Y-76743733D01*
X140896228Y-76743733D02*
X141181942Y-76743733D01*
X141181942Y-76743733D02*
X141277180Y-76791352D01*
X141277180Y-76791352D02*
X141324800Y-76838971D01*
X141324800Y-76838971D02*
X141372419Y-76934209D01*
X141372419Y-76934209D02*
X141372419Y-77124685D01*
X141372419Y-77124685D02*
X141324800Y-77219923D01*
X140705752Y-75886590D02*
X141372419Y-75886590D01*
X140705752Y-76315161D02*
X141229561Y-76315161D01*
X141229561Y-76315161D02*
X141324800Y-76267542D01*
X141324800Y-76267542D02*
X141372419Y-76172304D01*
X141372419Y-76172304D02*
X141372419Y-76029447D01*
X141372419Y-76029447D02*
X141324800Y-75934209D01*
X141324800Y-75934209D02*
X141277180Y-75886590D01*
X140705752Y-75553256D02*
X140705752Y-75172304D01*
X140372419Y-75410399D02*
X141229561Y-75410399D01*
X141229561Y-75410399D02*
X141324800Y-75362780D01*
X141324800Y-75362780D02*
X141372419Y-75267542D01*
X141372419Y-75267542D02*
X141372419Y-75172304D01*
X140705752Y-74981827D02*
X140705752Y-74600875D01*
X140372419Y-74838970D02*
X141229561Y-74838970D01*
X141229561Y-74838970D02*
X141324800Y-74791351D01*
X141324800Y-74791351D02*
X141372419Y-74696113D01*
X141372419Y-74696113D02*
X141372419Y-74600875D01*
X141372419Y-74124684D02*
X141324800Y-74219922D01*
X141324800Y-74219922D02*
X141277180Y-74267541D01*
X141277180Y-74267541D02*
X141181942Y-74315160D01*
X141181942Y-74315160D02*
X140896228Y-74315160D01*
X140896228Y-74315160D02*
X140800990Y-74267541D01*
X140800990Y-74267541D02*
X140753371Y-74219922D01*
X140753371Y-74219922D02*
X140705752Y-74124684D01*
X140705752Y-74124684D02*
X140705752Y-73981827D01*
X140705752Y-73981827D02*
X140753371Y-73886589D01*
X140753371Y-73886589D02*
X140800990Y-73838970D01*
X140800990Y-73838970D02*
X140896228Y-73791351D01*
X140896228Y-73791351D02*
X141181942Y-73791351D01*
X141181942Y-73791351D02*
X141277180Y-73838970D01*
X141277180Y-73838970D02*
X141324800Y-73886589D01*
X141324800Y-73886589D02*
X141372419Y-73981827D01*
X141372419Y-73981827D02*
X141372419Y-74124684D01*
X140705752Y-73362779D02*
X141372419Y-73362779D01*
X140800990Y-73362779D02*
X140753371Y-73315160D01*
X140753371Y-73315160D02*
X140705752Y-73219922D01*
X140705752Y-73219922D02*
X140705752Y-73077065D01*
X140705752Y-73077065D02*
X140753371Y-72981827D01*
X140753371Y-72981827D02*
X140848609Y-72934208D01*
X140848609Y-72934208D02*
X141372419Y-72934208D01*
D11*
X55102381Y-63034819D02*
X55102381Y-62034819D01*
X55102381Y-62034819D02*
X55340476Y-62034819D01*
X55340476Y-62034819D02*
X55483333Y-62082438D01*
X55483333Y-62082438D02*
X55578571Y-62177676D01*
X55578571Y-62177676D02*
X55626190Y-62272914D01*
X55626190Y-62272914D02*
X55673809Y-62463390D01*
X55673809Y-62463390D02*
X55673809Y-62606247D01*
X55673809Y-62606247D02*
X55626190Y-62796723D01*
X55626190Y-62796723D02*
X55578571Y-62891961D01*
X55578571Y-62891961D02*
X55483333Y-62987200D01*
X55483333Y-62987200D02*
X55340476Y-63034819D01*
X55340476Y-63034819D02*
X55102381Y-63034819D01*
X56483333Y-62987200D02*
X56388095Y-63034819D01*
X56388095Y-63034819D02*
X56197619Y-63034819D01*
X56197619Y-63034819D02*
X56102381Y-62987200D01*
X56102381Y-62987200D02*
X56054762Y-62891961D01*
X56054762Y-62891961D02*
X56054762Y-62511009D01*
X56054762Y-62511009D02*
X56102381Y-62415771D01*
X56102381Y-62415771D02*
X56197619Y-62368152D01*
X56197619Y-62368152D02*
X56388095Y-62368152D01*
X56388095Y-62368152D02*
X56483333Y-62415771D01*
X56483333Y-62415771D02*
X56530952Y-62511009D01*
X56530952Y-62511009D02*
X56530952Y-62606247D01*
X56530952Y-62606247D02*
X56054762Y-62701485D01*
X56959524Y-63034819D02*
X56959524Y-62034819D01*
X56959524Y-62415771D02*
X57054762Y-62368152D01*
X57054762Y-62368152D02*
X57245238Y-62368152D01*
X57245238Y-62368152D02*
X57340476Y-62415771D01*
X57340476Y-62415771D02*
X57388095Y-62463390D01*
X57388095Y-62463390D02*
X57435714Y-62558628D01*
X57435714Y-62558628D02*
X57435714Y-62844342D01*
X57435714Y-62844342D02*
X57388095Y-62939580D01*
X57388095Y-62939580D02*
X57340476Y-62987200D01*
X57340476Y-62987200D02*
X57245238Y-63034819D01*
X57245238Y-63034819D02*
X57054762Y-63034819D01*
X57054762Y-63034819D02*
X56959524Y-62987200D01*
X58292857Y-62368152D02*
X58292857Y-63034819D01*
X57864286Y-62368152D02*
X57864286Y-62891961D01*
X57864286Y-62891961D02*
X57911905Y-62987200D01*
X57911905Y-62987200D02*
X58007143Y-63034819D01*
X58007143Y-63034819D02*
X58150000Y-63034819D01*
X58150000Y-63034819D02*
X58245238Y-62987200D01*
X58245238Y-62987200D02*
X58292857Y-62939580D01*
X59197619Y-62368152D02*
X59197619Y-63177676D01*
X59197619Y-63177676D02*
X59150000Y-63272914D01*
X59150000Y-63272914D02*
X59102381Y-63320533D01*
X59102381Y-63320533D02*
X59007143Y-63368152D01*
X59007143Y-63368152D02*
X58864286Y-63368152D01*
X58864286Y-63368152D02*
X58769048Y-63320533D01*
X59197619Y-62987200D02*
X59102381Y-63034819D01*
X59102381Y-63034819D02*
X58911905Y-63034819D01*
X58911905Y-63034819D02*
X58816667Y-62987200D01*
X58816667Y-62987200D02*
X58769048Y-62939580D01*
X58769048Y-62939580D02*
X58721429Y-62844342D01*
X58721429Y-62844342D02*
X58721429Y-62558628D01*
X58721429Y-62558628D02*
X58769048Y-62463390D01*
X58769048Y-62463390D02*
X58816667Y-62415771D01*
X58816667Y-62415771D02*
X58911905Y-62368152D01*
X58911905Y-62368152D02*
X59102381Y-62368152D01*
X59102381Y-62368152D02*
X59197619Y-62415771D01*
X95281904Y-74944819D02*
X94948571Y-74468628D01*
X94710476Y-74944819D02*
X94710476Y-73944819D01*
X94710476Y-73944819D02*
X95091428Y-73944819D01*
X95091428Y-73944819D02*
X95186666Y-73992438D01*
X95186666Y-73992438D02*
X95234285Y-74040057D01*
X95234285Y-74040057D02*
X95281904Y-74135295D01*
X95281904Y-74135295D02*
X95281904Y-74278152D01*
X95281904Y-74278152D02*
X95234285Y-74373390D01*
X95234285Y-74373390D02*
X95186666Y-74421009D01*
X95186666Y-74421009D02*
X95091428Y-74468628D01*
X95091428Y-74468628D02*
X94710476Y-74468628D01*
X96091428Y-74897200D02*
X95996190Y-74944819D01*
X95996190Y-74944819D02*
X95805714Y-74944819D01*
X95805714Y-74944819D02*
X95710476Y-74897200D01*
X95710476Y-74897200D02*
X95662857Y-74801961D01*
X95662857Y-74801961D02*
X95662857Y-74421009D01*
X95662857Y-74421009D02*
X95710476Y-74325771D01*
X95710476Y-74325771D02*
X95805714Y-74278152D01*
X95805714Y-74278152D02*
X95996190Y-74278152D01*
X95996190Y-74278152D02*
X96091428Y-74325771D01*
X96091428Y-74325771D02*
X96139047Y-74421009D01*
X96139047Y-74421009D02*
X96139047Y-74516247D01*
X96139047Y-74516247D02*
X95662857Y-74611485D01*
X96520000Y-74897200D02*
X96615238Y-74944819D01*
X96615238Y-74944819D02*
X96805714Y-74944819D01*
X96805714Y-74944819D02*
X96900952Y-74897200D01*
X96900952Y-74897200D02*
X96948571Y-74801961D01*
X96948571Y-74801961D02*
X96948571Y-74754342D01*
X96948571Y-74754342D02*
X96900952Y-74659104D01*
X96900952Y-74659104D02*
X96805714Y-74611485D01*
X96805714Y-74611485D02*
X96662857Y-74611485D01*
X96662857Y-74611485D02*
X96567619Y-74563866D01*
X96567619Y-74563866D02*
X96520000Y-74468628D01*
X96520000Y-74468628D02*
X96520000Y-74421009D01*
X96520000Y-74421009D02*
X96567619Y-74325771D01*
X96567619Y-74325771D02*
X96662857Y-74278152D01*
X96662857Y-74278152D02*
X96805714Y-74278152D01*
X96805714Y-74278152D02*
X96900952Y-74325771D01*
X97758095Y-74897200D02*
X97662857Y-74944819D01*
X97662857Y-74944819D02*
X97472381Y-74944819D01*
X97472381Y-74944819D02*
X97377143Y-74897200D01*
X97377143Y-74897200D02*
X97329524Y-74801961D01*
X97329524Y-74801961D02*
X97329524Y-74421009D01*
X97329524Y-74421009D02*
X97377143Y-74325771D01*
X97377143Y-74325771D02*
X97472381Y-74278152D01*
X97472381Y-74278152D02*
X97662857Y-74278152D01*
X97662857Y-74278152D02*
X97758095Y-74325771D01*
X97758095Y-74325771D02*
X97805714Y-74421009D01*
X97805714Y-74421009D02*
X97805714Y-74516247D01*
X97805714Y-74516247D02*
X97329524Y-74611485D01*
X98091429Y-74278152D02*
X98472381Y-74278152D01*
X98234286Y-73944819D02*
X98234286Y-74801961D01*
X98234286Y-74801961D02*
X98281905Y-74897200D01*
X98281905Y-74897200D02*
X98377143Y-74944819D01*
X98377143Y-74944819D02*
X98472381Y-74944819D01*
X88474279Y-101419819D02*
X88474279Y-100419819D01*
X88474279Y-100419819D02*
X88712374Y-100419819D01*
X88712374Y-100419819D02*
X88855231Y-100467438D01*
X88855231Y-100467438D02*
X88950469Y-100562676D01*
X88950469Y-100562676D02*
X88998088Y-100657914D01*
X88998088Y-100657914D02*
X89045707Y-100848390D01*
X89045707Y-100848390D02*
X89045707Y-100991247D01*
X89045707Y-100991247D02*
X88998088Y-101181723D01*
X88998088Y-101181723D02*
X88950469Y-101276961D01*
X88950469Y-101276961D02*
X88855231Y-101372200D01*
X88855231Y-101372200D02*
X88712374Y-101419819D01*
X88712374Y-101419819D02*
X88474279Y-101419819D01*
X89855231Y-101372200D02*
X89759993Y-101419819D01*
X89759993Y-101419819D02*
X89569517Y-101419819D01*
X89569517Y-101419819D02*
X89474279Y-101372200D01*
X89474279Y-101372200D02*
X89426660Y-101276961D01*
X89426660Y-101276961D02*
X89426660Y-100896009D01*
X89426660Y-100896009D02*
X89474279Y-100800771D01*
X89474279Y-100800771D02*
X89569517Y-100753152D01*
X89569517Y-100753152D02*
X89759993Y-100753152D01*
X89759993Y-100753152D02*
X89855231Y-100800771D01*
X89855231Y-100800771D02*
X89902850Y-100896009D01*
X89902850Y-100896009D02*
X89902850Y-100991247D01*
X89902850Y-100991247D02*
X89426660Y-101086485D01*
X90331422Y-101419819D02*
X90331422Y-100419819D01*
X90331422Y-100800771D02*
X90426660Y-100753152D01*
X90426660Y-100753152D02*
X90617136Y-100753152D01*
X90617136Y-100753152D02*
X90712374Y-100800771D01*
X90712374Y-100800771D02*
X90759993Y-100848390D01*
X90759993Y-100848390D02*
X90807612Y-100943628D01*
X90807612Y-100943628D02*
X90807612Y-101229342D01*
X90807612Y-101229342D02*
X90759993Y-101324580D01*
X90759993Y-101324580D02*
X90712374Y-101372200D01*
X90712374Y-101372200D02*
X90617136Y-101419819D01*
X90617136Y-101419819D02*
X90426660Y-101419819D01*
X90426660Y-101419819D02*
X90331422Y-101372200D01*
X91664755Y-100753152D02*
X91664755Y-101419819D01*
X91236184Y-100753152D02*
X91236184Y-101276961D01*
X91236184Y-101276961D02*
X91283803Y-101372200D01*
X91283803Y-101372200D02*
X91379041Y-101419819D01*
X91379041Y-101419819D02*
X91521898Y-101419819D01*
X91521898Y-101419819D02*
X91617136Y-101372200D01*
X91617136Y-101372200D02*
X91664755Y-101324580D01*
X92569517Y-100753152D02*
X92569517Y-101562676D01*
X92569517Y-101562676D02*
X92521898Y-101657914D01*
X92521898Y-101657914D02*
X92474279Y-101705533D01*
X92474279Y-101705533D02*
X92379041Y-101753152D01*
X92379041Y-101753152D02*
X92236184Y-101753152D01*
X92236184Y-101753152D02*
X92140946Y-101705533D01*
X92569517Y-101372200D02*
X92474279Y-101419819D01*
X92474279Y-101419819D02*
X92283803Y-101419819D01*
X92283803Y-101419819D02*
X92188565Y-101372200D01*
X92188565Y-101372200D02*
X92140946Y-101324580D01*
X92140946Y-101324580D02*
X92093327Y-101229342D01*
X92093327Y-101229342D02*
X92093327Y-100943628D01*
X92093327Y-100943628D02*
X92140946Y-100848390D01*
X92140946Y-100848390D02*
X92188565Y-100800771D01*
X92188565Y-100800771D02*
X92283803Y-100753152D01*
X92283803Y-100753152D02*
X92474279Y-100753152D01*
X92474279Y-100753152D02*
X92569517Y-100800771D01*
X93569517Y-101419819D02*
X92998089Y-101419819D01*
X93283803Y-101419819D02*
X93283803Y-100419819D01*
X93283803Y-100419819D02*
X93188565Y-100562676D01*
X93188565Y-100562676D02*
X93093327Y-100657914D01*
X93093327Y-100657914D02*
X92998089Y-100705533D01*
X133286667Y-70697200D02*
X133429524Y-70744819D01*
X133429524Y-70744819D02*
X133667619Y-70744819D01*
X133667619Y-70744819D02*
X133762857Y-70697200D01*
X133762857Y-70697200D02*
X133810476Y-70649580D01*
X133810476Y-70649580D02*
X133858095Y-70554342D01*
X133858095Y-70554342D02*
X133858095Y-70459104D01*
X133858095Y-70459104D02*
X133810476Y-70363866D01*
X133810476Y-70363866D02*
X133762857Y-70316247D01*
X133762857Y-70316247D02*
X133667619Y-70268628D01*
X133667619Y-70268628D02*
X133477143Y-70221009D01*
X133477143Y-70221009D02*
X133381905Y-70173390D01*
X133381905Y-70173390D02*
X133334286Y-70125771D01*
X133334286Y-70125771D02*
X133286667Y-70030533D01*
X133286667Y-70030533D02*
X133286667Y-69935295D01*
X133286667Y-69935295D02*
X133334286Y-69840057D01*
X133334286Y-69840057D02*
X133381905Y-69792438D01*
X133381905Y-69792438D02*
X133477143Y-69744819D01*
X133477143Y-69744819D02*
X133715238Y-69744819D01*
X133715238Y-69744819D02*
X133858095Y-69792438D01*
X134191429Y-69744819D02*
X134429524Y-70744819D01*
X134429524Y-70744819D02*
X134620000Y-70030533D01*
X134620000Y-70030533D02*
X134810476Y-70744819D01*
X134810476Y-70744819D02*
X135048572Y-69744819D01*
X135334286Y-69744819D02*
X135953333Y-69744819D01*
X135953333Y-69744819D02*
X135620000Y-70125771D01*
X135620000Y-70125771D02*
X135762857Y-70125771D01*
X135762857Y-70125771D02*
X135858095Y-70173390D01*
X135858095Y-70173390D02*
X135905714Y-70221009D01*
X135905714Y-70221009D02*
X135953333Y-70316247D01*
X135953333Y-70316247D02*
X135953333Y-70554342D01*
X135953333Y-70554342D02*
X135905714Y-70649580D01*
X135905714Y-70649580D02*
X135858095Y-70697200D01*
X135858095Y-70697200D02*
X135762857Y-70744819D01*
X135762857Y-70744819D02*
X135477143Y-70744819D01*
X135477143Y-70744819D02*
X135381905Y-70697200D01*
X135381905Y-70697200D02*
X135334286Y-70649580D01*
X132991905Y-73694819D02*
X132991905Y-72694819D01*
X132991905Y-72694819D02*
X133230000Y-72694819D01*
X133230000Y-72694819D02*
X133372857Y-72742438D01*
X133372857Y-72742438D02*
X133468095Y-72837676D01*
X133468095Y-72837676D02*
X133515714Y-72932914D01*
X133515714Y-72932914D02*
X133563333Y-73123390D01*
X133563333Y-73123390D02*
X133563333Y-73266247D01*
X133563333Y-73266247D02*
X133515714Y-73456723D01*
X133515714Y-73456723D02*
X133468095Y-73551961D01*
X133468095Y-73551961D02*
X133372857Y-73647200D01*
X133372857Y-73647200D02*
X133230000Y-73694819D01*
X133230000Y-73694819D02*
X132991905Y-73694819D01*
X134515714Y-73694819D02*
X133944286Y-73694819D01*
X134230000Y-73694819D02*
X134230000Y-72694819D01*
X134230000Y-72694819D02*
X134134762Y-72837676D01*
X134134762Y-72837676D02*
X134039524Y-72932914D01*
X134039524Y-72932914D02*
X133944286Y-72980533D01*
D10*
X135263884Y-78191466D02*
X136025789Y-78191466D01*
X135644836Y-78572419D02*
X135644836Y-77810514D01*
D11*
X133084819Y-87666666D02*
X132608628Y-87999999D01*
X133084819Y-88238094D02*
X132084819Y-88238094D01*
X132084819Y-88238094D02*
X132084819Y-87857142D01*
X132084819Y-87857142D02*
X132132438Y-87761904D01*
X132132438Y-87761904D02*
X132180057Y-87714285D01*
X132180057Y-87714285D02*
X132275295Y-87666666D01*
X132275295Y-87666666D02*
X132418152Y-87666666D01*
X132418152Y-87666666D02*
X132513390Y-87714285D01*
X132513390Y-87714285D02*
X132561009Y-87761904D01*
X132561009Y-87761904D02*
X132608628Y-87857142D01*
X132608628Y-87857142D02*
X132608628Y-88238094D01*
X133084819Y-86714285D02*
X133084819Y-87285713D01*
X133084819Y-86999999D02*
X132084819Y-86999999D01*
X132084819Y-86999999D02*
X132227676Y-87095237D01*
X132227676Y-87095237D02*
X132322914Y-87190475D01*
X132322914Y-87190475D02*
X132370533Y-87285713D01*
X125926660Y-101124104D02*
X126402850Y-101124104D01*
X125831422Y-101409819D02*
X126164755Y-100409819D01*
X126164755Y-100409819D02*
X126498088Y-101409819D01*
X127355231Y-101409819D02*
X126783803Y-101409819D01*
X127069517Y-101409819D02*
X127069517Y-100409819D01*
X127069517Y-100409819D02*
X126974279Y-100552676D01*
X126974279Y-100552676D02*
X126879041Y-100647914D01*
X126879041Y-100647914D02*
X126783803Y-100695533D01*
X54515237Y-74944819D02*
X54181904Y-74468628D01*
X53943809Y-74944819D02*
X53943809Y-73944819D01*
X53943809Y-73944819D02*
X54324761Y-73944819D01*
X54324761Y-73944819D02*
X54419999Y-73992438D01*
X54419999Y-73992438D02*
X54467618Y-74040057D01*
X54467618Y-74040057D02*
X54515237Y-74135295D01*
X54515237Y-74135295D02*
X54515237Y-74278152D01*
X54515237Y-74278152D02*
X54467618Y-74373390D01*
X54467618Y-74373390D02*
X54419999Y-74421009D01*
X54419999Y-74421009D02*
X54324761Y-74468628D01*
X54324761Y-74468628D02*
X53943809Y-74468628D01*
X55324761Y-74897200D02*
X55229523Y-74944819D01*
X55229523Y-74944819D02*
X55039047Y-74944819D01*
X55039047Y-74944819D02*
X54943809Y-74897200D01*
X54943809Y-74897200D02*
X54896190Y-74801961D01*
X54896190Y-74801961D02*
X54896190Y-74421009D01*
X54896190Y-74421009D02*
X54943809Y-74325771D01*
X54943809Y-74325771D02*
X55039047Y-74278152D01*
X55039047Y-74278152D02*
X55229523Y-74278152D01*
X55229523Y-74278152D02*
X55324761Y-74325771D01*
X55324761Y-74325771D02*
X55372380Y-74421009D01*
X55372380Y-74421009D02*
X55372380Y-74516247D01*
X55372380Y-74516247D02*
X54896190Y-74611485D01*
X55753333Y-74897200D02*
X55848571Y-74944819D01*
X55848571Y-74944819D02*
X56039047Y-74944819D01*
X56039047Y-74944819D02*
X56134285Y-74897200D01*
X56134285Y-74897200D02*
X56181904Y-74801961D01*
X56181904Y-74801961D02*
X56181904Y-74754342D01*
X56181904Y-74754342D02*
X56134285Y-74659104D01*
X56134285Y-74659104D02*
X56039047Y-74611485D01*
X56039047Y-74611485D02*
X55896190Y-74611485D01*
X55896190Y-74611485D02*
X55800952Y-74563866D01*
X55800952Y-74563866D02*
X55753333Y-74468628D01*
X55753333Y-74468628D02*
X55753333Y-74421009D01*
X55753333Y-74421009D02*
X55800952Y-74325771D01*
X55800952Y-74325771D02*
X55896190Y-74278152D01*
X55896190Y-74278152D02*
X56039047Y-74278152D01*
X56039047Y-74278152D02*
X56134285Y-74325771D01*
X56991428Y-74897200D02*
X56896190Y-74944819D01*
X56896190Y-74944819D02*
X56705714Y-74944819D01*
X56705714Y-74944819D02*
X56610476Y-74897200D01*
X56610476Y-74897200D02*
X56562857Y-74801961D01*
X56562857Y-74801961D02*
X56562857Y-74421009D01*
X56562857Y-74421009D02*
X56610476Y-74325771D01*
X56610476Y-74325771D02*
X56705714Y-74278152D01*
X56705714Y-74278152D02*
X56896190Y-74278152D01*
X56896190Y-74278152D02*
X56991428Y-74325771D01*
X56991428Y-74325771D02*
X57039047Y-74421009D01*
X57039047Y-74421009D02*
X57039047Y-74516247D01*
X57039047Y-74516247D02*
X56562857Y-74611485D01*
X57324762Y-74278152D02*
X57705714Y-74278152D01*
X57467619Y-73944819D02*
X57467619Y-74801961D01*
X57467619Y-74801961D02*
X57515238Y-74897200D01*
X57515238Y-74897200D02*
X57610476Y-74944819D01*
X57610476Y-74944819D02*
X57705714Y-74944819D01*
X58800953Y-74944819D02*
X58800953Y-73944819D01*
X58800953Y-73944819D02*
X59039048Y-73944819D01*
X59039048Y-73944819D02*
X59181905Y-73992438D01*
X59181905Y-73992438D02*
X59277143Y-74087676D01*
X59277143Y-74087676D02*
X59324762Y-74182914D01*
X59324762Y-74182914D02*
X59372381Y-74373390D01*
X59372381Y-74373390D02*
X59372381Y-74516247D01*
X59372381Y-74516247D02*
X59324762Y-74706723D01*
X59324762Y-74706723D02*
X59277143Y-74801961D01*
X59277143Y-74801961D02*
X59181905Y-74897200D01*
X59181905Y-74897200D02*
X59039048Y-74944819D01*
X59039048Y-74944819D02*
X58800953Y-74944819D01*
X60181905Y-74897200D02*
X60086667Y-74944819D01*
X60086667Y-74944819D02*
X59896191Y-74944819D01*
X59896191Y-74944819D02*
X59800953Y-74897200D01*
X59800953Y-74897200D02*
X59753334Y-74801961D01*
X59753334Y-74801961D02*
X59753334Y-74421009D01*
X59753334Y-74421009D02*
X59800953Y-74325771D01*
X59800953Y-74325771D02*
X59896191Y-74278152D01*
X59896191Y-74278152D02*
X60086667Y-74278152D01*
X60086667Y-74278152D02*
X60181905Y-74325771D01*
X60181905Y-74325771D02*
X60229524Y-74421009D01*
X60229524Y-74421009D02*
X60229524Y-74516247D01*
X60229524Y-74516247D02*
X59753334Y-74611485D01*
X60658096Y-74944819D02*
X60658096Y-73944819D01*
X60658096Y-74325771D02*
X60753334Y-74278152D01*
X60753334Y-74278152D02*
X60943810Y-74278152D01*
X60943810Y-74278152D02*
X61039048Y-74325771D01*
X61039048Y-74325771D02*
X61086667Y-74373390D01*
X61086667Y-74373390D02*
X61134286Y-74468628D01*
X61134286Y-74468628D02*
X61134286Y-74754342D01*
X61134286Y-74754342D02*
X61086667Y-74849580D01*
X61086667Y-74849580D02*
X61039048Y-74897200D01*
X61039048Y-74897200D02*
X60943810Y-74944819D01*
X60943810Y-74944819D02*
X60753334Y-74944819D01*
X60753334Y-74944819D02*
X60658096Y-74897200D01*
X61991429Y-74278152D02*
X61991429Y-74944819D01*
X61562858Y-74278152D02*
X61562858Y-74801961D01*
X61562858Y-74801961D02*
X61610477Y-74897200D01*
X61610477Y-74897200D02*
X61705715Y-74944819D01*
X61705715Y-74944819D02*
X61848572Y-74944819D01*
X61848572Y-74944819D02*
X61943810Y-74897200D01*
X61943810Y-74897200D02*
X61991429Y-74849580D01*
X62896191Y-74278152D02*
X62896191Y-75087676D01*
X62896191Y-75087676D02*
X62848572Y-75182914D01*
X62848572Y-75182914D02*
X62800953Y-75230533D01*
X62800953Y-75230533D02*
X62705715Y-75278152D01*
X62705715Y-75278152D02*
X62562858Y-75278152D01*
X62562858Y-75278152D02*
X62467620Y-75230533D01*
X62896191Y-74897200D02*
X62800953Y-74944819D01*
X62800953Y-74944819D02*
X62610477Y-74944819D01*
X62610477Y-74944819D02*
X62515239Y-74897200D01*
X62515239Y-74897200D02*
X62467620Y-74849580D01*
X62467620Y-74849580D02*
X62420001Y-74754342D01*
X62420001Y-74754342D02*
X62420001Y-74468628D01*
X62420001Y-74468628D02*
X62467620Y-74373390D01*
X62467620Y-74373390D02*
X62515239Y-74325771D01*
X62515239Y-74325771D02*
X62610477Y-74278152D01*
X62610477Y-74278152D02*
X62800953Y-74278152D01*
X62800953Y-74278152D02*
X62896191Y-74325771D01*
%TO.C,Debug*%
D12*
X54500000Y-63580000D02*
X55880000Y-63580000D01*
X54500000Y-64960000D02*
X54500000Y-63580000D01*
X54500000Y-66230000D02*
X54500000Y-71420000D01*
X54500000Y-66230000D02*
X57150000Y-66230000D01*
X54500000Y-71420000D02*
X59800000Y-71420000D01*
X57150000Y-63580000D02*
X59800000Y-63580000D01*
X57150000Y-66230000D02*
X57150000Y-63580000D01*
X59800000Y-63580000D02*
X59800000Y-71420000D01*
%TO.C,Reset*%
X93020000Y-77990000D02*
X93020000Y-79490000D01*
X94270000Y-81990000D02*
X98770000Y-81990000D01*
X98770000Y-75490000D02*
X94270000Y-75490000D01*
X100020000Y-79490000D02*
X100020000Y-77990000D01*
%TO.C,Debug1*%
X65780000Y-53130000D02*
X65300000Y-53130000D01*
X65780000Y-53130000D02*
X65780000Y-53550000D01*
X65780000Y-55670000D02*
X65780000Y-56090000D01*
X65780000Y-58210000D02*
X65780000Y-58630000D01*
X65780000Y-60750000D02*
X65780000Y-61170000D01*
X65780000Y-63290000D02*
X65780000Y-63710000D01*
X65780000Y-65830000D02*
X65780000Y-66250000D01*
X65780000Y-68370000D02*
X65780000Y-68790000D01*
X65780000Y-70910000D02*
X65780000Y-71330000D01*
X65780000Y-73450000D02*
X65780000Y-73870000D01*
X65780000Y-75990000D02*
X65780000Y-76410000D01*
X65780000Y-78530000D02*
X65780000Y-78950000D01*
X65780000Y-81070000D02*
X65780000Y-81490000D01*
X65780000Y-83610000D02*
X65780000Y-84030000D01*
X65780000Y-86150000D02*
X65780000Y-86570000D01*
X65780000Y-88690000D02*
X65780000Y-89110000D01*
X65780000Y-91230000D02*
X65780000Y-91650000D01*
X65780000Y-93770000D02*
X65780000Y-94190000D01*
X65780000Y-96310000D02*
X65780000Y-96730000D01*
X65780000Y-98850000D02*
X65780000Y-99270000D01*
X65810324Y-51010000D02*
X65300000Y-51010000D01*
X66390000Y-50590000D02*
X68880000Y-50590000D01*
X66390000Y-101810000D02*
X70227939Y-101810000D01*
X68880000Y-50590000D02*
X70227940Y-50590000D01*
X71152061Y-50590000D02*
X72155000Y-50590000D01*
X72155000Y-50590000D02*
X80625000Y-50590000D01*
X72490000Y-50590000D02*
X72490000Y-51506000D01*
X72490000Y-53894000D02*
X72490000Y-55110000D01*
X72490000Y-55110000D02*
X72786090Y-55110000D01*
X72790000Y-101810000D02*
X71152061Y-101810000D01*
X74910000Y-101810000D02*
X75330000Y-101810000D01*
X75143910Y-55110000D02*
X77636090Y-55110000D01*
X77450000Y-101810000D02*
X77870000Y-101810000D01*
X79993910Y-55110000D02*
X80290000Y-55110000D01*
X80290000Y-50590000D02*
X80290000Y-51506000D01*
X80290000Y-53894000D02*
X80290000Y-55110000D01*
X80625000Y-50590000D02*
X81627939Y-50590000D01*
X81627939Y-101810000D02*
X79990000Y-101810000D01*
X82552061Y-50590000D02*
X83900000Y-50590000D01*
X82552061Y-101810000D02*
X86390000Y-101810000D01*
X86390000Y-50590000D02*
X83900000Y-50590000D01*
X87000000Y-53130000D02*
X87000000Y-53550000D01*
X87000000Y-55670000D02*
X87000000Y-56090000D01*
X87000000Y-58210000D02*
X87000000Y-58630000D01*
X87000000Y-60750000D02*
X87000000Y-61170000D01*
X87000000Y-63290000D02*
X87000000Y-63710000D01*
X87000000Y-65830000D02*
X87000000Y-66250000D01*
X87000000Y-68370000D02*
X87000000Y-68790000D01*
X87000000Y-70910000D02*
X87000000Y-71330000D01*
X87000000Y-73450000D02*
X87000000Y-73870000D01*
X87000000Y-75990000D02*
X87000000Y-76410000D01*
X87000000Y-78530000D02*
X87000000Y-78950000D01*
X87000000Y-81070000D02*
X87000000Y-81490000D01*
X87000000Y-83610000D02*
X87000000Y-84030000D01*
X87000000Y-86150000D02*
X87000000Y-86570000D01*
X87000000Y-88690000D02*
X87000000Y-89110000D01*
X87000000Y-91230000D02*
X87000000Y-91650000D01*
X87000000Y-93770000D02*
X87000000Y-94190000D01*
X87000000Y-96310000D02*
X87000000Y-96730000D01*
X87000000Y-98850000D02*
X87000000Y-99270000D01*
X65810324Y-51010000D02*
G75*
G02*
X66390000Y-50590000I579692J-190051D01*
G01*
X66390000Y-101810000D02*
G75*
G02*
X65810324Y-101389937I1J610002D01*
G01*
X86390000Y-50590000D02*
G75*
G02*
X86969676Y-51010063I0J-610000D01*
G01*
X86969676Y-101389937D02*
G75*
G02*
X86390000Y-101809948I-579476J189737D01*
G01*
%TO.C,SW3*%
X131120000Y-65290000D02*
X131120000Y-66790000D01*
X132370000Y-69290000D02*
X136870000Y-69290000D01*
X136870000Y-62790000D02*
X132370000Y-62790000D01*
X138120000Y-66790000D02*
X138120000Y-65290000D01*
%TO.C,D1*%
X132170000Y-74964000D02*
X132170000Y-75120000D01*
X132170000Y-77280000D02*
X132170000Y-77436000D01*
X132170000Y-74964484D02*
G75*
G02*
X135401437Y-75120000I1560000J-1235516D01*
G01*
X132689039Y-75120000D02*
G75*
G02*
X134770961Y-75120000I1040961J-1080000D01*
G01*
X134770961Y-77280000D02*
G75*
G02*
X132689039Y-77280000I-1040961J1080000D01*
G01*
X135401437Y-77280000D02*
G75*
G02*
X132170000Y-77435516I-1671437J1080000D01*
G01*
%TO.C,R1*%
X135000000Y-83460000D02*
X135000000Y-84230000D01*
X135000000Y-91540000D02*
X135000000Y-90770000D01*
X133630000Y-84230000D02*
X136370000Y-84230000D01*
X136370000Y-90770000D01*
X133630000Y-90770000D01*
X133630000Y-84230000D01*
%TO.C,A1*%
X103280000Y-53120000D02*
X102800000Y-53120000D01*
X103280000Y-53120000D02*
X103280000Y-53540000D01*
X103280000Y-55660000D02*
X103280000Y-56080000D01*
X103280000Y-58200000D02*
X103280000Y-58620000D01*
X103280000Y-60740000D02*
X103280000Y-61160000D01*
X103280000Y-63280000D02*
X103280000Y-63700000D01*
X103280000Y-65820000D02*
X103280000Y-66240000D01*
X103280000Y-68360000D02*
X103280000Y-68780000D01*
X103280000Y-70900000D02*
X103280000Y-71320000D01*
X103280000Y-73440000D02*
X103280000Y-73860000D01*
X103280000Y-75980000D02*
X103280000Y-76400000D01*
X103280000Y-78520000D02*
X103280000Y-78940000D01*
X103280000Y-81060000D02*
X103280000Y-81480000D01*
X103280000Y-83600000D02*
X103280000Y-84020000D01*
X103280000Y-86140000D02*
X103280000Y-86560000D01*
X103280000Y-88680000D02*
X103280000Y-89100000D01*
X103280000Y-91220000D02*
X103280000Y-91640000D01*
X103280000Y-93760000D02*
X103280000Y-94180000D01*
X103280000Y-96300000D02*
X103280000Y-96720000D01*
X103280000Y-98840000D02*
X103280000Y-99260000D01*
X103310324Y-51000000D02*
X102800000Y-51000000D01*
X103890000Y-50580000D02*
X106380000Y-50580000D01*
X103890000Y-101800000D02*
X107727939Y-101800000D01*
X106380000Y-50580000D02*
X107727940Y-50580000D01*
X108652061Y-50580000D02*
X109655000Y-50580000D01*
X109655000Y-50580000D02*
X118125000Y-50580000D01*
X109990000Y-50580000D02*
X109990000Y-51496000D01*
X109990000Y-53884000D02*
X109990000Y-55100000D01*
X109990000Y-55100000D02*
X110286090Y-55100000D01*
X110290000Y-101800000D02*
X108652061Y-101800000D01*
X112410000Y-101800000D02*
X112830000Y-101800000D01*
X112643910Y-55100000D02*
X115136090Y-55100000D01*
X114950000Y-101800000D02*
X115370000Y-101800000D01*
X117493910Y-55100000D02*
X117790000Y-55100000D01*
X117790000Y-50580000D02*
X117790000Y-51496000D01*
X117790000Y-53884000D02*
X117790000Y-55100000D01*
X118125000Y-50580000D02*
X119127939Y-50580000D01*
X119127939Y-101800000D02*
X117490000Y-101800000D01*
X120052061Y-50580000D02*
X121400000Y-50580000D01*
X120052061Y-101800000D02*
X123890000Y-101800000D01*
X123890000Y-50580000D02*
X121400000Y-50580000D01*
X124500000Y-53120000D02*
X124500000Y-53540000D01*
X124500000Y-55660000D02*
X124500000Y-56080000D01*
X124500000Y-58200000D02*
X124500000Y-58620000D01*
X124500000Y-60740000D02*
X124500000Y-61160000D01*
X124500000Y-63280000D02*
X124500000Y-63700000D01*
X124500000Y-65820000D02*
X124500000Y-66240000D01*
X124500000Y-68360000D02*
X124500000Y-68780000D01*
X124500000Y-70900000D02*
X124500000Y-71320000D01*
X124500000Y-73440000D02*
X124500000Y-73860000D01*
X124500000Y-75980000D02*
X124500000Y-76400000D01*
X124500000Y-78520000D02*
X124500000Y-78940000D01*
X124500000Y-81060000D02*
X124500000Y-81480000D01*
X124500000Y-83600000D02*
X124500000Y-84020000D01*
X124500000Y-86140000D02*
X124500000Y-86560000D01*
X124500000Y-88680000D02*
X124500000Y-89100000D01*
X124500000Y-91220000D02*
X124500000Y-91640000D01*
X124500000Y-93760000D02*
X124500000Y-94180000D01*
X124500000Y-96300000D02*
X124500000Y-96720000D01*
X124500000Y-98840000D02*
X124500000Y-99260000D01*
X103310324Y-51000000D02*
G75*
G02*
X103890000Y-50580000I579692J-190051D01*
G01*
X103890000Y-101800000D02*
G75*
G02*
X103310324Y-101379937I1J610002D01*
G01*
X123890000Y-50580000D02*
G75*
G02*
X124469676Y-51000063I0J-610000D01*
G01*
X124469676Y-101379937D02*
G75*
G02*
X123890000Y-101799948I-579476J189737D01*
G01*
%TO.C,Reset Debug*%
X54920000Y-77990000D02*
X54920000Y-79490000D01*
X56170000Y-81990000D02*
X60670000Y-81990000D01*
X60670000Y-75490000D02*
X56170000Y-75490000D01*
X61920000Y-79490000D02*
X61920000Y-77990000D01*
%TD*%
M02*
