M48
; DRILL file KiCad 10.0.3 date 2026-06-08T14:02:14
; FORMAT={-:-/ absolute / metric / decimal}
; #@! TF.CreationDate,2026-06-08T14:02:14+01:00
; #@! TF.GenerationSoftware,Kicad,Pcbnew,10.0.3
; #@! TF.FileFunction,Plated,1,2,PTH
FMAT,2
METRIC
; #@! TA.AperFunction,Plated,PTH,ViaDrill
T1C0.300
; #@! TA.AperFunction,Plated,PTH,ComponentDrill
T2C0.500
; #@! TA.AperFunction,Plated,PTH,ComponentDrill
T3C0.700
; #@! TA.AperFunction,Plated,PTH,ComponentDrill
T4C0.900
; #@! TA.AperFunction,Plated,PTH,ComponentDrill
T5C1.000
; #@! TA.AperFunction,Plated,PTH,ComponentDrill
T6C1.100
; #@! TA.AperFunction,Plated,PTH,ComponentDrill
T7C3.200
%
G90
G05
T1
X63.5Y-60.325
X63.5Y-61.595
X63.5Y-65.405
X63.5Y-66.675
X69.85Y-57.15
X69.85Y-69.85
X69.85Y-82.55
X69.85Y-95.25
X76.2Y-97.79
X82.55Y-57.15
X82.55Y-77.47
X82.55Y-82.55
X82.55Y-95.25
X90.17Y-61.595
X90.805Y-60.325
X92.71Y-64.135
X93.345Y-65.405
X100.33Y-88.265
X100.33Y-89.535
X107.305Y-82.54
X107.95Y-57.15
X107.95Y-69.85
X107.95Y-95.25
X114.3Y-97.79
X120.65Y-57.15
X120.65Y-77.47
X120.65Y-82.55
X120.65Y-95.25
T2
X52.6Y-55.0
X52.6Y-100.0
X53.303Y-53.303
X53.303Y-56.697
X53.303Y-98.303
X53.303Y-101.697
X55.0Y-52.6
X55.0Y-57.4
X55.0Y-97.6
X55.0Y-102.4
X56.697Y-53.303
X56.697Y-56.697
X56.697Y-98.303
X56.697Y-101.697
X57.4Y-55.0
X57.4Y-100.0
X137.6Y-55.0
X137.6Y-100.0
X138.303Y-53.303
X138.303Y-56.697
X138.303Y-98.303
X138.303Y-101.697
X140.0Y-52.6
X140.0Y-57.4
X140.0Y-97.6
X140.0Y-102.4
X141.697Y-53.303
X141.697Y-56.697
X141.697Y-98.303
X141.697Y-101.697
X142.4Y-55.0
X142.4Y-100.0
T3
X132.5Y-81.19
X132.5Y-88.81
T4
X132.46Y-76.2
X135.0Y-76.2
T5
X55.88Y-64.96
X55.88Y-67.5
X55.88Y-70.04
X58.42Y-64.96
X58.42Y-67.5
X58.42Y-70.04
T6
X55.17Y-76.49
X55.17Y-80.99
X61.67Y-76.49
X61.67Y-80.99
X93.27Y-76.49
X93.27Y-80.99
X99.77Y-76.49
X99.77Y-80.99
X131.37Y-63.79
X131.37Y-68.29
X137.87Y-63.79
X137.87Y-68.29
T7
X55.0Y-55.0
X55.0Y-100.0
X140.0Y-55.0
X140.0Y-100.0
M30
