%TF.GenerationSoftware,KiCad,Pcbnew,10.0.3*%
%TF.CreationDate,2026-07-15T13:12:54+01:00*%
%TF.ProjectId,pico_debug,7069636f-5f64-4656-9275-672e6b696361,rev?*%
%TF.SameCoordinates,Original*%
%TF.FileFunction,Copper,L2,Bot*%
%TF.FilePolarity,Positive*%
%FSLAX46Y46*%
G04 Gerber Fmt 4.6, Leading zero omitted, Abs format (unit mm)*
G04 Created by KiCad (PCBNEW 10.0.3) date 2026-07-15 13:12:54*
%MOMM*%
%LPD*%
G01*
G04 APERTURE LIST*
%TA.AperFunction,ComponentPad*%
%ADD10C,0.800000*%
%TD*%
%TA.AperFunction,ComponentPad*%
%ADD11C,6.400000*%
%TD*%
%TA.AperFunction,ComponentPad*%
%ADD12R,1.700000X1.700000*%
%TD*%
%TA.AperFunction,ComponentPad*%
%ADD13C,1.700000*%
%TD*%
%TA.AperFunction,ComponentPad*%
%ADD14C,2.000000*%
%TD*%
%TA.AperFunction,ComponentPad*%
%ADD15R,1.800000X1.800000*%
%TD*%
%TA.AperFunction,ComponentPad*%
%ADD16C,1.800000*%
%TD*%
%TA.AperFunction,ComponentPad*%
%ADD17C,1.600000*%
%TD*%
%TA.AperFunction,ViaPad*%
%ADD18C,0.600000*%
%TD*%
%TA.AperFunction,Conductor*%
%ADD19C,0.200000*%
%TD*%
G04 APERTURE END LIST*
D10*
%TO.P,H1,1*%
%TO.N,N/C*%
X52600000Y-55000000D03*
X53302944Y-53302944D03*
X53302944Y-56697056D03*
X55000000Y-52600000D03*
D11*
X55000000Y-55000000D03*
D10*
X55000000Y-57400000D03*
X56697056Y-53302944D03*
X56697056Y-56697056D03*
X57400000Y-55000000D03*
%TD*%
D12*
%TO.P,Debug,1,Pin_1_1*%
%TO.N,Net-(Debug1-SWCLK)*%
X55880000Y-64960000D03*
D13*
%TO.P,Debug,2,Pin_2_2*%
%TO.N,Net-(Debug1-GPIO0)*%
X58420000Y-64960000D03*
%TO.P,Debug,3,Pin_3_3*%
%TO.N,GND*%
X55880000Y-67500000D03*
%TO.P,Debug,4,Pin_4_4*%
X58420000Y-67500000D03*
%TO.P,Debug,5,Pin_5_5*%
%TO.N,Net-(Debug1-SWDIO)*%
X55880000Y-70040000D03*
%TO.P,Debug,6,Pin_6_6*%
%TO.N,Net-(Debug1-GPIO1)*%
X58420000Y-70040000D03*
%TD*%
D10*
%TO.P,H2,1*%
%TO.N,N/C*%
X137600000Y-55000000D03*
X138302944Y-53302944D03*
X138302944Y-56697056D03*
X140000000Y-52600000D03*
D11*
X140000000Y-55000000D03*
D10*
X140000000Y-57400000D03*
X141697056Y-53302944D03*
X141697056Y-56697056D03*
X142400000Y-55000000D03*
%TD*%
%TO.P,H3,1*%
%TO.N,N/C*%
X137600000Y-100000000D03*
X138302944Y-98302944D03*
X138302944Y-101697056D03*
X140000000Y-97600000D03*
D11*
X140000000Y-100000000D03*
D10*
X140000000Y-102400000D03*
X141697056Y-98302944D03*
X141697056Y-101697056D03*
X142400000Y-100000000D03*
%TD*%
D14*
%TO.P,Reset,1,A_1*%
%TO.N,GND*%
X93270000Y-76490000D03*
X99770000Y-76490000D03*
%TO.P,Reset,2,B_2*%
%TO.N,Net-(A1-RUN)*%
X93270000Y-80990000D03*
X99770000Y-80990000D03*
%TD*%
D10*
%TO.P,H4,1*%
%TO.N,N/C*%
X52600000Y-100000000D03*
X53302944Y-98302944D03*
X53302944Y-101697056D03*
X55000000Y-97600000D03*
D11*
X55000000Y-100000000D03*
D10*
X55000000Y-102400000D03*
X56697056Y-98302944D03*
X56697056Y-101697056D03*
X57400000Y-100000000D03*
%TD*%
D14*
%TO.P,SW3,1,A_1*%
%TO.N,Net-(A1-GPIO11)*%
X137870000Y-68290000D03*
X131370000Y-68290000D03*
%TO.P,SW3,2,B_2*%
%TO.N,+3.3V*%
X137870000Y-63790000D03*
X131370000Y-63790000D03*
%TD*%
D15*
%TO.P,D1,1,K_1*%
%TO.N,GND*%
X132460000Y-76200000D03*
D16*
%TO.P,D1,2,A_2*%
%TO.N,Net-(D1-A)*%
X135000000Y-76200000D03*
%TD*%
D17*
%TO.P,R1,1*%
%TO.N,Net-(A1-GPIO12)*%
X135000000Y-92580000D03*
%TO.P,R1,2*%
%TO.N,Net-(D1-A)*%
X135000000Y-82420000D03*
%TD*%
D14*
%TO.P,Reset Debug,1,A_1*%
%TO.N,GND*%
X55170000Y-76490000D03*
X61670000Y-76490000D03*
%TO.P,Reset Debug,2,B_2*%
%TO.N,Net-(Debug1-RUN)*%
X55170000Y-80990000D03*
X61670000Y-80990000D03*
%TD*%
D18*
%TO.N,GND*%
X107950000Y-57150000D03*
X82550000Y-95250000D03*
X120650000Y-57150000D03*
X120650000Y-95250000D03*
X69850000Y-82550000D03*
X76200000Y-97790000D03*
X107305000Y-82540000D03*
X120650000Y-82550000D03*
X69850000Y-57150000D03*
X82550000Y-57150000D03*
X69850000Y-69850000D03*
X82550000Y-82550000D03*
X69850000Y-95250000D03*
X107950000Y-69850000D03*
X114300000Y-97790000D03*
X107950000Y-95250000D03*
%TO.N,Net-(A1-RUN)*%
X120650000Y-77470000D03*
%TO.N,Net-(A1-SWCLK)*%
X90805000Y-60325000D03*
X63500000Y-60325000D03*
%TO.N,Net-(A1-SWDIO)*%
X63500000Y-61595000D03*
X90170000Y-61595000D03*
%TO.N,Net-(A1-GPIO1)*%
X63500000Y-65405000D03*
X93345000Y-65405000D03*
%TO.N,Net-(A1-GPIO0)*%
X92710000Y-64135000D03*
X63500000Y-66675000D03*
%TO.N,Net-(Debug1-RUN)*%
X82550000Y-77470000D03*
%TO.N,Net-(A1-GPIO11)*%
X100330000Y-88265000D03*
%TO.N,Net-(A1-GPIO12)*%
X100330000Y-89535000D03*
%TD*%
%TO.N,Net-(A1-RUN)*%
D19*
X103290000Y-77470000D02*
X99770000Y-80990000D01*
X120650000Y-77470000D02*
X103290000Y-77470000D01*
%TO.N,Net-(A1-SWCLK)*%
X63500000Y-60325000D02*
X90805000Y-60325000D01*
%TO.N,Net-(A1-SWDIO)*%
X64135000Y-60960000D02*
X89535000Y-60960000D01*
X63500000Y-61595000D02*
X64135000Y-60960000D01*
X89535000Y-60960000D02*
X90170000Y-61595000D01*
%TO.N,Net-(A1-GPIO1)*%
X63500000Y-65405000D02*
X93345000Y-65405000D01*
%TO.N,Net-(A1-GPIO0)*%
X63500000Y-66675000D02*
X62865000Y-66040000D01*
X62865000Y-64770000D02*
X92075000Y-64770000D01*
X62865000Y-66040000D02*
X62865000Y-64770000D01*
X92075000Y-64770000D02*
X92710000Y-64135000D01*
%TO.N,Net-(Debug1-RUN)*%
X82550000Y-77470000D02*
X65190000Y-77470000D01*
X65190000Y-77470000D02*
X61670000Y-80990000D01*
%TO.N,Net-(A1-GPIO11)*%
X128905000Y-70755000D02*
X131370000Y-68290000D01*
X100965000Y-88900000D02*
X127000000Y-88900000D01*
X127000000Y-88900000D02*
X128905000Y-86995000D01*
X128905000Y-86995000D02*
X128905000Y-70755000D01*
X100330000Y-88265000D02*
X100965000Y-88900000D01*
%TO.N,Net-(A1-GPIO12)*%
X131955000Y-89535000D02*
X131775000Y-89535000D01*
X135000000Y-92580000D02*
X131955000Y-89535000D01*
X100330000Y-89535000D02*
X131775000Y-89535000D01*
%TD*%
%TA.AperFunction,Conductor*%
%TO.N,GND*%
G36*
X57954075Y-67692993D02*
G01*
X58019901Y-67807007D01*
X58112993Y-67900099D01*
X58227007Y-67965925D01*
X58290590Y-67982962D01*
X57658282Y-68615269D01*
X57658282Y-68615270D01*
X57712452Y-68654626D01*
X57712451Y-68654626D01*
X57721495Y-68659234D01*
X57772292Y-68707208D01*
X57789087Y-68775029D01*
X57766550Y-68841164D01*
X57721499Y-68880202D01*
X57712182Y-68884949D01*
X57540213Y-69009890D01*
X57389890Y-69160213D01*
X57264949Y-69332182D01*
X57260484Y-69340946D01*
X57212509Y-69391742D01*
X57144688Y-69408536D01*
X57078553Y-69385998D01*
X57039516Y-69340946D01*
X57035050Y-69332182D01*
X56910109Y-69160213D01*
X56759786Y-69009890D01*
X56587817Y-68884949D01*
X56578504Y-68880204D01*
X56527707Y-68832230D01*
X56510912Y-68764409D01*
X56533449Y-68698274D01*
X56578507Y-68659232D01*
X56587555Y-68654622D01*
X56641716Y-68615270D01*
X56641717Y-68615270D01*
X56009408Y-67982962D01*
X56072993Y-67965925D01*
X56187007Y-67900099D01*
X56280099Y-67807007D01*
X56345925Y-67692993D01*
X56362962Y-67629409D01*
X56995270Y-68261717D01*
X56995270Y-68261716D01*
X57034622Y-68207554D01*
X57039514Y-68197954D01*
X57087488Y-68147157D01*
X57155308Y-68130361D01*
X57221444Y-68152897D01*
X57260486Y-68197954D01*
X57265375Y-68207550D01*
X57304728Y-68261716D01*
X57937037Y-67629408D01*
X57954075Y-67692993D01*
G37*
%TD.AperFunction*%
%TA.AperFunction,Conductor*%
G36*
X57398418Y-65855417D02*
G01*
X57426673Y-65876569D01*
X57540213Y-65990109D01*
X57712179Y-66115048D01*
X57712181Y-66115049D01*
X57712184Y-66115051D01*
X57721493Y-66119794D01*
X57772290Y-66167766D01*
X57789087Y-66235587D01*
X57766552Y-66301722D01*
X57721505Y-66340760D01*
X57712446Y-66345376D01*
X57712440Y-66345380D01*
X57658282Y-66384727D01*
X57658282Y-66384728D01*
X58290591Y-67017037D01*
X58227007Y-67034075D01*
X58112993Y-67099901D01*
X58019901Y-67192993D01*
X57954075Y-67307007D01*
X57937037Y-67370591D01*
X57304728Y-66738282D01*
X57304727Y-66738282D01*
X57265380Y-66792440D01*
X57260483Y-66802051D01*
X57212506Y-66852845D01*
X57144684Y-66869638D01*
X57078550Y-66847098D01*
X57039516Y-66802048D01*
X57034626Y-66792452D01*
X56995270Y-66738282D01*
X56995269Y-66738282D01*
X56362962Y-67370590D01*
X56345925Y-67307007D01*
X56280099Y-67192993D01*
X56187007Y-67099901D01*
X56072993Y-67034075D01*
X56009409Y-67017037D01*
X56679627Y-66346818D01*
X56740950Y-66313333D01*
X56767307Y-66310499D01*
X56777872Y-66310499D01*
X56837483Y-66304091D01*
X56972331Y-66253796D01*
X57087546Y-66167546D01*
X57173796Y-66052331D01*
X57222810Y-65920916D01*
X57264681Y-65864984D01*
X57330145Y-65840566D01*
X57398418Y-65855417D01*
G37*
%TD.AperFunction*%
%TA.AperFunction,Conductor*%
G36*
X140002702Y-50500617D02*
G01*
X140386773Y-50517386D01*
X140397505Y-50518326D01*
X140775963Y-50568150D01*
X140786601Y-50570025D01*
X141159279Y-50652647D01*
X141169720Y-50655445D01*
X141533765Y-50770227D01*
X141543911Y-50773920D01*
X141896578Y-50920000D01*
X141906369Y-50924566D01*
X142244942Y-51100816D01*
X142254310Y-51106224D01*
X142576244Y-51311318D01*
X142585105Y-51317523D01*
X142887930Y-51549889D01*
X142896217Y-51556843D01*
X143177635Y-51814715D01*
X143185284Y-51822364D01*
X143443156Y-52103782D01*
X143450110Y-52112069D01*
X143682476Y-52414894D01*
X143688681Y-52423755D01*
X143893775Y-52745689D01*
X143899183Y-52755057D01*
X144075430Y-53093623D01*
X144080002Y-53103427D01*
X144226075Y-53456078D01*
X144229775Y-53466244D01*
X144344553Y-53830276D01*
X144347353Y-53840724D01*
X144429972Y-54213390D01*
X144431850Y-54224044D01*
X144481671Y-54602472D01*
X144482614Y-54613248D01*
X144499382Y-54997297D01*
X144499500Y-55002706D01*
X144499500Y-99997293D01*
X144499382Y-100002702D01*
X144482614Y-100386751D01*
X144481671Y-100397527D01*
X144431850Y-100775955D01*
X144429972Y-100786609D01*
X144347353Y-101159275D01*
X144344553Y-101169723D01*
X144229775Y-101533755D01*
X144226075Y-101543921D01*
X144080002Y-101896572D01*
X144075430Y-101906376D01*
X143899183Y-102244942D01*
X143893775Y-102254310D01*
X143688681Y-102576244D01*
X143682476Y-102585105D01*
X143450110Y-102887930D01*
X143443156Y-102896217D01*
X143185284Y-103177635D01*
X143177635Y-103185284D01*
X142896217Y-103443156D01*
X142887930Y-103450110D01*
X142585105Y-103682476D01*
X142576244Y-103688681D01*
X142254310Y-103893775D01*
X142244942Y-103899183D01*
X141906376Y-104075430D01*
X141896572Y-104080002D01*
X141543921Y-104226075D01*
X141533755Y-104229775D01*
X141169723Y-104344553D01*
X141159275Y-104347353D01*
X140786609Y-104429972D01*
X140775955Y-104431850D01*
X140397527Y-104481671D01*
X140386751Y-104482614D01*
X140002703Y-104499382D01*
X139997294Y-104499500D01*
X55002706Y-104499500D01*
X54997297Y-104499382D01*
X54613248Y-104482614D01*
X54602474Y-104481671D01*
X54540007Y-104473447D01*
X54224044Y-104431850D01*
X54213390Y-104429972D01*
X53840724Y-104347353D01*
X53830276Y-104344553D01*
X53466244Y-104229775D01*
X53456078Y-104226075D01*
X53103427Y-104080002D01*
X53093623Y-104075430D01*
X52755057Y-103899183D01*
X52745689Y-103893775D01*
X52423755Y-103688681D01*
X52414894Y-103682476D01*
X52112069Y-103450110D01*
X52103782Y-103443156D01*
X51822364Y-103185284D01*
X51814715Y-103177635D01*
X51556843Y-102896217D01*
X51549889Y-102887930D01*
X51317523Y-102585105D01*
X51311318Y-102576244D01*
X51106224Y-102254310D01*
X51100816Y-102244942D01*
X51081090Y-102207049D01*
X50924566Y-101906369D01*
X50919997Y-101896572D01*
X50773924Y-101543921D01*
X50770224Y-101533755D01*
X50680178Y-101248165D01*
X50655445Y-101169720D01*
X50652646Y-101159275D01*
X50595215Y-100900223D01*
X50570025Y-100786601D01*
X50568149Y-100775955D01*
X50555642Y-100680953D01*
X50518326Y-100397505D01*
X50517386Y-100386773D01*
X50500618Y-100002702D01*
X50500500Y-99997293D01*
X50500500Y-99818209D01*
X51299500Y-99818209D01*
X51299500Y-100181790D01*
X51335137Y-100543630D01*
X51406064Y-100900212D01*
X51406067Y-100900223D01*
X51511614Y-101248165D01*
X51650754Y-101584078D01*
X51650756Y-101584083D01*
X51822140Y-101904720D01*
X51822151Y-101904738D01*
X52024140Y-102207035D01*
X52024150Y-102207049D01*
X52254807Y-102488106D01*
X52511893Y-102745192D01*
X52511898Y-102745196D01*
X52511899Y-102745197D01*
X52792956Y-102975854D01*
X53095268Y-103177853D01*
X53095277Y-103177858D01*
X53095279Y-103177859D01*
X53415916Y-103349243D01*
X53415918Y-103349243D01*
X53415924Y-103349247D01*
X53751836Y-103488386D01*
X54099767Y-103593930D01*
X54099773Y-103593931D01*
X54099776Y-103593932D01*
X54099787Y-103593935D01*
X54456369Y-103664862D01*
X54818206Y-103700500D01*
X54818209Y-103700500D01*
X55181791Y-103700500D01*
X55181794Y-103700500D01*
X55543631Y-103664862D01*
X55613045Y-103651054D01*
X55900212Y-103593935D01*
X55900223Y-103593932D01*
X55900223Y-103593931D01*
X55900233Y-103593930D01*
X56248164Y-103488386D01*
X56584076Y-103349247D01*
X56904732Y-103177853D01*
X57207044Y-102975854D01*
X57488101Y-102745197D01*
X57745197Y-102488101D01*
X57975854Y-102207044D01*
X58177853Y-101904732D01*
X58349247Y-101584076D01*
X58488386Y-101248164D01*
X58593930Y-100900233D01*
X58593932Y-100900223D01*
X58593935Y-100900212D01*
X58664862Y-100543630D01*
X58700500Y-100181790D01*
X58700500Y-99818209D01*
X136299500Y-99818209D01*
X136299500Y-100181790D01*
X136335137Y-100543630D01*
X136406064Y-100900212D01*
X136406067Y-100900223D01*
X136511614Y-101248165D01*
X136650754Y-101584078D01*
X136650756Y-101584083D01*
X136822140Y-101904720D01*
X136822151Y-101904738D01*
X137024140Y-102207035D01*
X137024150Y-102207049D01*
X137254807Y-102488106D01*
X137511893Y-102745192D01*
X137511898Y-102745196D01*
X137511899Y-102745197D01*
X137792956Y-102975854D01*
X138095268Y-103177853D01*
X138095277Y-103177858D01*
X138095279Y-103177859D01*
X138415916Y-103349243D01*
X138415918Y-103349243D01*
X138415924Y-103349247D01*
X138751836Y-103488386D01*
X139099767Y-103593930D01*
X139099773Y-103593931D01*
X139099776Y-103593932D01*
X139099787Y-103593935D01*
X139456369Y-103664862D01*
X139818206Y-103700500D01*
X139818209Y-103700500D01*
X140181791Y-103700500D01*
X140181794Y-103700500D01*
X140543631Y-103664862D01*
X140613045Y-103651054D01*
X140900212Y-103593935D01*
X140900223Y-103593932D01*
X140900223Y-103593931D01*
X140900233Y-103593930D01*
X141248164Y-103488386D01*
X141584076Y-103349247D01*
X141904732Y-103177853D01*
X142207044Y-102975854D01*
X142488101Y-102745197D01*
X142745197Y-102488101D01*
X142975854Y-102207044D01*
X143177853Y-101904732D01*
X143349247Y-101584076D01*
X143488386Y-101248164D01*
X143593930Y-100900233D01*
X143593932Y-100900223D01*
X143593935Y-100900212D01*
X143664862Y-100543630D01*
X143700500Y-100181790D01*
X143700500Y-99818209D01*
X143664862Y-99456369D01*
X143593935Y-99099787D01*
X143593932Y-99099776D01*
X143593931Y-99099773D01*
X143593930Y-99099767D01*
X143488386Y-98751836D01*
X143349247Y-98415924D01*
X143177853Y-98095268D01*
X142975854Y-97792956D01*
X142745197Y-97511899D01*
X142745196Y-97511898D01*
X142745192Y-97511893D01*
X142488106Y-97254807D01*
X142207049Y-97024150D01*
X142207048Y-97024149D01*
X142207044Y-97024146D01*
X141904732Y-96822147D01*
X141904727Y-96822144D01*
X141904720Y-96822140D01*
X141584083Y-96650756D01*
X141584078Y-96650754D01*
X141248165Y-96511614D01*
X140900223Y-96406067D01*
X140900212Y-96406064D01*
X140543630Y-96335137D01*
X140271111Y-96308296D01*
X140181794Y-96299500D01*
X139818206Y-96299500D01*
X139735679Y-96307628D01*
X139456369Y-96335137D01*
X139099787Y-96406064D01*
X139099776Y-96406067D01*
X138751834Y-96511614D01*
X138415921Y-96650754D01*
X138415916Y-96650756D01*
X138095279Y-96822140D01*
X138095261Y-96822151D01*
X137792964Y-97024140D01*
X137792950Y-97024150D01*
X137511893Y-97254807D01*
X137254807Y-97511893D01*
X137024150Y-97792950D01*
X137024140Y-97792964D01*
X136822151Y-98095261D01*
X136822140Y-98095279D01*
X136650756Y-98415916D01*
X136650754Y-98415921D01*
X136511614Y-98751834D01*
X136406067Y-99099776D01*
X136406064Y-99099787D01*
X136335137Y-99456369D01*
X136299500Y-99818209D01*
X58700500Y-99818209D01*
X58664862Y-99456369D01*
X58593935Y-99099787D01*
X58593932Y-99099776D01*
X58593931Y-99099773D01*
X58593930Y-99099767D01*
X58488386Y-98751836D01*
X58349247Y-98415924D01*
X58177853Y-98095268D01*
X57975854Y-97792956D01*
X57745197Y-97511899D01*
X57745196Y-97511898D01*
X57745192Y-97511893D01*
X57488106Y-97254807D01*
X57207049Y-97024150D01*
X57207048Y-97024149D01*
X57207044Y-97024146D01*
X56904732Y-96822147D01*
X56904727Y-96822144D01*
X56904720Y-96822140D01*
X56584083Y-96650756D01*
X56584078Y-96650754D01*
X56248165Y-96511614D01*
X55900223Y-96406067D01*
X55900212Y-96406064D01*
X55543630Y-96335137D01*
X55271111Y-96308296D01*
X55181794Y-96299500D01*
X54818206Y-96299500D01*
X54735679Y-96307628D01*
X54456369Y-96335137D01*
X54099787Y-96406064D01*
X54099776Y-96406067D01*
X53751834Y-96511614D01*
X53415921Y-96650754D01*
X53415916Y-96650756D01*
X53095279Y-96822140D01*
X53095261Y-96822151D01*
X52792964Y-97024140D01*
X52792950Y-97024150D01*
X52511893Y-97254807D01*
X52254807Y-97511893D01*
X52024150Y-97792950D01*
X52024140Y-97792964D01*
X51822151Y-98095261D01*
X51822140Y-98095279D01*
X51650756Y-98415916D01*
X51650754Y-98415921D01*
X51511614Y-98751834D01*
X51406067Y-99099776D01*
X51406064Y-99099787D01*
X51335137Y-99456369D01*
X51299500Y-99818209D01*
X50500500Y-99818209D01*
X50500500Y-88186153D01*
X99529500Y-88186153D01*
X99529500Y-88343846D01*
X99560261Y-88498489D01*
X99560264Y-88498501D01*
X99620602Y-88644172D01*
X99620609Y-88644185D01*
X99708210Y-88775288D01*
X99708213Y-88775292D01*
X99745240Y-88812319D01*
X99778725Y-88873642D01*
X99773741Y-88943334D01*
X99745240Y-88987681D01*
X99708213Y-89024707D01*
X99708210Y-89024711D01*
X99620609Y-89155814D01*
X99620602Y-89155827D01*
X99560264Y-89301498D01*
X99560261Y-89301510D01*
X99529500Y-89456153D01*
X99529500Y-89613846D01*
X99560261Y-89768489D01*
X99560264Y-89768501D01*
X99620602Y-89914172D01*
X99620609Y-89914185D01*
X99708210Y-90045288D01*
X99708213Y-90045292D01*
X99819707Y-90156786D01*
X99819711Y-90156789D01*
X99950814Y-90244390D01*
X99950827Y-90244397D01*
X100096498Y-90304735D01*
X100096503Y-90304737D01*
X100251153Y-90335499D01*
X100251156Y-90335500D01*
X100251158Y-90335500D01*
X100408844Y-90335500D01*
X100408845Y-90335499D01*
X100563497Y-90304737D01*
X100709179Y-90244394D01*
X100709185Y-90244390D01*
X100840875Y-90156398D01*
X100907553Y-90135520D01*
X100909766Y-90135500D01*
X131654903Y-90135500D01*
X131721942Y-90155185D01*
X131742584Y-90171819D01*
X133705922Y-92135157D01*
X133739407Y-92196480D01*
X133736173Y-92261155D01*
X133731522Y-92275468D01*
X133699500Y-92477648D01*
X133699500Y-92682351D01*
X133731522Y-92884534D01*
X133794781Y-93079223D01*
X133887715Y-93261613D01*
X134008028Y-93427213D01*
X134152786Y-93571971D01*
X134307749Y-93684556D01*
X134318390Y-93692287D01*
X134434607Y-93751503D01*
X134500776Y-93785218D01*
X134500778Y-93785218D01*
X134500781Y-93785220D01*
X134605137Y-93819127D01*
X134695465Y-93848477D01*
X134796557Y-93864488D01*
X134897648Y-93880500D01*
X134897649Y-93880500D01*
X135102351Y-93880500D01*
X135102352Y-93880500D01*
X135304534Y-93848477D01*
X135499219Y-93785220D01*
X135681610Y-93692287D01*
X135774590Y-93624732D01*
X135847213Y-93571971D01*
X135847215Y-93571968D01*
X135847219Y-93571966D01*
X135991966Y-93427219D01*
X135991968Y-93427215D01*
X135991971Y-93427213D01*
X136044732Y-93354590D01*
X136112287Y-93261610D01*
X136205220Y-93079219D01*
X136268477Y-92884534D01*
X136300500Y-92682352D01*
X136300500Y-92477648D01*
X136268477Y-92275466D01*
X136205220Y-92080781D01*
X136205218Y-92080778D01*
X136205218Y-92080776D01*
X136171503Y-92014607D01*
X136112287Y-91898390D01*
X136104556Y-91887749D01*
X135991971Y-91732786D01*
X135847213Y-91588028D01*
X135681613Y-91467715D01*
X135681612Y-91467714D01*
X135681610Y-91467713D01*
X135624653Y-91438691D01*
X135499223Y-91374781D01*
X135304534Y-91311522D01*
X135129995Y-91283878D01*
X135102352Y-91279500D01*
X134897648Y-91279500D01*
X134859599Y-91285526D01*
X134695468Y-91311522D01*
X134686717Y-91314365D01*
X134681154Y-91316173D01*
X134611313Y-91318167D01*
X134555157Y-91285922D01*
X132442590Y-89173355D01*
X132442588Y-89173352D01*
X132323717Y-89054481D01*
X132323716Y-89054480D01*
X132236904Y-89004360D01*
X132236904Y-89004359D01*
X132236900Y-89004358D01*
X132186785Y-88975423D01*
X132034057Y-88934499D01*
X131875943Y-88934499D01*
X131868347Y-88934499D01*
X131868331Y-88934500D01*
X128114097Y-88934500D01*
X128047058Y-88914815D01*
X128001303Y-88862011D01*
X127991359Y-88792853D01*
X128020384Y-88729297D01*
X128026416Y-88722819D01*
X128250746Y-88498489D01*
X129273713Y-87475521D01*
X129273716Y-87475520D01*
X129385520Y-87363716D01*
X129435639Y-87276904D01*
X129464577Y-87226785D01*
X129505501Y-87074057D01*
X129505501Y-86915943D01*
X129505501Y-86908348D01*
X129505500Y-86908330D01*
X129505500Y-82317648D01*
X133699500Y-82317648D01*
X133699500Y-82522351D01*
X133731522Y-82724534D01*
X133794781Y-82919223D01*
X133887715Y-83101613D01*
X134008028Y-83267213D01*
X134152786Y-83411971D01*
X134307749Y-83524556D01*
X134318390Y-83532287D01*
X134434607Y-83591503D01*
X134500776Y-83625218D01*
X134500778Y-83625218D01*
X134500781Y-83625220D01*
X134605137Y-83659127D01*
X134695465Y-83688477D01*
X134796557Y-83704488D01*
X134897648Y-83720500D01*
X134897649Y-83720500D01*
X135102351Y-83720500D01*
X135102352Y-83720500D01*
X135304534Y-83688477D01*
X135499219Y-83625220D01*
X135681610Y-83532287D01*
X135774590Y-83464732D01*
X135847213Y-83411971D01*
X135847215Y-83411968D01*
X135847219Y-83411966D01*
X135991966Y-83267219D01*
X135991968Y-83267215D01*
X135991971Y-83267213D01*
X136044732Y-83194590D01*
X136112287Y-83101610D01*
X136205220Y-82919219D01*
X136268477Y-82724534D01*
X136300500Y-82522352D01*
X136300500Y-82317648D01*
X136293483Y-82273342D01*
X136268477Y-82115465D01*
X136205218Y-81920776D01*
X136171503Y-81854607D01*
X136112287Y-81738390D01*
X136104556Y-81727749D01*
X135991971Y-81572786D01*
X135847213Y-81428028D01*
X135681613Y-81307715D01*
X135681612Y-81307714D01*
X135681610Y-81307713D01*
X135624653Y-81278691D01*
X135499223Y-81214781D01*
X135304534Y-81151522D01*
X135129995Y-81123878D01*
X135102352Y-81119500D01*
X134897648Y-81119500D01*
X134873329Y-81123351D01*
X134695465Y-81151522D01*
X134500776Y-81214781D01*
X134318386Y-81307715D01*
X134152786Y-81428028D01*
X134008028Y-81572786D01*
X133887715Y-81738386D01*
X133794781Y-81920776D01*
X133731522Y-82115465D01*
X133699500Y-82317648D01*
X129505500Y-82317648D01*
X129505500Y-75252155D01*
X131060000Y-75252155D01*
X131060000Y-75950000D01*
X132084722Y-75950000D01*
X132040667Y-76026306D01*
X132010000Y-76140756D01*
X132010000Y-76259244D01*
X132040667Y-76373694D01*
X132084722Y-76450000D01*
X131060000Y-76450000D01*
X131060000Y-77147844D01*
X131066401Y-77207372D01*
X131066403Y-77207379D01*
X131116645Y-77342086D01*
X131116649Y-77342093D01*
X131202809Y-77457187D01*
X131202812Y-77457190D01*
X131317906Y-77543350D01*
X131317913Y-77543354D01*
X131452620Y-77593596D01*
X131452627Y-77593598D01*
X131512155Y-77599999D01*
X131512172Y-77600000D01*
X132210000Y-77600000D01*
X132210000Y-76575277D01*
X132286306Y-76619333D01*
X132400756Y-76650000D01*
X132519244Y-76650000D01*
X132633694Y-76619333D01*
X132710000Y-76575277D01*
X132710000Y-77600000D01*
X133407828Y-77600000D01*
X133407844Y-77599999D01*
X133467372Y-77593598D01*
X133467379Y-77593596D01*
X133602086Y-77543354D01*
X133602093Y-77543350D01*
X133717187Y-77457190D01*
X133717190Y-77457187D01*
X133803350Y-77342093D01*
X133803354Y-77342086D01*
X133833213Y-77262031D01*
X133875084Y-77206097D01*
X133940548Y-77181680D01*
X134008821Y-77196531D01*
X134037076Y-77217683D01*
X134087636Y-77268243D01*
X134087641Y-77268247D01*
X134212698Y-77359105D01*
X134265978Y-77397815D01*
X134382501Y-77457187D01*
X134462393Y-77497895D01*
X134462396Y-77497896D01*
X134567221Y-77531955D01*
X134672049Y-77566015D01*
X134889778Y-77600500D01*
X134889779Y-77600500D01*
X135110221Y-77600500D01*
X135110222Y-77600500D01*
X135327951Y-77566015D01*
X135537606Y-77497895D01*
X135734022Y-77397815D01*
X135912365Y-77268242D01*
X136068242Y-77112365D01*
X136197815Y-76934022D01*
X136297895Y-76737606D01*
X136366015Y-76527951D01*
X136400500Y-76310222D01*
X136400500Y-76089778D01*
X136366015Y-75872049D01*
X136331955Y-75767221D01*
X136297896Y-75662396D01*
X136297895Y-75662393D01*
X136263237Y-75594375D01*
X136197815Y-75465978D01*
X136181260Y-75443192D01*
X136068247Y-75287641D01*
X136068243Y-75287636D01*
X135912363Y-75131756D01*
X135912358Y-75131752D01*
X135734025Y-75002187D01*
X135734024Y-75002186D01*
X135734022Y-75002185D01*
X135671096Y-74970122D01*
X135537606Y-74902104D01*
X135537603Y-74902103D01*
X135327952Y-74833985D01*
X135219086Y-74816742D01*
X135110222Y-74799500D01*
X134889778Y-74799500D01*
X134817201Y-74810995D01*
X134672047Y-74833985D01*
X134462396Y-74902103D01*
X134462393Y-74902104D01*
X134265974Y-75002187D01*
X134087641Y-75131752D01*
X134087636Y-75131756D01*
X134037075Y-75182317D01*
X133975752Y-75215801D01*
X133906060Y-75210816D01*
X133850127Y-75168945D01*
X133833213Y-75137968D01*
X133803354Y-75057913D01*
X133803350Y-75057906D01*
X133717190Y-74942812D01*
X133717187Y-74942809D01*
X133602093Y-74856649D01*
X133602086Y-74856645D01*
X133467379Y-74806403D01*
X133467372Y-74806401D01*
X133407844Y-74800000D01*
X132710000Y-74800000D01*
X132710000Y-75824722D01*
X132633694Y-75780667D01*
X132519244Y-75750000D01*
X132400756Y-75750000D01*
X132286306Y-75780667D01*
X132210000Y-75824722D01*
X132210000Y-74800000D01*
X131512155Y-74800000D01*
X131452627Y-74806401D01*
X131452620Y-74806403D01*
X131317913Y-74856645D01*
X131317906Y-74856649D01*
X131202812Y-74942809D01*
X131202809Y-74942812D01*
X131116649Y-75057906D01*
X131116645Y-75057913D01*
X131066403Y-75192620D01*
X131066401Y-75192627D01*
X131060000Y-75252155D01*
X129505500Y-75252155D01*
X129505500Y-71055096D01*
X129525185Y-70988057D01*
X129541814Y-70967420D01*
X130766437Y-69742796D01*
X130827758Y-69709313D01*
X130892433Y-69712547D01*
X131018632Y-69753553D01*
X131106110Y-69767408D01*
X131251903Y-69790500D01*
X131251908Y-69790500D01*
X131488097Y-69790500D01*
X131721368Y-69753553D01*
X131754468Y-69742798D01*
X131945992Y-69680568D01*
X132156433Y-69573343D01*
X132347510Y-69434517D01*
X132514517Y-69267510D01*
X132653343Y-69076433D01*
X132760568Y-68865992D01*
X132833553Y-68641368D01*
X132870500Y-68408097D01*
X132870500Y-68171902D01*
X136369500Y-68171902D01*
X136369500Y-68408097D01*
X136406446Y-68641368D01*
X136479433Y-68865996D01*
X136586657Y-69076433D01*
X136725483Y-69267510D01*
X136892490Y-69434517D01*
X137083567Y-69573343D01*
X137182991Y-69624002D01*
X137294003Y-69680566D01*
X137294005Y-69680566D01*
X137294008Y-69680568D01*
X137382476Y-69709313D01*
X137518631Y-69753553D01*
X137751903Y-69790500D01*
X137751908Y-69790500D01*
X137988097Y-69790500D01*
X138221368Y-69753553D01*
X138254468Y-69742798D01*
X138445992Y-69680568D01*
X138656433Y-69573343D01*
X138847510Y-69434517D01*
X139014517Y-69267510D01*
X139153343Y-69076433D01*
X139260568Y-68865992D01*
X139333553Y-68641368D01*
X139370500Y-68408097D01*
X139370500Y-68171902D01*
X139333553Y-67938631D01*
X139260566Y-67714003D01*
X139204002Y-67602991D01*
X139153343Y-67503567D01*
X139014517Y-67312490D01*
X138847510Y-67145483D01*
X138656433Y-67006657D01*
X138643368Y-67000000D01*
X138445996Y-66899433D01*
X138221368Y-66826446D01*
X137988097Y-66789500D01*
X137988092Y-66789500D01*
X137751908Y-66789500D01*
X137751903Y-66789500D01*
X137518631Y-66826446D01*
X137294003Y-66899433D01*
X137083566Y-67006657D01*
X136974550Y-67085862D01*
X136892490Y-67145483D01*
X136892488Y-67145485D01*
X136892487Y-67145485D01*
X136725485Y-67312487D01*
X136725485Y-67312488D01*
X136725483Y-67312490D01*
X136673244Y-67384390D01*
X136586657Y-67503566D01*
X136479433Y-67714003D01*
X136406446Y-67938631D01*
X136369500Y-68171902D01*
X132870500Y-68171902D01*
X132833553Y-67938631D01*
X132760566Y-67714003D01*
X132704002Y-67602991D01*
X132653343Y-67503567D01*
X132514517Y-67312490D01*
X132347510Y-67145483D01*
X132156433Y-67006657D01*
X132143368Y-67000000D01*
X131945996Y-66899433D01*
X131721368Y-66826446D01*
X131488097Y-66789500D01*
X131488092Y-66789500D01*
X131251908Y-66789500D01*
X131251903Y-66789500D01*
X131018631Y-66826446D01*
X130794003Y-66899433D01*
X130583566Y-67006657D01*
X130474550Y-67085862D01*
X130392490Y-67145483D01*
X130392488Y-67145485D01*
X130392487Y-67145485D01*
X130225485Y-67312487D01*
X130225485Y-67312488D01*
X130225483Y-67312490D01*
X130173244Y-67384390D01*
X130086657Y-67503566D01*
X129979433Y-67714003D01*
X129906446Y-67938631D01*
X129869500Y-68171902D01*
X129869500Y-68408097D01*
X129906447Y-68641369D01*
X129906447Y-68641372D01*
X129947450Y-68767564D01*
X129949445Y-68837405D01*
X129917200Y-68893563D01*
X128536286Y-70274478D01*
X128424481Y-70386282D01*
X128424479Y-70386285D01*
X128374361Y-70473094D01*
X128374359Y-70473096D01*
X128345425Y-70523209D01*
X128345424Y-70523210D01*
X128345423Y-70523215D01*
X128304499Y-70675943D01*
X128304499Y-70675945D01*
X128304499Y-70844046D01*
X128304500Y-70844059D01*
X128304500Y-86694903D01*
X128284815Y-86761942D01*
X128268181Y-86782584D01*
X126787584Y-88263181D01*
X126726261Y-88296666D01*
X126699903Y-88299500D01*
X101265098Y-88299500D01*
X101235657Y-88290855D01*
X101205671Y-88284332D01*
X101200655Y-88280577D01*
X101198059Y-88279815D01*
X101177417Y-88263181D01*
X101164573Y-88250337D01*
X101131088Y-88189014D01*
X101130637Y-88186847D01*
X101099738Y-88031510D01*
X101099737Y-88031503D01*
X101099735Y-88031498D01*
X101039397Y-87885827D01*
X101039390Y-87885814D01*
X100951789Y-87754711D01*
X100951786Y-87754707D01*
X100840292Y-87643213D01*
X100840288Y-87643210D01*
X100709185Y-87555609D01*
X100709172Y-87555602D01*
X100563501Y-87495264D01*
X100563489Y-87495261D01*
X100408845Y-87464500D01*
X100408842Y-87464500D01*
X100251158Y-87464500D01*
X100251155Y-87464500D01*
X100096510Y-87495261D01*
X100096498Y-87495264D01*
X99950827Y-87555602D01*
X99950814Y-87555609D01*
X99819711Y-87643210D01*
X99819707Y-87643213D01*
X99708213Y-87754707D01*
X99708210Y-87754711D01*
X99620609Y-87885814D01*
X99620602Y-87885827D01*
X99560264Y-88031498D01*
X99560261Y-88031510D01*
X99529500Y-88186153D01*
X50500500Y-88186153D01*
X50500500Y-80871902D01*
X53669500Y-80871902D01*
X53669500Y-81108097D01*
X53706446Y-81341368D01*
X53779433Y-81565996D01*
X53867271Y-81738386D01*
X53886657Y-81776433D01*
X54025483Y-81967510D01*
X54192490Y-82134517D01*
X54383567Y-82273343D01*
X54482991Y-82324002D01*
X54594003Y-82380566D01*
X54594005Y-82380566D01*
X54594008Y-82380568D01*
X54714412Y-82419689D01*
X54818631Y-82453553D01*
X55051903Y-82490500D01*
X55051908Y-82490500D01*
X55288097Y-82490500D01*
X55521368Y-82453553D01*
X55745992Y-82380568D01*
X55956433Y-82273343D01*
X56147510Y-82134517D01*
X56314517Y-81967510D01*
X56453343Y-81776433D01*
X56560568Y-81565992D01*
X56633553Y-81341368D01*
X56638883Y-81307715D01*
X56670500Y-81108097D01*
X56670500Y-80871902D01*
X60169500Y-80871902D01*
X60169500Y-81108097D01*
X60206446Y-81341368D01*
X60279433Y-81565996D01*
X60367271Y-81738386D01*
X60386657Y-81776433D01*
X60525483Y-81967510D01*
X60692490Y-82134517D01*
X60883567Y-82273343D01*
X60982991Y-82324002D01*
X61094003Y-82380566D01*
X61094005Y-82380566D01*
X61094008Y-82380568D01*
X61214412Y-82419689D01*
X61318631Y-82453553D01*
X61551903Y-82490500D01*
X61551908Y-82490500D01*
X61788097Y-82490500D01*
X62021368Y-82453553D01*
X62245992Y-82380568D01*
X62456433Y-82273343D01*
X62647510Y-82134517D01*
X62814517Y-81967510D01*
X62953343Y-81776433D01*
X63060568Y-81565992D01*
X63133553Y-81341368D01*
X63138883Y-81307715D01*
X63170500Y-81108097D01*
X63170500Y-80871902D01*
X91769500Y-80871902D01*
X91769500Y-81108097D01*
X91806446Y-81341368D01*
X91879433Y-81565996D01*
X91967271Y-81738386D01*
X91986657Y-81776433D01*
X92125483Y-81967510D01*
X92292490Y-82134517D01*
X92483567Y-82273343D01*
X92582991Y-82324002D01*
X92694003Y-82380566D01*
X92694005Y-82380566D01*
X92694008Y-82380568D01*
X92814412Y-82419689D01*
X92918631Y-82453553D01*
X93151903Y-82490500D01*
X93151908Y-82490500D01*
X93388097Y-82490500D01*
X93621368Y-82453553D01*
X93845992Y-82380568D01*
X94056433Y-82273343D01*
X94247510Y-82134517D01*
X94414517Y-81967510D01*
X94553343Y-81776433D01*
X94660568Y-81565992D01*
X94733553Y-81341368D01*
X94738883Y-81307715D01*
X94770500Y-81108097D01*
X94770500Y-80871902D01*
X98269500Y-80871902D01*
X98269500Y-81108097D01*
X98306446Y-81341368D01*
X98379433Y-81565996D01*
X98467271Y-81738386D01*
X98486657Y-81776433D01*
X98625483Y-81967510D01*
X98792490Y-82134517D01*
X98983567Y-82273343D01*
X99082991Y-82324002D01*
X99194003Y-82380566D01*
X99194005Y-82380566D01*
X99194008Y-82380568D01*
X99314412Y-82419689D01*
X99418631Y-82453553D01*
X99651903Y-82490500D01*
X99651908Y-82490500D01*
X99888097Y-82490500D01*
X100121368Y-82453553D01*
X100345992Y-82380568D01*
X100556433Y-82273343D01*
X100747510Y-82134517D01*
X100914517Y-81967510D01*
X101053343Y-81776433D01*
X101160568Y-81565992D01*
X101233553Y-81341368D01*
X101238883Y-81307715D01*
X101270500Y-81108097D01*
X101270500Y-80871902D01*
X101233553Y-80638635D01*
X101233553Y-80638632D01*
X101192547Y-80512433D01*
X101190553Y-80442593D01*
X101222796Y-80386437D01*
X103502417Y-78106819D01*
X103563740Y-78073334D01*
X103590098Y-78070500D01*
X120070234Y-78070500D01*
X120137273Y-78090185D01*
X120139125Y-78091398D01*
X120270814Y-78179390D01*
X120270827Y-78179397D01*
X120416498Y-78239735D01*
X120416503Y-78239737D01*
X120571153Y-78270499D01*
X120571156Y-78270500D01*
X120571158Y-78270500D01*
X120728844Y-78270500D01*
X120728845Y-78270499D01*
X120883497Y-78239737D01*
X121029179Y-78179394D01*
X121160289Y-78091789D01*
X121271789Y-77980289D01*
X121359394Y-77849179D01*
X121419737Y-77703497D01*
X121450500Y-77548842D01*
X121450500Y-77391158D01*
X121450500Y-77391155D01*
X121450499Y-77391153D01*
X121426051Y-77268247D01*
X121419737Y-77236503D01*
X121368315Y-77112358D01*
X121359397Y-77090827D01*
X121359390Y-77090814D01*
X121271789Y-76959711D01*
X121271786Y-76959707D01*
X121160292Y-76848213D01*
X121160288Y-76848210D01*
X121029185Y-76760609D01*
X121029172Y-76760602D01*
X120883501Y-76700264D01*
X120883489Y-76700261D01*
X120728845Y-76669500D01*
X120728842Y-76669500D01*
X120571158Y-76669500D01*
X120571155Y-76669500D01*
X120416510Y-76700261D01*
X120416498Y-76700264D01*
X120270827Y-76760602D01*
X120270814Y-76760609D01*
X120139125Y-76848602D01*
X120072447Y-76869480D01*
X120070234Y-76869500D01*
X103376670Y-76869500D01*
X103376654Y-76869499D01*
X103369058Y-76869499D01*
X103210943Y-76869499D01*
X103134579Y-76889961D01*
X103058214Y-76910423D01*
X103058209Y-76910426D01*
X102921290Y-76989475D01*
X102921282Y-76989481D01*
X100373563Y-79537200D01*
X100312240Y-79570685D01*
X100247564Y-79567450D01*
X100121370Y-79526447D01*
X99888097Y-79489500D01*
X99888092Y-79489500D01*
X99651908Y-79489500D01*
X99651903Y-79489500D01*
X99418631Y-79526446D01*
X99194003Y-79599433D01*
X98983566Y-79706657D01*
X98874550Y-79785862D01*
X98792490Y-79845483D01*
X98792488Y-79845485D01*
X98792487Y-79845485D01*
X98625485Y-80012487D01*
X98625485Y-80012488D01*
X98625483Y-80012490D01*
X98565862Y-80094550D01*
X98486657Y-80203566D01*
X98379433Y-80414003D01*
X98306446Y-80638631D01*
X98269500Y-80871902D01*
X94770500Y-80871902D01*
X94733553Y-80638631D01*
X94669856Y-80442593D01*
X94660568Y-80414008D01*
X94660566Y-80414005D01*
X94660566Y-80414003D01*
X94553342Y-80203566D01*
X94414517Y-80012490D01*
X94247510Y-79845483D01*
X94056433Y-79706657D01*
X93845996Y-79599433D01*
X93621368Y-79526446D01*
X93388097Y-79489500D01*
X93388092Y-79489500D01*
X93151908Y-79489500D01*
X93151903Y-79489500D01*
X92918631Y-79526446D01*
X92694003Y-79599433D01*
X92483566Y-79706657D01*
X92374550Y-79785862D01*
X92292490Y-79845483D01*
X92292488Y-79845485D01*
X92292487Y-79845485D01*
X92125485Y-80012487D01*
X92125485Y-80012488D01*
X92125483Y-80012490D01*
X92065862Y-80094550D01*
X91986657Y-80203566D01*
X91879433Y-80414003D01*
X91806446Y-80638631D01*
X91769500Y-80871902D01*
X63170500Y-80871902D01*
X63133553Y-80638635D01*
X63133553Y-80638632D01*
X63092547Y-80512433D01*
X63090553Y-80442593D01*
X63122796Y-80386437D01*
X65402417Y-78106819D01*
X65463740Y-78073334D01*
X65490098Y-78070500D01*
X81970234Y-78070500D01*
X82037273Y-78090185D01*
X82039125Y-78091398D01*
X82170814Y-78179390D01*
X82170827Y-78179397D01*
X82316498Y-78239735D01*
X82316503Y-78239737D01*
X82471153Y-78270499D01*
X82471156Y-78270500D01*
X82471158Y-78270500D01*
X82628844Y-78270500D01*
X82628845Y-78270499D01*
X82783497Y-78239737D01*
X82929179Y-78179394D01*
X83060289Y-78091789D01*
X83171789Y-77980289D01*
X83259394Y-77849179D01*
X83319737Y-77703497D01*
X83322530Y-77689452D01*
X83332128Y-77641207D01*
X83332128Y-77641206D01*
X83350499Y-77548846D01*
X83350500Y-77548844D01*
X83350500Y-77391155D01*
X83350499Y-77391153D01*
X83326051Y-77268247D01*
X83319737Y-77236503D01*
X83268315Y-77112358D01*
X83259397Y-77090827D01*
X83259390Y-77090814D01*
X83171789Y-76959711D01*
X83171786Y-76959707D01*
X83060292Y-76848213D01*
X83060288Y-76848210D01*
X82929185Y-76760609D01*
X82929172Y-76760602D01*
X82783501Y-76700264D01*
X82783489Y-76700261D01*
X82628845Y-76669500D01*
X82628842Y-76669500D01*
X82471158Y-76669500D01*
X82471155Y-76669500D01*
X82316510Y-76700261D01*
X82316498Y-76700264D01*
X82170827Y-76760602D01*
X82170814Y-76760609D01*
X82039125Y-76848602D01*
X81972447Y-76869480D01*
X81970234Y-76869500D01*
X65276670Y-76869500D01*
X65276654Y-76869499D01*
X65269058Y-76869499D01*
X65110943Y-76869499D01*
X65034579Y-76889961D01*
X64958214Y-76910423D01*
X64958209Y-76910426D01*
X64821290Y-76989475D01*
X64821282Y-76989481D01*
X62273563Y-79537200D01*
X62212240Y-79570685D01*
X62147564Y-79567450D01*
X62021370Y-79526447D01*
X61788097Y-79489500D01*
X61788092Y-79489500D01*
X61551908Y-79489500D01*
X61551903Y-79489500D01*
X61318631Y-79526446D01*
X61094003Y-79599433D01*
X60883566Y-79706657D01*
X60774550Y-79785862D01*
X60692490Y-79845483D01*
X60692488Y-79845485D01*
X60692487Y-79845485D01*
X60525485Y-80012487D01*
X60525485Y-80012488D01*
X60525483Y-80012490D01*
X60465862Y-80094550D01*
X60386657Y-80203566D01*
X60279433Y-80414003D01*
X60206446Y-80638631D01*
X60169500Y-80871902D01*
X56670500Y-80871902D01*
X56633553Y-80638631D01*
X56569856Y-80442593D01*
X56560568Y-80414008D01*
X56560566Y-80414005D01*
X56560566Y-80414003D01*
X56453342Y-80203566D01*
X56314517Y-80012490D01*
X56147510Y-79845483D01*
X55956433Y-79706657D01*
X55745996Y-79599433D01*
X55521368Y-79526446D01*
X55288097Y-79489500D01*
X55288092Y-79489500D01*
X55051908Y-79489500D01*
X55051903Y-79489500D01*
X54818631Y-79526446D01*
X54594003Y-79599433D01*
X54383566Y-79706657D01*
X54274550Y-79785862D01*
X54192490Y-79845483D01*
X54192488Y-79845485D01*
X54192487Y-79845485D01*
X54025485Y-80012487D01*
X54025485Y-80012488D01*
X54025483Y-80012490D01*
X53965862Y-80094550D01*
X53886657Y-80203566D01*
X53779433Y-80414003D01*
X53706446Y-80638631D01*
X53669500Y-80871902D01*
X50500500Y-80871902D01*
X50500500Y-76371947D01*
X53670000Y-76371947D01*
X53670000Y-76608052D01*
X53706934Y-76841247D01*
X53779897Y-77065802D01*
X53887087Y-77276174D01*
X53947338Y-77359104D01*
X53947340Y-77359105D01*
X54646212Y-76660233D01*
X54657482Y-76702292D01*
X54729890Y-76827708D01*
X54832292Y-76930110D01*
X54957708Y-77002518D01*
X54999765Y-77013787D01*
X54300893Y-77712658D01*
X54383828Y-77772914D01*
X54594197Y-77880102D01*
X54818752Y-77953065D01*
X54818751Y-77953065D01*
X55051948Y-77990000D01*
X55288052Y-77990000D01*
X55521247Y-77953065D01*
X55745802Y-77880102D01*
X55956163Y-77772918D01*
X55956169Y-77772914D01*
X56039104Y-77712658D01*
X56039105Y-77712658D01*
X55340233Y-77013787D01*
X55382292Y-77002518D01*
X55507708Y-76930110D01*
X55610110Y-76827708D01*
X55682518Y-76702292D01*
X55693787Y-76660234D01*
X56392658Y-77359105D01*
X56392658Y-77359104D01*
X56452914Y-77276169D01*
X56452918Y-77276163D01*
X56560102Y-77065802D01*
X56633065Y-76841247D01*
X56670000Y-76608052D01*
X56670000Y-76371947D01*
X60170000Y-76371947D01*
X60170000Y-76608052D01*
X60206934Y-76841247D01*
X60279897Y-77065802D01*
X60387087Y-77276174D01*
X60447338Y-77359104D01*
X60447340Y-77359105D01*
X61146212Y-76660233D01*
X61157482Y-76702292D01*
X61229890Y-76827708D01*
X61332292Y-76930110D01*
X61457708Y-77002518D01*
X61499765Y-77013787D01*
X60800893Y-77712658D01*
X60883828Y-77772914D01*
X61094197Y-77880102D01*
X61318752Y-77953065D01*
X61318751Y-77953065D01*
X61551948Y-77990000D01*
X61788052Y-77990000D01*
X62021247Y-77953065D01*
X62245802Y-77880102D01*
X62456163Y-77772918D01*
X62456169Y-77772914D01*
X62539104Y-77712658D01*
X62539105Y-77712658D01*
X61840233Y-77013787D01*
X61882292Y-77002518D01*
X62007708Y-76930110D01*
X62110110Y-76827708D01*
X62182518Y-76702292D01*
X62193787Y-76660234D01*
X62892658Y-77359105D01*
X62892658Y-77359104D01*
X62952914Y-77276169D01*
X62952918Y-77276163D01*
X63060102Y-77065802D01*
X63133065Y-76841247D01*
X63170000Y-76608052D01*
X63170000Y-76371947D01*
X91770000Y-76371947D01*
X91770000Y-76608052D01*
X91806934Y-76841247D01*
X91879897Y-77065802D01*
X91987087Y-77276174D01*
X92047338Y-77359104D01*
X92047340Y-77359105D01*
X92746212Y-76660233D01*
X92757482Y-76702292D01*
X92829890Y-76827708D01*
X92932292Y-76930110D01*
X93057708Y-77002518D01*
X93099765Y-77013787D01*
X92400893Y-77712658D01*
X92483828Y-77772914D01*
X92694197Y-77880102D01*
X92918752Y-77953065D01*
X92918751Y-77953065D01*
X93151948Y-77990000D01*
X93388052Y-77990000D01*
X93621247Y-77953065D01*
X93845802Y-77880102D01*
X94056163Y-77772918D01*
X94056169Y-77772914D01*
X94139104Y-77712658D01*
X94139105Y-77712658D01*
X93440233Y-77013787D01*
X93482292Y-77002518D01*
X93607708Y-76930110D01*
X93710110Y-76827708D01*
X93782518Y-76702292D01*
X93793787Y-76660234D01*
X94492658Y-77359105D01*
X94492658Y-77359104D01*
X94552914Y-77276169D01*
X94552918Y-77276163D01*
X94660102Y-77065802D01*
X94733065Y-76841247D01*
X94770000Y-76608052D01*
X94770000Y-76371947D01*
X98270000Y-76371947D01*
X98270000Y-76608052D01*
X98306934Y-76841247D01*
X98379897Y-77065802D01*
X98487087Y-77276174D01*
X98547338Y-77359104D01*
X98547340Y-77359105D01*
X99246212Y-76660233D01*
X99257482Y-76702292D01*
X99329890Y-76827708D01*
X99432292Y-76930110D01*
X99557708Y-77002518D01*
X99599765Y-77013787D01*
X98900893Y-77712658D01*
X98983828Y-77772914D01*
X99194197Y-77880102D01*
X99418752Y-77953065D01*
X99418751Y-77953065D01*
X99651948Y-77990000D01*
X99888052Y-77990000D01*
X100121247Y-77953065D01*
X100345802Y-77880102D01*
X100556163Y-77772918D01*
X100556169Y-77772914D01*
X100639104Y-77712658D01*
X100639105Y-77712658D01*
X99940233Y-77013787D01*
X99982292Y-77002518D01*
X100107708Y-76930110D01*
X100210110Y-76827708D01*
X100282518Y-76702292D01*
X100293787Y-76660234D01*
X100992658Y-77359105D01*
X100992658Y-77359104D01*
X101052914Y-77276169D01*
X101052918Y-77276163D01*
X101160102Y-77065802D01*
X101233065Y-76841247D01*
X101270000Y-76608052D01*
X101270000Y-76371947D01*
X101233065Y-76138752D01*
X101160102Y-75914197D01*
X101052914Y-75703828D01*
X100992658Y-75620894D01*
X100992658Y-75620893D01*
X100293787Y-76319765D01*
X100282518Y-76277708D01*
X100210110Y-76152292D01*
X100107708Y-76049890D01*
X99982292Y-75977482D01*
X99940234Y-75966212D01*
X100639105Y-75267340D01*
X100639104Y-75267338D01*
X100556174Y-75207087D01*
X100345802Y-75099897D01*
X100121247Y-75026934D01*
X100121248Y-75026934D01*
X99888052Y-74990000D01*
X99651948Y-74990000D01*
X99418752Y-75026934D01*
X99194197Y-75099897D01*
X98983830Y-75207084D01*
X98900894Y-75267340D01*
X99599766Y-75966212D01*
X99557708Y-75977482D01*
X99432292Y-76049890D01*
X99329890Y-76152292D01*
X99257482Y-76277708D01*
X99246212Y-76319766D01*
X98547340Y-75620894D01*
X98487084Y-75703830D01*
X98379897Y-75914197D01*
X98306934Y-76138752D01*
X98270000Y-76371947D01*
X94770000Y-76371947D01*
X94733065Y-76138752D01*
X94660102Y-75914197D01*
X94552914Y-75703828D01*
X94492658Y-75620894D01*
X94492658Y-75620893D01*
X93793787Y-76319765D01*
X93782518Y-76277708D01*
X93710110Y-76152292D01*
X93607708Y-76049890D01*
X93482292Y-75977482D01*
X93440234Y-75966212D01*
X94139105Y-75267340D01*
X94139104Y-75267339D01*
X94056174Y-75207087D01*
X93845802Y-75099897D01*
X93621247Y-75026934D01*
X93621248Y-75026934D01*
X93388052Y-74990000D01*
X93151948Y-74990000D01*
X92918752Y-75026934D01*
X92694197Y-75099897D01*
X92483830Y-75207084D01*
X92400894Y-75267340D01*
X93099766Y-75966212D01*
X93057708Y-75977482D01*
X92932292Y-76049890D01*
X92829890Y-76152292D01*
X92757482Y-76277708D01*
X92746212Y-76319766D01*
X92047340Y-75620894D01*
X91987084Y-75703830D01*
X91879897Y-75914197D01*
X91806934Y-76138752D01*
X91770000Y-76371947D01*
X63170000Y-76371947D01*
X63133065Y-76138752D01*
X63060102Y-75914197D01*
X62952914Y-75703828D01*
X62892658Y-75620894D01*
X62892658Y-75620893D01*
X62193787Y-76319765D01*
X62182518Y-76277708D01*
X62110110Y-76152292D01*
X62007708Y-76049890D01*
X61882292Y-75977482D01*
X61840234Y-75966212D01*
X62539105Y-75267340D01*
X62539104Y-75267339D01*
X62456174Y-75207087D01*
X62245802Y-75099897D01*
X62021247Y-75026934D01*
X62021248Y-75026934D01*
X61788052Y-74990000D01*
X61551948Y-74990000D01*
X61318752Y-75026934D01*
X61094197Y-75099897D01*
X60883830Y-75207084D01*
X60800894Y-75267340D01*
X61499766Y-75966212D01*
X61457708Y-75977482D01*
X61332292Y-76049890D01*
X61229890Y-76152292D01*
X61157482Y-76277708D01*
X61146212Y-76319766D01*
X60447340Y-75620894D01*
X60387084Y-75703830D01*
X60279897Y-75914197D01*
X60206934Y-76138752D01*
X60170000Y-76371947D01*
X56670000Y-76371947D01*
X56633065Y-76138752D01*
X56560102Y-75914197D01*
X56452914Y-75703828D01*
X56392658Y-75620894D01*
X56392658Y-75620893D01*
X55693787Y-76319765D01*
X55682518Y-76277708D01*
X55610110Y-76152292D01*
X55507708Y-76049890D01*
X55382292Y-75977482D01*
X55340234Y-75966212D01*
X56039105Y-75267340D01*
X56039104Y-75267339D01*
X55956174Y-75207087D01*
X55745802Y-75099897D01*
X55521247Y-75026934D01*
X55521248Y-75026934D01*
X55288052Y-74990000D01*
X55051948Y-74990000D01*
X54818752Y-75026934D01*
X54594197Y-75099897D01*
X54383830Y-75207084D01*
X54300894Y-75267340D01*
X54999766Y-75966212D01*
X54957708Y-75977482D01*
X54832292Y-76049890D01*
X54729890Y-76152292D01*
X54657482Y-76277708D01*
X54646212Y-76319766D01*
X53947340Y-75620894D01*
X53887084Y-75703830D01*
X53779897Y-75914197D01*
X53706934Y-76138752D01*
X53670000Y-76371947D01*
X50500500Y-76371947D01*
X50500500Y-64062132D01*
X54529500Y-64062132D01*
X54529500Y-65857870D01*
X54529501Y-65857876D01*
X54535908Y-65917483D01*
X54586202Y-66052328D01*
X54586206Y-66052335D01*
X54672452Y-66167544D01*
X54672455Y-66167547D01*
X54787664Y-66253793D01*
X54787671Y-66253797D01*
X54832618Y-66270561D01*
X54922517Y-66304091D01*
X54982127Y-66310500D01*
X54992685Y-66310499D01*
X55059723Y-66330179D01*
X55080372Y-66346818D01*
X55750591Y-67017037D01*
X55687007Y-67034075D01*
X55572993Y-67099901D01*
X55479901Y-67192993D01*
X55414075Y-67307007D01*
X55397037Y-67370591D01*
X54764728Y-66738282D01*
X54764727Y-66738282D01*
X54725380Y-66792439D01*
X54628904Y-66981782D01*
X54563242Y-67183869D01*
X54563242Y-67183872D01*
X54530000Y-67393753D01*
X54530000Y-67606246D01*
X54563242Y-67816127D01*
X54563242Y-67816130D01*
X54628904Y-68018217D01*
X54725375Y-68207550D01*
X54764728Y-68261716D01*
X55397037Y-67629408D01*
X55414075Y-67692993D01*
X55479901Y-67807007D01*
X55572993Y-67900099D01*
X55687007Y-67965925D01*
X55750590Y-67982962D01*
X55118282Y-68615269D01*
X55118282Y-68615270D01*
X55172452Y-68654626D01*
X55172451Y-68654626D01*
X55181495Y-68659234D01*
X55232292Y-68707208D01*
X55249087Y-68775029D01*
X55226550Y-68841164D01*
X55181499Y-68880202D01*
X55172182Y-68884949D01*
X55000213Y-69009890D01*
X54849890Y-69160213D01*
X54724951Y-69332179D01*
X54628444Y-69521585D01*
X54562753Y-69723760D01*
X54529500Y-69933713D01*
X54529500Y-70146286D01*
X54549803Y-70274478D01*
X54562754Y-70356243D01*
X54600721Y-70473094D01*
X54628444Y-70558414D01*
X54724951Y-70747820D01*
X54849890Y-70919786D01*
X55000213Y-71070109D01*
X55172179Y-71195048D01*
X55172181Y-71195049D01*
X55172184Y-71195051D01*
X55361588Y-71291557D01*
X55563757Y-71357246D01*
X55773713Y-71390500D01*
X55773714Y-71390500D01*
X55986286Y-71390500D01*
X55986287Y-71390500D01*
X56196243Y-71357246D01*
X56398412Y-71291557D01*
X56587816Y-71195051D01*
X56609789Y-71179086D01*
X56759786Y-71070109D01*
X56759788Y-71070106D01*
X56759792Y-71070104D01*
X56910104Y-70919792D01*
X56910106Y-70919788D01*
X56910109Y-70919786D01*
X57035048Y-70747820D01*
X57035047Y-70747820D01*
X57035051Y-70747816D01*
X57039514Y-70739054D01*
X57087488Y-70688259D01*
X57155308Y-70671463D01*
X57221444Y-70693999D01*
X57260486Y-70739056D01*
X57264951Y-70747820D01*
X57389890Y-70919786D01*
X57540213Y-71070109D01*
X57712179Y-71195048D01*
X57712181Y-71195049D01*
X57712184Y-71195051D01*
X57901588Y-71291557D01*
X58103757Y-71357246D01*
X58313713Y-71390500D01*
X58313714Y-71390500D01*
X58526286Y-71390500D01*
X58526287Y-71390500D01*
X58736243Y-71357246D01*
X58938412Y-71291557D01*
X59127816Y-71195051D01*
X59149789Y-71179086D01*
X59299786Y-71070109D01*
X59299788Y-71070106D01*
X59299792Y-71070104D01*
X59450104Y-70919792D01*
X59450106Y-70919788D01*
X59450109Y-70919786D01*
X59575048Y-70747820D01*
X59575047Y-70747820D01*
X59575051Y-70747816D01*
X59671557Y-70558412D01*
X59737246Y-70356243D01*
X59770500Y-70146287D01*
X59770500Y-69933713D01*
X59737246Y-69723757D01*
X59671557Y-69521588D01*
X59575051Y-69332184D01*
X59575049Y-69332181D01*
X59575048Y-69332179D01*
X59450109Y-69160213D01*
X59299786Y-69009890D01*
X59127817Y-68884949D01*
X59118504Y-68880204D01*
X59067707Y-68832230D01*
X59050912Y-68764409D01*
X59073449Y-68698274D01*
X59118507Y-68659232D01*
X59127555Y-68654622D01*
X59181716Y-68615270D01*
X59181717Y-68615270D01*
X58549408Y-67982962D01*
X58612993Y-67965925D01*
X58727007Y-67900099D01*
X58820099Y-67807007D01*
X58885925Y-67692993D01*
X58902962Y-67629408D01*
X59535270Y-68261717D01*
X59535270Y-68261716D01*
X59574622Y-68207554D01*
X59671095Y-68018217D01*
X59736757Y-67816130D01*
X59736757Y-67816127D01*
X59770000Y-67606246D01*
X59770000Y-67393753D01*
X59736757Y-67183872D01*
X59736757Y-67183869D01*
X59671095Y-66981782D01*
X59574624Y-66792449D01*
X59535270Y-66738282D01*
X59535269Y-66738282D01*
X58902962Y-67370590D01*
X58885925Y-67307007D01*
X58820099Y-67192993D01*
X58727007Y-67099901D01*
X58612993Y-67034075D01*
X58549409Y-67017037D01*
X59181716Y-66384728D01*
X59127547Y-66345373D01*
X59127547Y-66345372D01*
X59118500Y-66340763D01*
X59067706Y-66292788D01*
X59050912Y-66224966D01*
X59073451Y-66158832D01*
X59118508Y-66119793D01*
X59119959Y-66119054D01*
X62264498Y-66119054D01*
X62305424Y-66271789D01*
X62305425Y-66271790D01*
X62324074Y-66304090D01*
X62324075Y-66304091D01*
X62384477Y-66408712D01*
X62384481Y-66408717D01*
X62503349Y-66527585D01*
X62503355Y-66527590D01*
X62665425Y-66689660D01*
X62698910Y-66750983D01*
X62699361Y-66753149D01*
X62730261Y-66908491D01*
X62730264Y-66908501D01*
X62790602Y-67054172D01*
X62790609Y-67054185D01*
X62878210Y-67185288D01*
X62878213Y-67185292D01*
X62989707Y-67296786D01*
X62989711Y-67296789D01*
X63120814Y-67384390D01*
X63120827Y-67384397D01*
X63241001Y-67434174D01*
X63266503Y-67444737D01*
X63421153Y-67475499D01*
X63421156Y-67475500D01*
X63421158Y-67475500D01*
X63578844Y-67475500D01*
X63578845Y-67475499D01*
X63733497Y-67444737D01*
X63879179Y-67384394D01*
X64010289Y-67296789D01*
X64121789Y-67185289D01*
X64209394Y-67054179D01*
X64269737Y-66908497D01*
X64300500Y-66753842D01*
X64300500Y-66596158D01*
X64300500Y-66596155D01*
X64300499Y-66596153D01*
X64285455Y-66520521D01*
X64269737Y-66441503D01*
X64246220Y-66384727D01*
X64209397Y-66295827D01*
X64209390Y-66295814D01*
X64144294Y-66198391D01*
X64123416Y-66131713D01*
X64141901Y-66064333D01*
X64193879Y-66017643D01*
X64247396Y-66005500D01*
X92765234Y-66005500D01*
X92832273Y-66025185D01*
X92834125Y-66026398D01*
X92965814Y-66114390D01*
X92965827Y-66114397D01*
X93094673Y-66167766D01*
X93111503Y-66174737D01*
X93230419Y-66198391D01*
X93266153Y-66205499D01*
X93266156Y-66205500D01*
X93266158Y-66205500D01*
X93423844Y-66205500D01*
X93423845Y-66205499D01*
X93578497Y-66174737D01*
X93711147Y-66119792D01*
X93724172Y-66114397D01*
X93724172Y-66114396D01*
X93724179Y-66114394D01*
X93855289Y-66026789D01*
X93966789Y-65915289D01*
X94054394Y-65784179D01*
X94114737Y-65638497D01*
X94145500Y-65483842D01*
X94145500Y-65326158D01*
X94145500Y-65326155D01*
X94145499Y-65326153D01*
X94116540Y-65180568D01*
X94114737Y-65171503D01*
X94074078Y-65073342D01*
X94054397Y-65025827D01*
X94054390Y-65025814D01*
X93966789Y-64894711D01*
X93966786Y-64894707D01*
X93855292Y-64783213D01*
X93855288Y-64783210D01*
X93724185Y-64695609D01*
X93724172Y-64695602D01*
X93578501Y-64635264D01*
X93578492Y-64635261D01*
X93533357Y-64626283D01*
X93471446Y-64593897D01*
X93436873Y-64533180D01*
X93440614Y-64463411D01*
X93442977Y-64457242D01*
X93479737Y-64368497D01*
X93510500Y-64213842D01*
X93510500Y-64056158D01*
X93510500Y-64056155D01*
X93510499Y-64056153D01*
X93507968Y-64043431D01*
X93479737Y-63901503D01*
X93479735Y-63901498D01*
X93419397Y-63755827D01*
X93419390Y-63755814D01*
X93406102Y-63735927D01*
X93363321Y-63671902D01*
X129869500Y-63671902D01*
X129869500Y-63908097D01*
X129906446Y-64141368D01*
X129979433Y-64365996D01*
X130067181Y-64538209D01*
X130086657Y-64576433D01*
X130225483Y-64767510D01*
X130392490Y-64934517D01*
X130583567Y-65073343D01*
X130682991Y-65124002D01*
X130794003Y-65180566D01*
X130794005Y-65180566D01*
X130794008Y-65180568D01*
X130914412Y-65219689D01*
X131018631Y-65253553D01*
X131251903Y-65290500D01*
X131251908Y-65290500D01*
X131488097Y-65290500D01*
X131721368Y-65253553D01*
X131945992Y-65180568D01*
X132156433Y-65073343D01*
X132347510Y-64934517D01*
X132514517Y-64767510D01*
X132653343Y-64576433D01*
X132760568Y-64365992D01*
X132833553Y-64141368D01*
X132834850Y-64133178D01*
X132870500Y-63908097D01*
X132870500Y-63671902D01*
X136369500Y-63671902D01*
X136369500Y-63908097D01*
X136406446Y-64141368D01*
X136479433Y-64365996D01*
X136567181Y-64538209D01*
X136586657Y-64576433D01*
X136725483Y-64767510D01*
X136892490Y-64934517D01*
X137083567Y-65073343D01*
X137182991Y-65124002D01*
X137294003Y-65180566D01*
X137294005Y-65180566D01*
X137294008Y-65180568D01*
X137414412Y-65219689D01*
X137518631Y-65253553D01*
X137751903Y-65290500D01*
X137751908Y-65290500D01*
X137988097Y-65290500D01*
X138221368Y-65253553D01*
X138445992Y-65180568D01*
X138656433Y-65073343D01*
X138847510Y-64934517D01*
X139014517Y-64767510D01*
X139153343Y-64576433D01*
X139260568Y-64365992D01*
X139333553Y-64141368D01*
X139334850Y-64133178D01*
X139370500Y-63908097D01*
X139370500Y-63671902D01*
X139333553Y-63438631D01*
X139260566Y-63214003D01*
X139153342Y-63003566D01*
X139014517Y-62812490D01*
X138847510Y-62645483D01*
X138656433Y-62506657D01*
X138445996Y-62399433D01*
X138221368Y-62326446D01*
X137988097Y-62289500D01*
X137988092Y-62289500D01*
X137751908Y-62289500D01*
X137751903Y-62289500D01*
X137518631Y-62326446D01*
X137294003Y-62399433D01*
X137083566Y-62506657D01*
X136974550Y-62585862D01*
X136892490Y-62645483D01*
X136892488Y-62645485D01*
X136892487Y-62645485D01*
X136725485Y-62812487D01*
X136725485Y-62812488D01*
X136725483Y-62812490D01*
X136665862Y-62894550D01*
X136586657Y-63003566D01*
X136479433Y-63214003D01*
X136406446Y-63438631D01*
X136369500Y-63671902D01*
X132870500Y-63671902D01*
X132833553Y-63438631D01*
X132760566Y-63214003D01*
X132653342Y-63003566D01*
X132514517Y-62812490D01*
X132347510Y-62645483D01*
X132156433Y-62506657D01*
X131945996Y-62399433D01*
X131721368Y-62326446D01*
X131488097Y-62289500D01*
X131488092Y-62289500D01*
X131251908Y-62289500D01*
X131251903Y-62289500D01*
X131018631Y-62326446D01*
X130794003Y-62399433D01*
X130583566Y-62506657D01*
X130474550Y-62585862D01*
X130392490Y-62645483D01*
X130392488Y-62645485D01*
X130392487Y-62645485D01*
X130225485Y-62812487D01*
X130225485Y-62812488D01*
X130225483Y-62812490D01*
X130165862Y-62894550D01*
X130086657Y-63003566D01*
X129979433Y-63214003D01*
X129906446Y-63438631D01*
X129869500Y-63671902D01*
X93363321Y-63671902D01*
X93331789Y-63624711D01*
X93331786Y-63624707D01*
X93220292Y-63513213D01*
X93220288Y-63513210D01*
X93089185Y-63425609D01*
X93089172Y-63425602D01*
X92943501Y-63365264D01*
X92943489Y-63365261D01*
X92788845Y-63334500D01*
X92788842Y-63334500D01*
X92631158Y-63334500D01*
X92631155Y-63334500D01*
X92476510Y-63365261D01*
X92476498Y-63365264D01*
X92330827Y-63425602D01*
X92330814Y-63425609D01*
X92199711Y-63513210D01*
X92199707Y-63513213D01*
X92088213Y-63624707D01*
X92088210Y-63624711D01*
X92000609Y-63755814D01*
X92000602Y-63755827D01*
X91940264Y-63901498D01*
X91940261Y-63901508D01*
X91909362Y-64056848D01*
X91900598Y-64073600D01*
X91896580Y-64092079D01*
X91877830Y-64117126D01*
X91876977Y-64118759D01*
X91875430Y-64120334D01*
X91862587Y-64133178D01*
X91801265Y-64166665D01*
X91774902Y-64169500D01*
X62785943Y-64169500D01*
X62633216Y-64210423D01*
X62633209Y-64210426D01*
X62496290Y-64289475D01*
X62496282Y-64289481D01*
X62384481Y-64401282D01*
X62384475Y-64401290D01*
X62305426Y-64538209D01*
X62305423Y-64538216D01*
X62264500Y-64690943D01*
X62264500Y-65953330D01*
X62264499Y-65953348D01*
X62264499Y-66119054D01*
X62264498Y-66119054D01*
X59119959Y-66119054D01*
X59127816Y-66115051D01*
X59249299Y-66026789D01*
X59299786Y-65990109D01*
X59299788Y-65990106D01*
X59299792Y-65990104D01*
X59450104Y-65839792D01*
X59450106Y-65839788D01*
X59450109Y-65839786D01*
X59575048Y-65667820D01*
X59575047Y-65667820D01*
X59575051Y-65667816D01*
X59671557Y-65478412D01*
X59737246Y-65276243D01*
X59770500Y-65066287D01*
X59770500Y-64853713D01*
X59737246Y-64643757D01*
X59671557Y-64441588D01*
X59575051Y-64252184D01*
X59575049Y-64252181D01*
X59575048Y-64252179D01*
X59450109Y-64080213D01*
X59299786Y-63929890D01*
X59127820Y-63804951D01*
X58938414Y-63708444D01*
X58938413Y-63708443D01*
X58938412Y-63708443D01*
X58736243Y-63642754D01*
X58736241Y-63642753D01*
X58736240Y-63642753D01*
X58574957Y-63617208D01*
X58526287Y-63609500D01*
X58313713Y-63609500D01*
X58265042Y-63617208D01*
X58103760Y-63642753D01*
X57901585Y-63708444D01*
X57712179Y-63804951D01*
X57540215Y-63929889D01*
X57426673Y-64043431D01*
X57365350Y-64076915D01*
X57295658Y-64071931D01*
X57239725Y-64030059D01*
X57222810Y-63999082D01*
X57173797Y-63867671D01*
X57173793Y-63867664D01*
X57087547Y-63752455D01*
X57087544Y-63752452D01*
X56972335Y-63666206D01*
X56972328Y-63666202D01*
X56837482Y-63615908D01*
X56837483Y-63615908D01*
X56777883Y-63609501D01*
X56777881Y-63609500D01*
X56777873Y-63609500D01*
X56777864Y-63609500D01*
X54982129Y-63609500D01*
X54982123Y-63609501D01*
X54922516Y-63615908D01*
X54787671Y-63666202D01*
X54787664Y-63666206D01*
X54672455Y-63752452D01*
X54672452Y-63752455D01*
X54586206Y-63867664D01*
X54586202Y-63867671D01*
X54535908Y-64002517D01*
X54529501Y-64062116D01*
X54529500Y-64062132D01*
X50500500Y-64062132D01*
X50500500Y-60246153D01*
X62699500Y-60246153D01*
X62699500Y-60403846D01*
X62730261Y-60558489D01*
X62730264Y-60558501D01*
X62790602Y-60704172D01*
X62790609Y-60704185D01*
X62878210Y-60835288D01*
X62878213Y-60835292D01*
X62915240Y-60872319D01*
X62948725Y-60933642D01*
X62943741Y-61003334D01*
X62915240Y-61047681D01*
X62878213Y-61084707D01*
X62878210Y-61084711D01*
X62790609Y-61215814D01*
X62790602Y-61215827D01*
X62730264Y-61361498D01*
X62730261Y-61361510D01*
X62699500Y-61516153D01*
X62699500Y-61673846D01*
X62730261Y-61828489D01*
X62730264Y-61828501D01*
X62790602Y-61974172D01*
X62790609Y-61974185D01*
X62878210Y-62105288D01*
X62878213Y-62105292D01*
X62989707Y-62216786D01*
X62989711Y-62216789D01*
X63120814Y-62304390D01*
X63120827Y-62304397D01*
X63266498Y-62364735D01*
X63266503Y-62364737D01*
X63421153Y-62395499D01*
X63421156Y-62395500D01*
X63421158Y-62395500D01*
X63578844Y-62395500D01*
X63578845Y-62395499D01*
X63733497Y-62364737D01*
X63879179Y-62304394D01*
X64010289Y-62216789D01*
X64121789Y-62105289D01*
X64209394Y-61974179D01*
X64269737Y-61828497D01*
X64300500Y-61673842D01*
X64300500Y-61673840D01*
X64300637Y-61673152D01*
X64309403Y-61656392D01*
X64313426Y-61637908D01*
X64332159Y-61612887D01*
X64333021Y-61611241D01*
X64334580Y-61609655D01*
X64347425Y-61596812D01*
X64408750Y-61563332D01*
X64435099Y-61560500D01*
X89234903Y-61560500D01*
X89301942Y-61580185D01*
X89322584Y-61596819D01*
X89335425Y-61609660D01*
X89368910Y-61670983D01*
X89369361Y-61673149D01*
X89400261Y-61828491D01*
X89400264Y-61828501D01*
X89460602Y-61974172D01*
X89460609Y-61974185D01*
X89548210Y-62105288D01*
X89548213Y-62105292D01*
X89659707Y-62216786D01*
X89659711Y-62216789D01*
X89790814Y-62304390D01*
X89790827Y-62304397D01*
X89936498Y-62364735D01*
X89936503Y-62364737D01*
X90091153Y-62395499D01*
X90091156Y-62395500D01*
X90091158Y-62395500D01*
X90248844Y-62395500D01*
X90248845Y-62395499D01*
X90403497Y-62364737D01*
X90549179Y-62304394D01*
X90680289Y-62216789D01*
X90791789Y-62105289D01*
X90879394Y-61974179D01*
X90939737Y-61828497D01*
X90970500Y-61673842D01*
X90970500Y-61516158D01*
X90970500Y-61516155D01*
X90970499Y-61516153D01*
X90939738Y-61361510D01*
X90939737Y-61361503D01*
X90902988Y-61272784D01*
X90895520Y-61203316D01*
X90926795Y-61140837D01*
X90986884Y-61105185D01*
X90993359Y-61103716D01*
X91012434Y-61099921D01*
X91038497Y-61094737D01*
X91184179Y-61034394D01*
X91315289Y-60946789D01*
X91426789Y-60835289D01*
X91514394Y-60704179D01*
X91574737Y-60558497D01*
X91605500Y-60403842D01*
X91605500Y-60246158D01*
X91605500Y-60246155D01*
X91605499Y-60246153D01*
X91574738Y-60091510D01*
X91574737Y-60091503D01*
X91574735Y-60091498D01*
X91514397Y-59945827D01*
X91514390Y-59945814D01*
X91426789Y-59814711D01*
X91426786Y-59814707D01*
X91315292Y-59703213D01*
X91315288Y-59703210D01*
X91184185Y-59615609D01*
X91184172Y-59615602D01*
X91038501Y-59555264D01*
X91038489Y-59555261D01*
X90883845Y-59524500D01*
X90883842Y-59524500D01*
X90726158Y-59524500D01*
X90726155Y-59524500D01*
X90571510Y-59555261D01*
X90571498Y-59555264D01*
X90425827Y-59615602D01*
X90425814Y-59615609D01*
X90294125Y-59703602D01*
X90227447Y-59724480D01*
X90225234Y-59724500D01*
X64079766Y-59724500D01*
X64012727Y-59704815D01*
X64010875Y-59703602D01*
X63879185Y-59615609D01*
X63879172Y-59615602D01*
X63733501Y-59555264D01*
X63733489Y-59555261D01*
X63578845Y-59524500D01*
X63578842Y-59524500D01*
X63421158Y-59524500D01*
X63421155Y-59524500D01*
X63266510Y-59555261D01*
X63266498Y-59555264D01*
X63120827Y-59615602D01*
X63120814Y-59615609D01*
X62989711Y-59703210D01*
X62989707Y-59703213D01*
X62878213Y-59814707D01*
X62878210Y-59814711D01*
X62790609Y-59945814D01*
X62790602Y-59945827D01*
X62730264Y-60091498D01*
X62730261Y-60091510D01*
X62699500Y-60246153D01*
X50500500Y-60246153D01*
X50500500Y-55002706D01*
X50500618Y-54997297D01*
X50508437Y-54818209D01*
X51299500Y-54818209D01*
X51299500Y-55181790D01*
X51335137Y-55543630D01*
X51406064Y-55900212D01*
X51406067Y-55900223D01*
X51511614Y-56248165D01*
X51650754Y-56584078D01*
X51650756Y-56584083D01*
X51822140Y-56904720D01*
X51822151Y-56904738D01*
X52024140Y-57207035D01*
X52024150Y-57207049D01*
X52254807Y-57488106D01*
X52511893Y-57745192D01*
X52511898Y-57745196D01*
X52511899Y-57745197D01*
X52792956Y-57975854D01*
X53095268Y-58177853D01*
X53095277Y-58177858D01*
X53095279Y-58177859D01*
X53415916Y-58349243D01*
X53415918Y-58349243D01*
X53415924Y-58349247D01*
X53751836Y-58488386D01*
X54099767Y-58593930D01*
X54099773Y-58593931D01*
X54099776Y-58593932D01*
X54099787Y-58593935D01*
X54456369Y-58664862D01*
X54818206Y-58700500D01*
X54818209Y-58700500D01*
X55181791Y-58700500D01*
X55181794Y-58700500D01*
X55543631Y-58664862D01*
X55613045Y-58651054D01*
X55900212Y-58593935D01*
X55900223Y-58593932D01*
X55900223Y-58593931D01*
X55900233Y-58593930D01*
X56248164Y-58488386D01*
X56584076Y-58349247D01*
X56904732Y-58177853D01*
X57207044Y-57975854D01*
X57488101Y-57745197D01*
X57745197Y-57488101D01*
X57975854Y-57207044D01*
X58177853Y-56904732D01*
X58349247Y-56584076D01*
X58488386Y-56248164D01*
X58593930Y-55900233D01*
X58593932Y-55900223D01*
X58593935Y-55900212D01*
X58664862Y-55543630D01*
X58700500Y-55181790D01*
X58700500Y-55137486D01*
X72789500Y-55137486D01*
X72789500Y-55322513D01*
X72818445Y-55505265D01*
X72875619Y-55681232D01*
X72875620Y-55681235D01*
X72954527Y-55836096D01*
X72959622Y-55846096D01*
X73068379Y-55995787D01*
X73199213Y-56126621D01*
X73348904Y-56235378D01*
X73429763Y-56276577D01*
X73513764Y-56319379D01*
X73513767Y-56319380D01*
X73601750Y-56347967D01*
X73689736Y-56376555D01*
X73872486Y-56405500D01*
X73872487Y-56405500D01*
X74057513Y-56405500D01*
X74057514Y-56405500D01*
X74240264Y-56376555D01*
X74416235Y-56319379D01*
X74581096Y-56235378D01*
X74730787Y-56126621D01*
X74861621Y-55995787D01*
X74970378Y-55846096D01*
X75054379Y-55681235D01*
X75111555Y-55505264D01*
X75140500Y-55322514D01*
X75140500Y-55137486D01*
X77639500Y-55137486D01*
X77639500Y-55322513D01*
X77668445Y-55505265D01*
X77725619Y-55681232D01*
X77725620Y-55681235D01*
X77804527Y-55836096D01*
X77809622Y-55846096D01*
X77918379Y-55995787D01*
X78049213Y-56126621D01*
X78198904Y-56235378D01*
X78279763Y-56276577D01*
X78363764Y-56319379D01*
X78363767Y-56319380D01*
X78451750Y-56347967D01*
X78539736Y-56376555D01*
X78722486Y-56405500D01*
X78722487Y-56405500D01*
X78907513Y-56405500D01*
X78907514Y-56405500D01*
X79090264Y-56376555D01*
X79266235Y-56319379D01*
X79431096Y-56235378D01*
X79580787Y-56126621D01*
X79711621Y-55995787D01*
X79820378Y-55846096D01*
X79904379Y-55681235D01*
X79961555Y-55505264D01*
X79990500Y-55322514D01*
X79990500Y-55137486D01*
X79988916Y-55127486D01*
X110289500Y-55127486D01*
X110289500Y-55312513D01*
X110318445Y-55495265D01*
X110375619Y-55671232D01*
X110375620Y-55671235D01*
X110459622Y-55836096D01*
X110568379Y-55985787D01*
X110699213Y-56116621D01*
X110848904Y-56225378D01*
X110893624Y-56248164D01*
X111013764Y-56309379D01*
X111013767Y-56309380D01*
X111101750Y-56337967D01*
X111189736Y-56366555D01*
X111372486Y-56395500D01*
X111372487Y-56395500D01*
X111557513Y-56395500D01*
X111557514Y-56395500D01*
X111740264Y-56366555D01*
X111916235Y-56309379D01*
X112081096Y-56225378D01*
X112230787Y-56116621D01*
X112361621Y-55985787D01*
X112470378Y-55836096D01*
X112554379Y-55671235D01*
X112611555Y-55495264D01*
X112640500Y-55312514D01*
X112640500Y-55127486D01*
X115139500Y-55127486D01*
X115139500Y-55312513D01*
X115168445Y-55495265D01*
X115225619Y-55671232D01*
X115225620Y-55671235D01*
X115309622Y-55836096D01*
X115418379Y-55985787D01*
X115549213Y-56116621D01*
X115698904Y-56225378D01*
X115743624Y-56248164D01*
X115863764Y-56309379D01*
X115863767Y-56309380D01*
X115951750Y-56337967D01*
X116039736Y-56366555D01*
X116222486Y-56395500D01*
X116222487Y-56395500D01*
X116407513Y-56395500D01*
X116407514Y-56395500D01*
X116590264Y-56366555D01*
X116766235Y-56309379D01*
X116931096Y-56225378D01*
X117080787Y-56116621D01*
X117211621Y-55985787D01*
X117320378Y-55836096D01*
X117404379Y-55671235D01*
X117461555Y-55495264D01*
X117490500Y-55312514D01*
X117490500Y-55127486D01*
X117461555Y-54944736D01*
X117458102Y-54934108D01*
X117431905Y-54853479D01*
X117420445Y-54818209D01*
X136299500Y-54818209D01*
X136299500Y-55181790D01*
X136335137Y-55543630D01*
X136406064Y-55900212D01*
X136406067Y-55900223D01*
X136511614Y-56248165D01*
X136650754Y-56584078D01*
X136650756Y-56584083D01*
X136822140Y-56904720D01*
X136822151Y-56904738D01*
X137024140Y-57207035D01*
X137024150Y-57207049D01*
X137254807Y-57488106D01*
X137511893Y-57745192D01*
X137511898Y-57745196D01*
X137511899Y-57745197D01*
X137792956Y-57975854D01*
X138095268Y-58177853D01*
X138095277Y-58177858D01*
X138095279Y-58177859D01*
X138415916Y-58349243D01*
X138415918Y-58349243D01*
X138415924Y-58349247D01*
X138751836Y-58488386D01*
X139099767Y-58593930D01*
X139099773Y-58593931D01*
X139099776Y-58593932D01*
X139099787Y-58593935D01*
X139456369Y-58664862D01*
X139818206Y-58700500D01*
X139818209Y-58700500D01*
X140181791Y-58700500D01*
X140181794Y-58700500D01*
X140543631Y-58664862D01*
X140613045Y-58651054D01*
X140900212Y-58593935D01*
X140900223Y-58593932D01*
X140900223Y-58593931D01*
X140900233Y-58593930D01*
X141248164Y-58488386D01*
X141584076Y-58349247D01*
X141904732Y-58177853D01*
X142207044Y-57975854D01*
X142488101Y-57745197D01*
X142745197Y-57488101D01*
X142975854Y-57207044D01*
X143177853Y-56904732D01*
X143349247Y-56584076D01*
X143488386Y-56248164D01*
X143593930Y-55900233D01*
X143593932Y-55900223D01*
X143593935Y-55900212D01*
X143664862Y-55543630D01*
X143700500Y-55181790D01*
X143700500Y-54818209D01*
X143696615Y-54778767D01*
X143664862Y-54456369D01*
X143664433Y-54454210D01*
X143593935Y-54099787D01*
X143593932Y-54099776D01*
X143593931Y-54099773D01*
X143593930Y-54099767D01*
X143488386Y-53751836D01*
X143349247Y-53415924D01*
X143177853Y-53095268D01*
X142975854Y-52792956D01*
X142745197Y-52511899D01*
X142745196Y-52511898D01*
X142745192Y-52511893D01*
X142488106Y-52254807D01*
X142207049Y-52024150D01*
X142207048Y-52024149D01*
X142207044Y-52024146D01*
X141904732Y-51822147D01*
X141904727Y-51822144D01*
X141904720Y-51822140D01*
X141584083Y-51650756D01*
X141584078Y-51650754D01*
X141248165Y-51511614D01*
X140900223Y-51406067D01*
X140900212Y-51406064D01*
X140543630Y-51335137D01*
X140271111Y-51308296D01*
X140181794Y-51299500D01*
X139818206Y-51299500D01*
X139735679Y-51307628D01*
X139456369Y-51335137D01*
X139099787Y-51406064D01*
X139099776Y-51406067D01*
X138751834Y-51511614D01*
X138415921Y-51650754D01*
X138415916Y-51650756D01*
X138095279Y-51822140D01*
X138095261Y-51822151D01*
X137792964Y-52024140D01*
X137792950Y-52024150D01*
X137511893Y-52254807D01*
X137254807Y-52511893D01*
X137024150Y-52792950D01*
X137024140Y-52792964D01*
X136822151Y-53095261D01*
X136822140Y-53095279D01*
X136650756Y-53415916D01*
X136650754Y-53415921D01*
X136511614Y-53751834D01*
X136406067Y-54099776D01*
X136406064Y-54099787D01*
X136335137Y-54456369D01*
X136319622Y-54613903D01*
X136303385Y-54778767D01*
X136299500Y-54818209D01*
X117420445Y-54818209D01*
X117404380Y-54768767D01*
X117404379Y-54768764D01*
X117325473Y-54613904D01*
X117320378Y-54603904D01*
X117211621Y-54454213D01*
X117080787Y-54323379D01*
X116931096Y-54214622D01*
X116928678Y-54213390D01*
X116766235Y-54130620D01*
X116766232Y-54130619D01*
X116590265Y-54073445D01*
X116470651Y-54054500D01*
X116407514Y-54044500D01*
X116222486Y-54044500D01*
X116161569Y-54054148D01*
X116039734Y-54073445D01*
X115863767Y-54130619D01*
X115863764Y-54130620D01*
X115698903Y-54214622D01*
X115613499Y-54276672D01*
X115549213Y-54323379D01*
X115549211Y-54323381D01*
X115549210Y-54323381D01*
X115418381Y-54454210D01*
X115418381Y-54454211D01*
X115418379Y-54454213D01*
X115416813Y-54456369D01*
X115309622Y-54603903D01*
X115225620Y-54768764D01*
X115225619Y-54768767D01*
X115168445Y-54944734D01*
X115139500Y-55127486D01*
X112640500Y-55127486D01*
X112611555Y-54944736D01*
X112567697Y-54809753D01*
X112554380Y-54768767D01*
X112554379Y-54768764D01*
X112475473Y-54613904D01*
X112470378Y-54603904D01*
X112361621Y-54454213D01*
X112230787Y-54323379D01*
X112081096Y-54214622D01*
X112078678Y-54213390D01*
X111916235Y-54130620D01*
X111916232Y-54130619D01*
X111740265Y-54073445D01*
X111620651Y-54054500D01*
X111557514Y-54044500D01*
X111372486Y-54044500D01*
X111311569Y-54054148D01*
X111189734Y-54073445D01*
X111013767Y-54130619D01*
X111013764Y-54130620D01*
X110848903Y-54214622D01*
X110763499Y-54276672D01*
X110699213Y-54323379D01*
X110699211Y-54323381D01*
X110699210Y-54323381D01*
X110568381Y-54454210D01*
X110568381Y-54454211D01*
X110568379Y-54454213D01*
X110566813Y-54456369D01*
X110459622Y-54603903D01*
X110375620Y-54768764D01*
X110375619Y-54768767D01*
X110318445Y-54944734D01*
X110289500Y-55127486D01*
X79988916Y-55127486D01*
X79961555Y-54954736D01*
X79904379Y-54778765D01*
X79904379Y-54778764D01*
X79820377Y-54613903D01*
X79815974Y-54607843D01*
X79711621Y-54464213D01*
X79580787Y-54333379D01*
X79431096Y-54224622D01*
X79409052Y-54213390D01*
X79266235Y-54140620D01*
X79266232Y-54140619D01*
X79090265Y-54083445D01*
X78998889Y-54068972D01*
X78907514Y-54054500D01*
X78722486Y-54054500D01*
X78661569Y-54064148D01*
X78539734Y-54083445D01*
X78363767Y-54140619D01*
X78363764Y-54140620D01*
X78198903Y-54224622D01*
X78113499Y-54286672D01*
X78049213Y-54333379D01*
X78049211Y-54333381D01*
X78049210Y-54333381D01*
X77918381Y-54464210D01*
X77918381Y-54464211D01*
X77918379Y-54464213D01*
X77871672Y-54528499D01*
X77809622Y-54613903D01*
X77725620Y-54778764D01*
X77725619Y-54778767D01*
X77668445Y-54954734D01*
X77639500Y-55137486D01*
X75140500Y-55137486D01*
X75111555Y-54954736D01*
X75054379Y-54778765D01*
X75054379Y-54778764D01*
X74970377Y-54613903D01*
X74965974Y-54607843D01*
X74861621Y-54464213D01*
X74730787Y-54333379D01*
X74581096Y-54224622D01*
X74559052Y-54213390D01*
X74416235Y-54140620D01*
X74416232Y-54140619D01*
X74240265Y-54083445D01*
X74148889Y-54068972D01*
X74057514Y-54054500D01*
X73872486Y-54054500D01*
X73811569Y-54064148D01*
X73689734Y-54083445D01*
X73513767Y-54140619D01*
X73513764Y-54140620D01*
X73348903Y-54224622D01*
X73263499Y-54286672D01*
X73199213Y-54333379D01*
X73199211Y-54333381D01*
X73199210Y-54333381D01*
X73068381Y-54464210D01*
X73068381Y-54464211D01*
X73068379Y-54464213D01*
X73021672Y-54528499D01*
X72959622Y-54613903D01*
X72875620Y-54778764D01*
X72875619Y-54778767D01*
X72818445Y-54954734D01*
X72789500Y-55137486D01*
X58700500Y-55137486D01*
X58700500Y-54818209D01*
X58696615Y-54778767D01*
X58664862Y-54456369D01*
X58664433Y-54454210D01*
X58593935Y-54099787D01*
X58593932Y-54099776D01*
X58593931Y-54099773D01*
X58593930Y-54099767D01*
X58488386Y-53751836D01*
X58349247Y-53415924D01*
X58177853Y-53095268D01*
X57975854Y-52792956D01*
X57745197Y-52511899D01*
X57745196Y-52511898D01*
X57745192Y-52511893D01*
X57488106Y-52254807D01*
X57402673Y-52184694D01*
X57291812Y-52093713D01*
X72314500Y-52093713D01*
X72314500Y-52306286D01*
X72346169Y-52506239D01*
X72347754Y-52516243D01*
X72410194Y-52708414D01*
X72413444Y-52718414D01*
X72509951Y-52907820D01*
X72634890Y-53079786D01*
X72785213Y-53230109D01*
X72957179Y-53355048D01*
X72957181Y-53355049D01*
X72957184Y-53355051D01*
X73146588Y-53451557D01*
X73348757Y-53517246D01*
X73558713Y-53550500D01*
X73558714Y-53550500D01*
X73771286Y-53550500D01*
X73771287Y-53550500D01*
X73981243Y-53517246D01*
X74183412Y-53451557D01*
X74372816Y-53355051D01*
X74394789Y-53339086D01*
X74544786Y-53230109D01*
X74544788Y-53230106D01*
X74544792Y-53230104D01*
X74695104Y-53079792D01*
X74695106Y-53079788D01*
X74695109Y-53079786D01*
X74820048Y-52907820D01*
X74820047Y-52907820D01*
X74820051Y-52907816D01*
X74916557Y-52718412D01*
X74982246Y-52516243D01*
X75015500Y-52306287D01*
X75015500Y-52093713D01*
X77764500Y-52093713D01*
X77764500Y-52306286D01*
X77796169Y-52506239D01*
X77797754Y-52516243D01*
X77860194Y-52708414D01*
X77863444Y-52718414D01*
X77959951Y-52907820D01*
X78084890Y-53079786D01*
X78235213Y-53230109D01*
X78407179Y-53355048D01*
X78407181Y-53355049D01*
X78407184Y-53355051D01*
X78596588Y-53451557D01*
X78798757Y-53517246D01*
X79008713Y-53550500D01*
X79008714Y-53550500D01*
X79221286Y-53550500D01*
X79221287Y-53550500D01*
X79431243Y-53517246D01*
X79633412Y-53451557D01*
X79822816Y-53355051D01*
X79844789Y-53339086D01*
X79994786Y-53230109D01*
X79994788Y-53230106D01*
X79994792Y-53230104D01*
X80145104Y-53079792D01*
X80145106Y-53079788D01*
X80145109Y-53079786D01*
X80270048Y-52907820D01*
X80270047Y-52907820D01*
X80270051Y-52907816D01*
X80366557Y-52718412D01*
X80432246Y-52516243D01*
X80465500Y-52306287D01*
X80465500Y-52093713D01*
X80463916Y-52083713D01*
X109814500Y-52083713D01*
X109814500Y-52296286D01*
X109833966Y-52419193D01*
X109847754Y-52506243D01*
X109851003Y-52516243D01*
X109913444Y-52708414D01*
X110009951Y-52897820D01*
X110134890Y-53069786D01*
X110285213Y-53220109D01*
X110457179Y-53345048D01*
X110457181Y-53345049D01*
X110457184Y-53345051D01*
X110646588Y-53441557D01*
X110848757Y-53507246D01*
X111058713Y-53540500D01*
X111058714Y-53540500D01*
X111271286Y-53540500D01*
X111271287Y-53540500D01*
X111481243Y-53507246D01*
X111683412Y-53441557D01*
X111872816Y-53345051D01*
X111894789Y-53329086D01*
X112044786Y-53220109D01*
X112044788Y-53220106D01*
X112044792Y-53220104D01*
X112195104Y-53069792D01*
X112195106Y-53069788D01*
X112195109Y-53069786D01*
X112320048Y-52897820D01*
X112320047Y-52897820D01*
X112320051Y-52897816D01*
X112416557Y-52708412D01*
X112482246Y-52506243D01*
X112515500Y-52296287D01*
X112515500Y-52083713D01*
X115264500Y-52083713D01*
X115264500Y-52296286D01*
X115283966Y-52419193D01*
X115297754Y-52506243D01*
X115301003Y-52516243D01*
X115363444Y-52708414D01*
X115459951Y-52897820D01*
X115584890Y-53069786D01*
X115735213Y-53220109D01*
X115907179Y-53345048D01*
X115907181Y-53345049D01*
X115907184Y-53345051D01*
X116096588Y-53441557D01*
X116298757Y-53507246D01*
X116508713Y-53540500D01*
X116508714Y-53540500D01*
X116721286Y-53540500D01*
X116721287Y-53540500D01*
X116931243Y-53507246D01*
X117133412Y-53441557D01*
X117322816Y-53345051D01*
X117344789Y-53329086D01*
X117494786Y-53220109D01*
X117494788Y-53220106D01*
X117494792Y-53220104D01*
X117645104Y-53069792D01*
X117645106Y-53069788D01*
X117645109Y-53069786D01*
X117770048Y-52897820D01*
X117770047Y-52897820D01*
X117770051Y-52897816D01*
X117866557Y-52708412D01*
X117932246Y-52506243D01*
X117965500Y-52296287D01*
X117965500Y-52083713D01*
X117932246Y-51873757D01*
X117866557Y-51671588D01*
X117770051Y-51482184D01*
X117770049Y-51482181D01*
X117770048Y-51482179D01*
X117645109Y-51310213D01*
X117494786Y-51159890D01*
X117322820Y-51034951D01*
X117133414Y-50938444D01*
X117133413Y-50938443D01*
X117133412Y-50938443D01*
X116931243Y-50872754D01*
X116931241Y-50872753D01*
X116931240Y-50872753D01*
X116769957Y-50847208D01*
X116721287Y-50839500D01*
X116508713Y-50839500D01*
X116460042Y-50847208D01*
X116298760Y-50872753D01*
X116096585Y-50938444D01*
X115907179Y-51034951D01*
X115735213Y-51159890D01*
X115584890Y-51310213D01*
X115459951Y-51482179D01*
X115363444Y-51671585D01*
X115297753Y-51873760D01*
X115264500Y-52083713D01*
X112515500Y-52083713D01*
X112482246Y-51873757D01*
X112416557Y-51671588D01*
X112320051Y-51482184D01*
X112320049Y-51482181D01*
X112320048Y-51482179D01*
X112195109Y-51310213D01*
X112044786Y-51159890D01*
X111872820Y-51034951D01*
X111683414Y-50938444D01*
X111683413Y-50938443D01*
X111683412Y-50938443D01*
X111481243Y-50872754D01*
X111481241Y-50872753D01*
X111481240Y-50872753D01*
X111319957Y-50847208D01*
X111271287Y-50839500D01*
X111058713Y-50839500D01*
X111010042Y-50847208D01*
X110848760Y-50872753D01*
X110646585Y-50938444D01*
X110457179Y-51034951D01*
X110285213Y-51159890D01*
X110134890Y-51310213D01*
X110009951Y-51482179D01*
X109913444Y-51671585D01*
X109847753Y-51873760D01*
X109814500Y-52083713D01*
X80463916Y-52083713D01*
X80432246Y-51883757D01*
X80366557Y-51681588D01*
X80270051Y-51492184D01*
X80270049Y-51492181D01*
X80270048Y-51492179D01*
X80145109Y-51320213D01*
X79994786Y-51169890D01*
X79822820Y-51044951D01*
X79633414Y-50948444D01*
X79633413Y-50948443D01*
X79633412Y-50948443D01*
X79431243Y-50882754D01*
X79431241Y-50882753D01*
X79431240Y-50882753D01*
X79269957Y-50857208D01*
X79221287Y-50849500D01*
X79008713Y-50849500D01*
X78960042Y-50857208D01*
X78798760Y-50882753D01*
X78596585Y-50948444D01*
X78407179Y-51044951D01*
X78235213Y-51169890D01*
X78084890Y-51320213D01*
X77959951Y-51492179D01*
X77863444Y-51681585D01*
X77797753Y-51883760D01*
X77764500Y-52093713D01*
X75015500Y-52093713D01*
X74982246Y-51883757D01*
X74916557Y-51681588D01*
X74820051Y-51492184D01*
X74820049Y-51492181D01*
X74820048Y-51492179D01*
X74695109Y-51320213D01*
X74544786Y-51169890D01*
X74372820Y-51044951D01*
X74183414Y-50948444D01*
X74183413Y-50948443D01*
X74183412Y-50948443D01*
X73981243Y-50882754D01*
X73981241Y-50882753D01*
X73981240Y-50882753D01*
X73819957Y-50857208D01*
X73771287Y-50849500D01*
X73558713Y-50849500D01*
X73510042Y-50857208D01*
X73348760Y-50882753D01*
X73146585Y-50948444D01*
X72957179Y-51044951D01*
X72785213Y-51169890D01*
X72634890Y-51320213D01*
X72509951Y-51492179D01*
X72413444Y-51681585D01*
X72347753Y-51883760D01*
X72314500Y-52093713D01*
X57291812Y-52093713D01*
X57207049Y-52024150D01*
X57207048Y-52024149D01*
X57207044Y-52024146D01*
X56904732Y-51822147D01*
X56904727Y-51822144D01*
X56904720Y-51822140D01*
X56584083Y-51650756D01*
X56584078Y-51650754D01*
X56248165Y-51511614D01*
X55900223Y-51406067D01*
X55900212Y-51406064D01*
X55543630Y-51335137D01*
X55271111Y-51308296D01*
X55181794Y-51299500D01*
X54818206Y-51299500D01*
X54735679Y-51307628D01*
X54456369Y-51335137D01*
X54099787Y-51406064D01*
X54099776Y-51406067D01*
X53751834Y-51511614D01*
X53415921Y-51650754D01*
X53415916Y-51650756D01*
X53095279Y-51822140D01*
X53095261Y-51822151D01*
X52792964Y-52024140D01*
X52792950Y-52024150D01*
X52511893Y-52254807D01*
X52254807Y-52511893D01*
X52024150Y-52792950D01*
X52024140Y-52792964D01*
X51822151Y-53095261D01*
X51822140Y-53095279D01*
X51650756Y-53415916D01*
X51650754Y-53415921D01*
X51511614Y-53751834D01*
X51406067Y-54099776D01*
X51406064Y-54099787D01*
X51335137Y-54456369D01*
X51319622Y-54613903D01*
X51303385Y-54778767D01*
X51299500Y-54818209D01*
X50508437Y-54818209D01*
X50508806Y-54809753D01*
X50508806Y-54809752D01*
X50510159Y-54778764D01*
X50517386Y-54613226D01*
X50518325Y-54602496D01*
X50568151Y-54224032D01*
X50570024Y-54213402D01*
X50652648Y-53840714D01*
X50655446Y-53830276D01*
X50680178Y-53751836D01*
X50770230Y-53466227D01*
X50773917Y-53456095D01*
X50920003Y-53103412D01*
X50924561Y-53093638D01*
X51100822Y-52755045D01*
X51106217Y-52745700D01*
X51311325Y-52423744D01*
X51317515Y-52414905D01*
X51549896Y-52112060D01*
X51556834Y-52103791D01*
X51814726Y-51822352D01*
X51822352Y-51814726D01*
X52103791Y-51556834D01*
X52112060Y-51549896D01*
X52414905Y-51317515D01*
X52423744Y-51311325D01*
X52745700Y-51106217D01*
X52755045Y-51100822D01*
X53093638Y-50924561D01*
X53103412Y-50920003D01*
X53456095Y-50773917D01*
X53466227Y-50770230D01*
X53830285Y-50655443D01*
X53840714Y-50652648D01*
X54213402Y-50570024D01*
X54224032Y-50568151D01*
X54602496Y-50518325D01*
X54613224Y-50517387D01*
X54997297Y-50500617D01*
X55002706Y-50500500D01*
X55065892Y-50500500D01*
X139934108Y-50500500D01*
X139997294Y-50500500D01*
X140002702Y-50500617D01*
G37*
%TD.AperFunction*%
%TD*%
M02*
