%TF.GenerationSoftware,KiCad,Pcbnew,10.0.3*%
%TF.CreationDate,2026-06-08T14:02:18+01:00*%
%TF.ProjectId,pico_debug,7069636f-5f64-4656-9275-672e6b696361,rev?*%
%TF.SameCoordinates,Original*%
%TF.FileFunction,Legend,Top*%
%TF.FilePolarity,Positive*%
%FSLAX46Y46*%
G04 Gerber Fmt 4.6, Leading zero omitted, Abs format (unit mm)*
G04 Created by KiCad (PCBNEW 10.0.3) date 2026-06-08 14:02:18*
%MOMM*%
%LPD*%
G01*
G04 APERTURE LIST*
%ADD10C,0.100000*%
%ADD11C,0.150000*%
%ADD12C,0.120000*%
G04 APERTURE END LIST*
D10*
X51675312Y-64547180D02*
X51627693Y-64594800D01*
X51627693Y-64594800D02*
X51484836Y-64642419D01*
X51484836Y-64642419D02*
X51389598Y-64642419D01*
X51389598Y-64642419D02*
X51246741Y-64594800D01*
X51246741Y-64594800D02*
X51151503Y-64499561D01*
X51151503Y-64499561D02*
X51103884Y-64404323D01*
X51103884Y-64404323D02*
X51056265Y-64213847D01*
X51056265Y-64213847D02*
X51056265Y-64070990D01*
X51056265Y-64070990D02*
X51103884Y-63880514D01*
X51103884Y-63880514D02*
X51151503Y-63785276D01*
X51151503Y-63785276D02*
X51246741Y-63690038D01*
X51246741Y-63690038D02*
X51389598Y-63642419D01*
X51389598Y-63642419D02*
X51484836Y-63642419D01*
X51484836Y-63642419D02*
X51627693Y-63690038D01*
X51627693Y-63690038D02*
X51675312Y-63737657D01*
X52580074Y-64642419D02*
X52103884Y-64642419D01*
X52103884Y-64642419D02*
X52103884Y-63642419D01*
X52913408Y-64642419D02*
X52913408Y-63642419D01*
X53484836Y-64642419D02*
X53056265Y-64070990D01*
X53484836Y-63642419D02*
X52913408Y-64213847D01*
X52373884Y-71292419D02*
X52373884Y-70292419D01*
X53040550Y-70292419D02*
X53231026Y-70292419D01*
X53231026Y-70292419D02*
X53326264Y-70340038D01*
X53326264Y-70340038D02*
X53421502Y-70435276D01*
X53421502Y-70435276D02*
X53469121Y-70625752D01*
X53469121Y-70625752D02*
X53469121Y-70959085D01*
X53469121Y-70959085D02*
X53421502Y-71149561D01*
X53421502Y-71149561D02*
X53326264Y-71244800D01*
X53326264Y-71244800D02*
X53231026Y-71292419D01*
X53231026Y-71292419D02*
X53040550Y-71292419D01*
X53040550Y-71292419D02*
X52945312Y-71244800D01*
X52945312Y-71244800D02*
X52850074Y-71149561D01*
X52850074Y-71149561D02*
X52802455Y-70959085D01*
X52802455Y-70959085D02*
X52802455Y-70625752D01*
X52802455Y-70625752D02*
X52850074Y-70435276D01*
X52850074Y-70435276D02*
X52945312Y-70340038D01*
X52945312Y-70340038D02*
X53040550Y-70292419D01*
X61121027Y-63642419D02*
X61692455Y-63642419D01*
X61406741Y-64642419D02*
X61406741Y-63642419D01*
X61930551Y-63642419D02*
X62597217Y-64642419D01*
X62597217Y-63642419D02*
X61930551Y-64642419D01*
X61835312Y-71292419D02*
X61501979Y-70816228D01*
X61263884Y-71292419D02*
X61263884Y-70292419D01*
X61263884Y-70292419D02*
X61644836Y-70292419D01*
X61644836Y-70292419D02*
X61740074Y-70340038D01*
X61740074Y-70340038D02*
X61787693Y-70387657D01*
X61787693Y-70387657D02*
X61835312Y-70482895D01*
X61835312Y-70482895D02*
X61835312Y-70625752D01*
X61835312Y-70625752D02*
X61787693Y-70720990D01*
X61787693Y-70720990D02*
X61740074Y-70768609D01*
X61740074Y-70768609D02*
X61644836Y-70816228D01*
X61644836Y-70816228D02*
X61263884Y-70816228D01*
X62168646Y-70292419D02*
X62835312Y-71292419D01*
X62835312Y-70292419D02*
X62168646Y-71292419D01*
X128573884Y-91235864D02*
X128573884Y-92235864D01*
X128573884Y-91283483D02*
X128669122Y-91235864D01*
X128669122Y-91235864D02*
X128859598Y-91235864D01*
X128859598Y-91235864D02*
X128954836Y-91283483D01*
X128954836Y-91283483D02*
X129002455Y-91331102D01*
X129002455Y-91331102D02*
X129050074Y-91426340D01*
X129050074Y-91426340D02*
X129050074Y-91712054D01*
X129050074Y-91712054D02*
X129002455Y-91807292D01*
X129002455Y-91807292D02*
X128954836Y-91854912D01*
X128954836Y-91854912D02*
X128859598Y-91902531D01*
X128859598Y-91902531D02*
X128669122Y-91902531D01*
X128669122Y-91902531D02*
X128573884Y-91854912D01*
X129478646Y-91902531D02*
X129478646Y-91235864D01*
X129478646Y-90902531D02*
X129431027Y-90950150D01*
X129431027Y-90950150D02*
X129478646Y-90997769D01*
X129478646Y-90997769D02*
X129526265Y-90950150D01*
X129526265Y-90950150D02*
X129478646Y-90902531D01*
X129478646Y-90902531D02*
X129478646Y-90997769D01*
X130383407Y-91854912D02*
X130288169Y-91902531D01*
X130288169Y-91902531D02*
X130097693Y-91902531D01*
X130097693Y-91902531D02*
X130002455Y-91854912D01*
X130002455Y-91854912D02*
X129954836Y-91807292D01*
X129954836Y-91807292D02*
X129907217Y-91712054D01*
X129907217Y-91712054D02*
X129907217Y-91426340D01*
X129907217Y-91426340D02*
X129954836Y-91331102D01*
X129954836Y-91331102D02*
X130002455Y-91283483D01*
X130002455Y-91283483D02*
X130097693Y-91235864D01*
X130097693Y-91235864D02*
X130288169Y-91235864D01*
X130288169Y-91235864D02*
X130383407Y-91283483D01*
X130954836Y-91902531D02*
X130859598Y-91854912D01*
X130859598Y-91854912D02*
X130811979Y-91807292D01*
X130811979Y-91807292D02*
X130764360Y-91712054D01*
X130764360Y-91712054D02*
X130764360Y-91426340D01*
X130764360Y-91426340D02*
X130811979Y-91331102D01*
X130811979Y-91331102D02*
X130859598Y-91283483D01*
X130859598Y-91283483D02*
X130954836Y-91235864D01*
X130954836Y-91235864D02*
X131097693Y-91235864D01*
X131097693Y-91235864D02*
X131192931Y-91283483D01*
X131192931Y-91283483D02*
X131240550Y-91331102D01*
X131240550Y-91331102D02*
X131288169Y-91426340D01*
X131288169Y-91426340D02*
X131288169Y-91712054D01*
X131288169Y-91712054D02*
X131240550Y-91807292D01*
X131240550Y-91807292D02*
X131192931Y-91854912D01*
X131192931Y-91854912D02*
X131097693Y-91902531D01*
X131097693Y-91902531D02*
X130954836Y-91902531D01*
X131478646Y-91997769D02*
X132240550Y-91997769D01*
X132907217Y-91902531D02*
X132907217Y-90902531D01*
X132907217Y-91854912D02*
X132811979Y-91902531D01*
X132811979Y-91902531D02*
X132621503Y-91902531D01*
X132621503Y-91902531D02*
X132526265Y-91854912D01*
X132526265Y-91854912D02*
X132478646Y-91807292D01*
X132478646Y-91807292D02*
X132431027Y-91712054D01*
X132431027Y-91712054D02*
X132431027Y-91426340D01*
X132431027Y-91426340D02*
X132478646Y-91331102D01*
X132478646Y-91331102D02*
X132526265Y-91283483D01*
X132526265Y-91283483D02*
X132621503Y-91235864D01*
X132621503Y-91235864D02*
X132811979Y-91235864D01*
X132811979Y-91235864D02*
X132907217Y-91283483D01*
X133764360Y-91854912D02*
X133669122Y-91902531D01*
X133669122Y-91902531D02*
X133478646Y-91902531D01*
X133478646Y-91902531D02*
X133383408Y-91854912D01*
X133383408Y-91854912D02*
X133335789Y-91759673D01*
X133335789Y-91759673D02*
X133335789Y-91378721D01*
X133335789Y-91378721D02*
X133383408Y-91283483D01*
X133383408Y-91283483D02*
X133478646Y-91235864D01*
X133478646Y-91235864D02*
X133669122Y-91235864D01*
X133669122Y-91235864D02*
X133764360Y-91283483D01*
X133764360Y-91283483D02*
X133811979Y-91378721D01*
X133811979Y-91378721D02*
X133811979Y-91473959D01*
X133811979Y-91473959D02*
X133335789Y-91569197D01*
X134240551Y-91902531D02*
X134240551Y-90902531D01*
X134240551Y-91283483D02*
X134335789Y-91235864D01*
X134335789Y-91235864D02*
X134526265Y-91235864D01*
X134526265Y-91235864D02*
X134621503Y-91283483D01*
X134621503Y-91283483D02*
X134669122Y-91331102D01*
X134669122Y-91331102D02*
X134716741Y-91426340D01*
X134716741Y-91426340D02*
X134716741Y-91712054D01*
X134716741Y-91712054D02*
X134669122Y-91807292D01*
X134669122Y-91807292D02*
X134621503Y-91854912D01*
X134621503Y-91854912D02*
X134526265Y-91902531D01*
X134526265Y-91902531D02*
X134335789Y-91902531D01*
X134335789Y-91902531D02*
X134240551Y-91854912D01*
X135573884Y-91235864D02*
X135573884Y-91902531D01*
X135145313Y-91235864D02*
X135145313Y-91759673D01*
X135145313Y-91759673D02*
X135192932Y-91854912D01*
X135192932Y-91854912D02*
X135288170Y-91902531D01*
X135288170Y-91902531D02*
X135431027Y-91902531D01*
X135431027Y-91902531D02*
X135526265Y-91854912D01*
X135526265Y-91854912D02*
X135573884Y-91807292D01*
X136478646Y-91235864D02*
X136478646Y-92045388D01*
X136478646Y-92045388D02*
X136431027Y-92140626D01*
X136431027Y-92140626D02*
X136383408Y-92188245D01*
X136383408Y-92188245D02*
X136288170Y-92235864D01*
X136288170Y-92235864D02*
X136145313Y-92235864D01*
X136145313Y-92235864D02*
X136050075Y-92188245D01*
X136478646Y-91854912D02*
X136383408Y-91902531D01*
X136383408Y-91902531D02*
X136192932Y-91902531D01*
X136192932Y-91902531D02*
X136097694Y-91854912D01*
X136097694Y-91854912D02*
X136050075Y-91807292D01*
X136050075Y-91807292D02*
X136002456Y-91712054D01*
X136002456Y-91712054D02*
X136002456Y-91426340D01*
X136002456Y-91426340D02*
X136050075Y-91331102D01*
X136050075Y-91331102D02*
X136097694Y-91283483D01*
X136097694Y-91283483D02*
X136192932Y-91235864D01*
X136192932Y-91235864D02*
X136383408Y-91235864D01*
X136383408Y-91235864D02*
X136478646Y-91283483D01*
X137621504Y-91235864D02*
X137859599Y-91902531D01*
X137859599Y-91902531D02*
X138097694Y-91235864D01*
X139002456Y-91902531D02*
X138431028Y-91902531D01*
X138716742Y-91902531D02*
X138716742Y-90902531D01*
X138716742Y-90902531D02*
X138621504Y-91045388D01*
X138621504Y-91045388D02*
X138526266Y-91140626D01*
X138526266Y-91140626D02*
X138431028Y-91188245D01*
X128478646Y-92845808D02*
X128716741Y-93512475D01*
X128954836Y-92845808D02*
X128716741Y-93512475D01*
X128716741Y-93512475D02*
X128621503Y-93750570D01*
X128621503Y-93750570D02*
X128573884Y-93798189D01*
X128573884Y-93798189D02*
X128478646Y-93845808D01*
X129764360Y-93512475D02*
X129764360Y-92988665D01*
X129764360Y-92988665D02*
X129716741Y-92893427D01*
X129716741Y-92893427D02*
X129621503Y-92845808D01*
X129621503Y-92845808D02*
X129431027Y-92845808D01*
X129431027Y-92845808D02*
X129335789Y-92893427D01*
X129764360Y-93464856D02*
X129669122Y-93512475D01*
X129669122Y-93512475D02*
X129431027Y-93512475D01*
X129431027Y-93512475D02*
X129335789Y-93464856D01*
X129335789Y-93464856D02*
X129288170Y-93369617D01*
X129288170Y-93369617D02*
X129288170Y-93274379D01*
X129288170Y-93274379D02*
X129335789Y-93179141D01*
X129335789Y-93179141D02*
X129431027Y-93131522D01*
X129431027Y-93131522D02*
X129669122Y-93131522D01*
X129669122Y-93131522D02*
X129764360Y-93083903D01*
X130240551Y-93512475D02*
X130240551Y-92845808D01*
X130240551Y-93036284D02*
X130288170Y-92941046D01*
X130288170Y-92941046D02*
X130335789Y-92893427D01*
X130335789Y-92893427D02*
X130431027Y-92845808D01*
X130431027Y-92845808D02*
X130526265Y-92845808D01*
X131288170Y-92845808D02*
X131288170Y-93655332D01*
X131288170Y-93655332D02*
X131240551Y-93750570D01*
X131240551Y-93750570D02*
X131192932Y-93798189D01*
X131192932Y-93798189D02*
X131097694Y-93845808D01*
X131097694Y-93845808D02*
X130954837Y-93845808D01*
X130954837Y-93845808D02*
X130859599Y-93798189D01*
X131288170Y-93464856D02*
X131192932Y-93512475D01*
X131192932Y-93512475D02*
X131002456Y-93512475D01*
X131002456Y-93512475D02*
X130907218Y-93464856D01*
X130907218Y-93464856D02*
X130859599Y-93417236D01*
X130859599Y-93417236D02*
X130811980Y-93321998D01*
X130811980Y-93321998D02*
X130811980Y-93036284D01*
X130811980Y-93036284D02*
X130859599Y-92941046D01*
X130859599Y-92941046D02*
X130907218Y-92893427D01*
X130907218Y-92893427D02*
X131002456Y-92845808D01*
X131002456Y-92845808D02*
X131192932Y-92845808D01*
X131192932Y-92845808D02*
X131288170Y-92893427D01*
X131764361Y-93131522D02*
X132526266Y-93131522D01*
X133145313Y-93512475D02*
X133050075Y-93464856D01*
X133050075Y-93464856D02*
X133002456Y-93369617D01*
X133002456Y-93369617D02*
X133002456Y-92512475D01*
X133954837Y-93512475D02*
X133954837Y-92988665D01*
X133954837Y-92988665D02*
X133907218Y-92893427D01*
X133907218Y-92893427D02*
X133811980Y-92845808D01*
X133811980Y-92845808D02*
X133621504Y-92845808D01*
X133621504Y-92845808D02*
X133526266Y-92893427D01*
X133954837Y-93464856D02*
X133859599Y-93512475D01*
X133859599Y-93512475D02*
X133621504Y-93512475D01*
X133621504Y-93512475D02*
X133526266Y-93464856D01*
X133526266Y-93464856D02*
X133478647Y-93369617D01*
X133478647Y-93369617D02*
X133478647Y-93274379D01*
X133478647Y-93274379D02*
X133526266Y-93179141D01*
X133526266Y-93179141D02*
X133621504Y-93131522D01*
X133621504Y-93131522D02*
X133859599Y-93131522D01*
X133859599Y-93131522D02*
X133954837Y-93083903D01*
X134431028Y-92845808D02*
X134431028Y-93512475D01*
X134431028Y-92941046D02*
X134478647Y-92893427D01*
X134478647Y-92893427D02*
X134573885Y-92845808D01*
X134573885Y-92845808D02*
X134716742Y-92845808D01*
X134716742Y-92845808D02*
X134811980Y-92893427D01*
X134811980Y-92893427D02*
X134859599Y-92988665D01*
X134859599Y-92988665D02*
X134859599Y-93512475D01*
X135764361Y-92845808D02*
X135764361Y-93655332D01*
X135764361Y-93655332D02*
X135716742Y-93750570D01*
X135716742Y-93750570D02*
X135669123Y-93798189D01*
X135669123Y-93798189D02*
X135573885Y-93845808D01*
X135573885Y-93845808D02*
X135431028Y-93845808D01*
X135431028Y-93845808D02*
X135335790Y-93798189D01*
X135764361Y-93464856D02*
X135669123Y-93512475D01*
X135669123Y-93512475D02*
X135478647Y-93512475D01*
X135478647Y-93512475D02*
X135383409Y-93464856D01*
X135383409Y-93464856D02*
X135335790Y-93417236D01*
X135335790Y-93417236D02*
X135288171Y-93321998D01*
X135288171Y-93321998D02*
X135288171Y-93036284D01*
X135288171Y-93036284D02*
X135335790Y-92941046D01*
X135335790Y-92941046D02*
X135383409Y-92893427D01*
X135383409Y-92893427D02*
X135478647Y-92845808D01*
X135478647Y-92845808D02*
X135669123Y-92845808D01*
X135669123Y-92845808D02*
X135764361Y-92893427D01*
X136240552Y-93417236D02*
X136288171Y-93464856D01*
X136288171Y-93464856D02*
X136240552Y-93512475D01*
X136240552Y-93512475D02*
X136192933Y-93464856D01*
X136192933Y-93464856D02*
X136240552Y-93417236D01*
X136240552Y-93417236D02*
X136240552Y-93512475D01*
X137145313Y-93512475D02*
X137145313Y-92512475D01*
X137145313Y-93464856D02*
X137050075Y-93512475D01*
X137050075Y-93512475D02*
X136859599Y-93512475D01*
X136859599Y-93512475D02*
X136764361Y-93464856D01*
X136764361Y-93464856D02*
X136716742Y-93417236D01*
X136716742Y-93417236D02*
X136669123Y-93321998D01*
X136669123Y-93321998D02*
X136669123Y-93036284D01*
X136669123Y-93036284D02*
X136716742Y-92941046D01*
X136716742Y-92941046D02*
X136764361Y-92893427D01*
X136764361Y-92893427D02*
X136859599Y-92845808D01*
X136859599Y-92845808D02*
X137050075Y-92845808D01*
X137050075Y-92845808D02*
X137145313Y-92893427D01*
X138002456Y-93464856D02*
X137907218Y-93512475D01*
X137907218Y-93512475D02*
X137716742Y-93512475D01*
X137716742Y-93512475D02*
X137621504Y-93464856D01*
X137621504Y-93464856D02*
X137573885Y-93369617D01*
X137573885Y-93369617D02*
X137573885Y-92988665D01*
X137573885Y-92988665D02*
X137621504Y-92893427D01*
X137621504Y-92893427D02*
X137716742Y-92845808D01*
X137716742Y-92845808D02*
X137907218Y-92845808D01*
X137907218Y-92845808D02*
X138002456Y-92893427D01*
X138002456Y-92893427D02*
X138050075Y-92988665D01*
X138050075Y-92988665D02*
X138050075Y-93083903D01*
X138050075Y-93083903D02*
X137573885Y-93179141D01*
X138383409Y-92845808D02*
X138621504Y-93512475D01*
X138621504Y-93512475D02*
X138859599Y-92845808D01*
X128859598Y-94122419D02*
X128859598Y-94836704D01*
X128859598Y-94836704D02*
X128811979Y-94979561D01*
X128811979Y-94979561D02*
X128716741Y-95074800D01*
X128716741Y-95074800D02*
X128573884Y-95122419D01*
X128573884Y-95122419D02*
X128478646Y-95122419D01*
X129478646Y-95122419D02*
X129383408Y-95074800D01*
X129383408Y-95074800D02*
X129335789Y-95027180D01*
X129335789Y-95027180D02*
X129288170Y-94931942D01*
X129288170Y-94931942D02*
X129288170Y-94646228D01*
X129288170Y-94646228D02*
X129335789Y-94550990D01*
X129335789Y-94550990D02*
X129383408Y-94503371D01*
X129383408Y-94503371D02*
X129478646Y-94455752D01*
X129478646Y-94455752D02*
X129621503Y-94455752D01*
X129621503Y-94455752D02*
X129716741Y-94503371D01*
X129716741Y-94503371D02*
X129764360Y-94550990D01*
X129764360Y-94550990D02*
X129811979Y-94646228D01*
X129811979Y-94646228D02*
X129811979Y-94931942D01*
X129811979Y-94931942D02*
X129764360Y-95027180D01*
X129764360Y-95027180D02*
X129716741Y-95074800D01*
X129716741Y-95074800D02*
X129621503Y-95122419D01*
X129621503Y-95122419D02*
X129478646Y-95122419D01*
X130240551Y-95122419D02*
X130240551Y-94122419D01*
X130669122Y-95122419D02*
X130669122Y-94598609D01*
X130669122Y-94598609D02*
X130621503Y-94503371D01*
X130621503Y-94503371D02*
X130526265Y-94455752D01*
X130526265Y-94455752D02*
X130383408Y-94455752D01*
X130383408Y-94455752D02*
X130288170Y-94503371D01*
X130288170Y-94503371D02*
X130240551Y-94550990D01*
X131145313Y-94455752D02*
X131145313Y-95122419D01*
X131145313Y-94550990D02*
X131192932Y-94503371D01*
X131192932Y-94503371D02*
X131288170Y-94455752D01*
X131288170Y-94455752D02*
X131431027Y-94455752D01*
X131431027Y-94455752D02*
X131526265Y-94503371D01*
X131526265Y-94503371D02*
X131573884Y-94598609D01*
X131573884Y-94598609D02*
X131573884Y-95122419D01*
X132811980Y-95122419D02*
X132811980Y-94122419D01*
X132811980Y-94122419D02*
X133145313Y-94836704D01*
X133145313Y-94836704D02*
X133478646Y-94122419D01*
X133478646Y-94122419D02*
X133478646Y-95122419D01*
X134383408Y-95074800D02*
X134288170Y-95122419D01*
X134288170Y-95122419D02*
X134097694Y-95122419D01*
X134097694Y-95122419D02*
X134002456Y-95074800D01*
X134002456Y-95074800D02*
X133954837Y-95027180D01*
X133954837Y-95027180D02*
X133907218Y-94931942D01*
X133907218Y-94931942D02*
X133907218Y-94646228D01*
X133907218Y-94646228D02*
X133954837Y-94550990D01*
X133954837Y-94550990D02*
X134002456Y-94503371D01*
X134002456Y-94503371D02*
X134097694Y-94455752D01*
X134097694Y-94455752D02*
X134288170Y-94455752D01*
X134288170Y-94455752D02*
X134383408Y-94503371D01*
X134764361Y-94836704D02*
X135240551Y-94836704D01*
X134669123Y-95122419D02*
X135002456Y-94122419D01*
X135002456Y-94122419D02*
X135335789Y-95122419D01*
X135811980Y-95122419D02*
X135716742Y-95074800D01*
X135716742Y-95074800D02*
X135669123Y-94979561D01*
X135669123Y-94979561D02*
X135669123Y-94122419D01*
X136573885Y-95074800D02*
X136478647Y-95122419D01*
X136478647Y-95122419D02*
X136288171Y-95122419D01*
X136288171Y-95122419D02*
X136192933Y-95074800D01*
X136192933Y-95074800D02*
X136145314Y-94979561D01*
X136145314Y-94979561D02*
X136145314Y-94598609D01*
X136145314Y-94598609D02*
X136192933Y-94503371D01*
X136192933Y-94503371D02*
X136288171Y-94455752D01*
X136288171Y-94455752D02*
X136478647Y-94455752D01*
X136478647Y-94455752D02*
X136573885Y-94503371D01*
X136573885Y-94503371D02*
X136621504Y-94598609D01*
X136621504Y-94598609D02*
X136621504Y-94693847D01*
X136621504Y-94693847D02*
X136145314Y-94789085D01*
X137431028Y-95074800D02*
X137335790Y-95122419D01*
X137335790Y-95122419D02*
X137145314Y-95122419D01*
X137145314Y-95122419D02*
X137050076Y-95074800D01*
X137050076Y-95074800D02*
X137002457Y-94979561D01*
X137002457Y-94979561D02*
X137002457Y-94598609D01*
X137002457Y-94598609D02*
X137050076Y-94503371D01*
X137050076Y-94503371D02*
X137145314Y-94455752D01*
X137145314Y-94455752D02*
X137335790Y-94455752D01*
X137335790Y-94455752D02*
X137431028Y-94503371D01*
X137431028Y-94503371D02*
X137478647Y-94598609D01*
X137478647Y-94598609D02*
X137478647Y-94693847D01*
X137478647Y-94693847D02*
X137002457Y-94789085D01*
X138050076Y-95122419D02*
X137954838Y-95074800D01*
X137954838Y-95074800D02*
X137907219Y-94979561D01*
X137907219Y-94979561D02*
X137907219Y-94122419D01*
X138335791Y-94455752D02*
X138573886Y-95122419D01*
X138811981Y-94455752D02*
X138573886Y-95122419D01*
X138573886Y-95122419D02*
X138478648Y-95360514D01*
X138478648Y-95360514D02*
X138431029Y-95408133D01*
X138431029Y-95408133D02*
X138335791Y-95455752D01*
X139907220Y-94217657D02*
X139954839Y-94170038D01*
X139954839Y-94170038D02*
X140050077Y-94122419D01*
X140050077Y-94122419D02*
X140288172Y-94122419D01*
X140288172Y-94122419D02*
X140383410Y-94170038D01*
X140383410Y-94170038D02*
X140431029Y-94217657D01*
X140431029Y-94217657D02*
X140478648Y-94312895D01*
X140478648Y-94312895D02*
X140478648Y-94408133D01*
X140478648Y-94408133D02*
X140431029Y-94550990D01*
X140431029Y-94550990D02*
X139859601Y-95122419D01*
X139859601Y-95122419D02*
X140478648Y-95122419D01*
X141097696Y-94122419D02*
X141192934Y-94122419D01*
X141192934Y-94122419D02*
X141288172Y-94170038D01*
X141288172Y-94170038D02*
X141335791Y-94217657D01*
X141335791Y-94217657D02*
X141383410Y-94312895D01*
X141383410Y-94312895D02*
X141431029Y-94503371D01*
X141431029Y-94503371D02*
X141431029Y-94741466D01*
X141431029Y-94741466D02*
X141383410Y-94931942D01*
X141383410Y-94931942D02*
X141335791Y-95027180D01*
X141335791Y-95027180D02*
X141288172Y-95074800D01*
X141288172Y-95074800D02*
X141192934Y-95122419D01*
X141192934Y-95122419D02*
X141097696Y-95122419D01*
X141097696Y-95122419D02*
X141002458Y-95074800D01*
X141002458Y-95074800D02*
X140954839Y-95027180D01*
X140954839Y-95027180D02*
X140907220Y-94931942D01*
X140907220Y-94931942D02*
X140859601Y-94741466D01*
X140859601Y-94741466D02*
X140859601Y-94503371D01*
X140859601Y-94503371D02*
X140907220Y-94312895D01*
X140907220Y-94312895D02*
X140954839Y-94217657D01*
X140954839Y-94217657D02*
X141002458Y-94170038D01*
X141002458Y-94170038D02*
X141097696Y-94122419D01*
X141811982Y-94217657D02*
X141859601Y-94170038D01*
X141859601Y-94170038D02*
X141954839Y-94122419D01*
X141954839Y-94122419D02*
X142192934Y-94122419D01*
X142192934Y-94122419D02*
X142288172Y-94170038D01*
X142288172Y-94170038D02*
X142335791Y-94217657D01*
X142335791Y-94217657D02*
X142383410Y-94312895D01*
X142383410Y-94312895D02*
X142383410Y-94408133D01*
X142383410Y-94408133D02*
X142335791Y-94550990D01*
X142335791Y-94550990D02*
X141764363Y-95122419D01*
X141764363Y-95122419D02*
X142383410Y-95122419D01*
X143240553Y-94122419D02*
X143050077Y-94122419D01*
X143050077Y-94122419D02*
X142954839Y-94170038D01*
X142954839Y-94170038D02*
X142907220Y-94217657D01*
X142907220Y-94217657D02*
X142811982Y-94360514D01*
X142811982Y-94360514D02*
X142764363Y-94550990D01*
X142764363Y-94550990D02*
X142764363Y-94931942D01*
X142764363Y-94931942D02*
X142811982Y-95027180D01*
X142811982Y-95027180D02*
X142859601Y-95074800D01*
X142859601Y-95074800D02*
X142954839Y-95122419D01*
X142954839Y-95122419D02*
X143145315Y-95122419D01*
X143145315Y-95122419D02*
X143240553Y-95074800D01*
X143240553Y-95074800D02*
X143288172Y-95027180D01*
X143288172Y-95027180D02*
X143335791Y-94931942D01*
X143335791Y-94931942D02*
X143335791Y-94693847D01*
X143335791Y-94693847D02*
X143288172Y-94598609D01*
X143288172Y-94598609D02*
X143240553Y-94550990D01*
X143240553Y-94550990D02*
X143145315Y-94503371D01*
X143145315Y-94503371D02*
X142954839Y-94503371D01*
X142954839Y-94503371D02*
X142859601Y-94550990D01*
X142859601Y-94550990D02*
X142811982Y-94598609D01*
X142811982Y-94598609D02*
X142764363Y-94693847D01*
X53164800Y-68323734D02*
X53212419Y-68180877D01*
X53212419Y-68180877D02*
X53212419Y-67942782D01*
X53212419Y-67942782D02*
X53164800Y-67847544D01*
X53164800Y-67847544D02*
X53117180Y-67799925D01*
X53117180Y-67799925D02*
X53021942Y-67752306D01*
X53021942Y-67752306D02*
X52926704Y-67752306D01*
X52926704Y-67752306D02*
X52831466Y-67799925D01*
X52831466Y-67799925D02*
X52783847Y-67847544D01*
X52783847Y-67847544D02*
X52736228Y-67942782D01*
X52736228Y-67942782D02*
X52688609Y-68133258D01*
X52688609Y-68133258D02*
X52640990Y-68228496D01*
X52640990Y-68228496D02*
X52593371Y-68276115D01*
X52593371Y-68276115D02*
X52498133Y-68323734D01*
X52498133Y-68323734D02*
X52402895Y-68323734D01*
X52402895Y-68323734D02*
X52307657Y-68276115D01*
X52307657Y-68276115D02*
X52260038Y-68228496D01*
X52260038Y-68228496D02*
X52212419Y-68133258D01*
X52212419Y-68133258D02*
X52212419Y-67895163D01*
X52212419Y-67895163D02*
X52260038Y-67752306D01*
X52212419Y-67418972D02*
X53212419Y-67180877D01*
X53212419Y-67180877D02*
X52498133Y-66990401D01*
X52498133Y-66990401D02*
X53212419Y-66799925D01*
X53212419Y-66799925D02*
X52212419Y-66561830D01*
X53212419Y-66180877D02*
X52212419Y-66180877D01*
X52212419Y-66180877D02*
X52212419Y-65942782D01*
X52212419Y-65942782D02*
X52260038Y-65799925D01*
X52260038Y-65799925D02*
X52355276Y-65704687D01*
X52355276Y-65704687D02*
X52450514Y-65657068D01*
X52450514Y-65657068D02*
X52640990Y-65609449D01*
X52640990Y-65609449D02*
X52783847Y-65609449D01*
X52783847Y-65609449D02*
X52974323Y-65657068D01*
X52974323Y-65657068D02*
X53069561Y-65704687D01*
X53069561Y-65704687D02*
X53164800Y-65799925D01*
X53164800Y-65799925D02*
X53212419Y-65942782D01*
X53212419Y-65942782D02*
X53212419Y-66180877D01*
X60467419Y-68911115D02*
X61276942Y-68911115D01*
X61276942Y-68911115D02*
X61372180Y-68863496D01*
X61372180Y-68863496D02*
X61419800Y-68815877D01*
X61419800Y-68815877D02*
X61467419Y-68720639D01*
X61467419Y-68720639D02*
X61467419Y-68530163D01*
X61467419Y-68530163D02*
X61419800Y-68434925D01*
X61419800Y-68434925D02*
X61372180Y-68387306D01*
X61372180Y-68387306D02*
X61276942Y-68339687D01*
X61276942Y-68339687D02*
X60467419Y-68339687D01*
X61181704Y-67911115D02*
X61181704Y-67434925D01*
X61467419Y-68006353D02*
X60467419Y-67673020D01*
X60467419Y-67673020D02*
X61467419Y-67339687D01*
X61467419Y-66434925D02*
X60991228Y-66768258D01*
X61467419Y-67006353D02*
X60467419Y-67006353D01*
X60467419Y-67006353D02*
X60467419Y-66625401D01*
X60467419Y-66625401D02*
X60515038Y-66530163D01*
X60515038Y-66530163D02*
X60562657Y-66482544D01*
X60562657Y-66482544D02*
X60657895Y-66434925D01*
X60657895Y-66434925D02*
X60800752Y-66434925D01*
X60800752Y-66434925D02*
X60895990Y-66482544D01*
X60895990Y-66482544D02*
X60943609Y-66530163D01*
X60943609Y-66530163D02*
X60991228Y-66625401D01*
X60991228Y-66625401D02*
X60991228Y-67006353D01*
X60467419Y-66149210D02*
X60467419Y-65577782D01*
X61467419Y-65863496D02*
X60467419Y-65863496D01*
X138302419Y-80976115D02*
X137302419Y-80976115D01*
X138302419Y-80547544D02*
X137778609Y-80547544D01*
X137778609Y-80547544D02*
X137683371Y-80595163D01*
X137683371Y-80595163D02*
X137635752Y-80690401D01*
X137635752Y-80690401D02*
X137635752Y-80833258D01*
X137635752Y-80833258D02*
X137683371Y-80928496D01*
X137683371Y-80928496D02*
X137730990Y-80976115D01*
X138254800Y-79690401D02*
X138302419Y-79785639D01*
X138302419Y-79785639D02*
X138302419Y-79976115D01*
X138302419Y-79976115D02*
X138254800Y-80071353D01*
X138254800Y-80071353D02*
X138159561Y-80118972D01*
X138159561Y-80118972D02*
X137778609Y-80118972D01*
X137778609Y-80118972D02*
X137683371Y-80071353D01*
X137683371Y-80071353D02*
X137635752Y-79976115D01*
X137635752Y-79976115D02*
X137635752Y-79785639D01*
X137635752Y-79785639D02*
X137683371Y-79690401D01*
X137683371Y-79690401D02*
X137778609Y-79642782D01*
X137778609Y-79642782D02*
X137873847Y-79642782D01*
X137873847Y-79642782D02*
X137969085Y-80118972D01*
X138302419Y-79071353D02*
X138254800Y-79166591D01*
X138254800Y-79166591D02*
X138159561Y-79214210D01*
X138159561Y-79214210D02*
X137302419Y-79214210D01*
X138302419Y-78547543D02*
X138254800Y-78642781D01*
X138254800Y-78642781D02*
X138159561Y-78690400D01*
X138159561Y-78690400D02*
X137302419Y-78690400D01*
X138302419Y-78023733D02*
X138254800Y-78118971D01*
X138254800Y-78118971D02*
X138207180Y-78166590D01*
X138207180Y-78166590D02*
X138111942Y-78214209D01*
X138111942Y-78214209D02*
X137826228Y-78214209D01*
X137826228Y-78214209D02*
X137730990Y-78166590D01*
X137730990Y-78166590D02*
X137683371Y-78118971D01*
X137683371Y-78118971D02*
X137635752Y-78023733D01*
X137635752Y-78023733D02*
X137635752Y-77880876D01*
X137635752Y-77880876D02*
X137683371Y-77785638D01*
X137683371Y-77785638D02*
X137730990Y-77738019D01*
X137730990Y-77738019D02*
X137826228Y-77690400D01*
X137826228Y-77690400D02*
X138111942Y-77690400D01*
X138111942Y-77690400D02*
X138207180Y-77738019D01*
X138207180Y-77738019D02*
X138254800Y-77785638D01*
X138254800Y-77785638D02*
X138302419Y-77880876D01*
X138302419Y-77880876D02*
X138302419Y-78023733D01*
X138397657Y-77499924D02*
X138397657Y-76738019D01*
X138302419Y-76499923D02*
X137302419Y-76499923D01*
X137683371Y-76499923D02*
X137635752Y-76404685D01*
X137635752Y-76404685D02*
X137635752Y-76214209D01*
X137635752Y-76214209D02*
X137683371Y-76118971D01*
X137683371Y-76118971D02*
X137730990Y-76071352D01*
X137730990Y-76071352D02*
X137826228Y-76023733D01*
X137826228Y-76023733D02*
X138111942Y-76023733D01*
X138111942Y-76023733D02*
X138207180Y-76071352D01*
X138207180Y-76071352D02*
X138254800Y-76118971D01*
X138254800Y-76118971D02*
X138302419Y-76214209D01*
X138302419Y-76214209D02*
X138302419Y-76404685D01*
X138302419Y-76404685D02*
X138254800Y-76499923D01*
X137635752Y-75166590D02*
X138302419Y-75166590D01*
X137635752Y-75595161D02*
X138159561Y-75595161D01*
X138159561Y-75595161D02*
X138254800Y-75547542D01*
X138254800Y-75547542D02*
X138302419Y-75452304D01*
X138302419Y-75452304D02*
X138302419Y-75309447D01*
X138302419Y-75309447D02*
X138254800Y-75214209D01*
X138254800Y-75214209D02*
X138207180Y-75166590D01*
X137635752Y-74833256D02*
X137635752Y-74452304D01*
X137302419Y-74690399D02*
X138159561Y-74690399D01*
X138159561Y-74690399D02*
X138254800Y-74642780D01*
X138254800Y-74642780D02*
X138302419Y-74547542D01*
X138302419Y-74547542D02*
X138302419Y-74452304D01*
X137635752Y-74261827D02*
X137635752Y-73880875D01*
X137302419Y-74118970D02*
X138159561Y-74118970D01*
X138159561Y-74118970D02*
X138254800Y-74071351D01*
X138254800Y-74071351D02*
X138302419Y-73976113D01*
X138302419Y-73976113D02*
X138302419Y-73880875D01*
X138302419Y-73404684D02*
X138254800Y-73499922D01*
X138254800Y-73499922D02*
X138207180Y-73547541D01*
X138207180Y-73547541D02*
X138111942Y-73595160D01*
X138111942Y-73595160D02*
X137826228Y-73595160D01*
X137826228Y-73595160D02*
X137730990Y-73547541D01*
X137730990Y-73547541D02*
X137683371Y-73499922D01*
X137683371Y-73499922D02*
X137635752Y-73404684D01*
X137635752Y-73404684D02*
X137635752Y-73261827D01*
X137635752Y-73261827D02*
X137683371Y-73166589D01*
X137683371Y-73166589D02*
X137730990Y-73118970D01*
X137730990Y-73118970D02*
X137826228Y-73071351D01*
X137826228Y-73071351D02*
X138111942Y-73071351D01*
X138111942Y-73071351D02*
X138207180Y-73118970D01*
X138207180Y-73118970D02*
X138254800Y-73166589D01*
X138254800Y-73166589D02*
X138302419Y-73261827D01*
X138302419Y-73261827D02*
X138302419Y-73404684D01*
X137635752Y-72642779D02*
X138302419Y-72642779D01*
X137730990Y-72642779D02*
X137683371Y-72595160D01*
X137683371Y-72595160D02*
X137635752Y-72499922D01*
X137635752Y-72499922D02*
X137635752Y-72357065D01*
X137635752Y-72357065D02*
X137683371Y-72261827D01*
X137683371Y-72261827D02*
X137778609Y-72214208D01*
X137778609Y-72214208D02*
X138302419Y-72214208D01*
D11*
X55102381Y-63034819D02*
X55102381Y-62034819D01*
X55102381Y-62034819D02*
X55340476Y-62034819D01*
X55340476Y-62034819D02*
X55483333Y-62082438D01*
X55483333Y-62082438D02*
X55578571Y-62177676D01*
X55578571Y-62177676D02*
X55626190Y-62272914D01*
X55626190Y-62272914D02*
X55673809Y-62463390D01*
X55673809Y-62463390D02*
X55673809Y-62606247D01*
X55673809Y-62606247D02*
X55626190Y-62796723D01*
X55626190Y-62796723D02*
X55578571Y-62891961D01*
X55578571Y-62891961D02*
X55483333Y-62987200D01*
X55483333Y-62987200D02*
X55340476Y-63034819D01*
X55340476Y-63034819D02*
X55102381Y-63034819D01*
X56483333Y-62987200D02*
X56388095Y-63034819D01*
X56388095Y-63034819D02*
X56197619Y-63034819D01*
X56197619Y-63034819D02*
X56102381Y-62987200D01*
X56102381Y-62987200D02*
X56054762Y-62891961D01*
X56054762Y-62891961D02*
X56054762Y-62511009D01*
X56054762Y-62511009D02*
X56102381Y-62415771D01*
X56102381Y-62415771D02*
X56197619Y-62368152D01*
X56197619Y-62368152D02*
X56388095Y-62368152D01*
X56388095Y-62368152D02*
X56483333Y-62415771D01*
X56483333Y-62415771D02*
X56530952Y-62511009D01*
X56530952Y-62511009D02*
X56530952Y-62606247D01*
X56530952Y-62606247D02*
X56054762Y-62701485D01*
X56959524Y-63034819D02*
X56959524Y-62034819D01*
X56959524Y-62415771D02*
X57054762Y-62368152D01*
X57054762Y-62368152D02*
X57245238Y-62368152D01*
X57245238Y-62368152D02*
X57340476Y-62415771D01*
X57340476Y-62415771D02*
X57388095Y-62463390D01*
X57388095Y-62463390D02*
X57435714Y-62558628D01*
X57435714Y-62558628D02*
X57435714Y-62844342D01*
X57435714Y-62844342D02*
X57388095Y-62939580D01*
X57388095Y-62939580D02*
X57340476Y-62987200D01*
X57340476Y-62987200D02*
X57245238Y-63034819D01*
X57245238Y-63034819D02*
X57054762Y-63034819D01*
X57054762Y-63034819D02*
X56959524Y-62987200D01*
X58292857Y-62368152D02*
X58292857Y-63034819D01*
X57864286Y-62368152D02*
X57864286Y-62891961D01*
X57864286Y-62891961D02*
X57911905Y-62987200D01*
X57911905Y-62987200D02*
X58007143Y-63034819D01*
X58007143Y-63034819D02*
X58150000Y-63034819D01*
X58150000Y-63034819D02*
X58245238Y-62987200D01*
X58245238Y-62987200D02*
X58292857Y-62939580D01*
X59197619Y-62368152D02*
X59197619Y-63177676D01*
X59197619Y-63177676D02*
X59150000Y-63272914D01*
X59150000Y-63272914D02*
X59102381Y-63320533D01*
X59102381Y-63320533D02*
X59007143Y-63368152D01*
X59007143Y-63368152D02*
X58864286Y-63368152D01*
X58864286Y-63368152D02*
X58769048Y-63320533D01*
X59197619Y-62987200D02*
X59102381Y-63034819D01*
X59102381Y-63034819D02*
X58911905Y-63034819D01*
X58911905Y-63034819D02*
X58816667Y-62987200D01*
X58816667Y-62987200D02*
X58769048Y-62939580D01*
X58769048Y-62939580D02*
X58721429Y-62844342D01*
X58721429Y-62844342D02*
X58721429Y-62558628D01*
X58721429Y-62558628D02*
X58769048Y-62463390D01*
X58769048Y-62463390D02*
X58816667Y-62415771D01*
X58816667Y-62415771D02*
X58911905Y-62368152D01*
X58911905Y-62368152D02*
X59102381Y-62368152D01*
X59102381Y-62368152D02*
X59197619Y-62415771D01*
X95281904Y-74944819D02*
X94948571Y-74468628D01*
X94710476Y-74944819D02*
X94710476Y-73944819D01*
X94710476Y-73944819D02*
X95091428Y-73944819D01*
X95091428Y-73944819D02*
X95186666Y-73992438D01*
X95186666Y-73992438D02*
X95234285Y-74040057D01*
X95234285Y-74040057D02*
X95281904Y-74135295D01*
X95281904Y-74135295D02*
X95281904Y-74278152D01*
X95281904Y-74278152D02*
X95234285Y-74373390D01*
X95234285Y-74373390D02*
X95186666Y-74421009D01*
X95186666Y-74421009D02*
X95091428Y-74468628D01*
X95091428Y-74468628D02*
X94710476Y-74468628D01*
X96091428Y-74897200D02*
X95996190Y-74944819D01*
X95996190Y-74944819D02*
X95805714Y-74944819D01*
X95805714Y-74944819D02*
X95710476Y-74897200D01*
X95710476Y-74897200D02*
X95662857Y-74801961D01*
X95662857Y-74801961D02*
X95662857Y-74421009D01*
X95662857Y-74421009D02*
X95710476Y-74325771D01*
X95710476Y-74325771D02*
X95805714Y-74278152D01*
X95805714Y-74278152D02*
X95996190Y-74278152D01*
X95996190Y-74278152D02*
X96091428Y-74325771D01*
X96091428Y-74325771D02*
X96139047Y-74421009D01*
X96139047Y-74421009D02*
X96139047Y-74516247D01*
X96139047Y-74516247D02*
X95662857Y-74611485D01*
X96520000Y-74897200D02*
X96615238Y-74944819D01*
X96615238Y-74944819D02*
X96805714Y-74944819D01*
X96805714Y-74944819D02*
X96900952Y-74897200D01*
X96900952Y-74897200D02*
X96948571Y-74801961D01*
X96948571Y-74801961D02*
X96948571Y-74754342D01*
X96948571Y-74754342D02*
X96900952Y-74659104D01*
X96900952Y-74659104D02*
X96805714Y-74611485D01*
X96805714Y-74611485D02*
X96662857Y-74611485D01*
X96662857Y-74611485D02*
X96567619Y-74563866D01*
X96567619Y-74563866D02*
X96520000Y-74468628D01*
X96520000Y-74468628D02*
X96520000Y-74421009D01*
X96520000Y-74421009D02*
X96567619Y-74325771D01*
X96567619Y-74325771D02*
X96662857Y-74278152D01*
X96662857Y-74278152D02*
X96805714Y-74278152D01*
X96805714Y-74278152D02*
X96900952Y-74325771D01*
X97758095Y-74897200D02*
X97662857Y-74944819D01*
X97662857Y-74944819D02*
X97472381Y-74944819D01*
X97472381Y-74944819D02*
X97377143Y-74897200D01*
X97377143Y-74897200D02*
X97329524Y-74801961D01*
X97329524Y-74801961D02*
X97329524Y-74421009D01*
X97329524Y-74421009D02*
X97377143Y-74325771D01*
X97377143Y-74325771D02*
X97472381Y-74278152D01*
X97472381Y-74278152D02*
X97662857Y-74278152D01*
X97662857Y-74278152D02*
X97758095Y-74325771D01*
X97758095Y-74325771D02*
X97805714Y-74421009D01*
X97805714Y-74421009D02*
X97805714Y-74516247D01*
X97805714Y-74516247D02*
X97329524Y-74611485D01*
X98091429Y-74278152D02*
X98472381Y-74278152D01*
X98234286Y-73944819D02*
X98234286Y-74801961D01*
X98234286Y-74801961D02*
X98281905Y-74897200D01*
X98281905Y-74897200D02*
X98377143Y-74944819D01*
X98377143Y-74944819D02*
X98472381Y-74944819D01*
X88474279Y-101419819D02*
X88474279Y-100419819D01*
X88474279Y-100419819D02*
X88712374Y-100419819D01*
X88712374Y-100419819D02*
X88855231Y-100467438D01*
X88855231Y-100467438D02*
X88950469Y-100562676D01*
X88950469Y-100562676D02*
X88998088Y-100657914D01*
X88998088Y-100657914D02*
X89045707Y-100848390D01*
X89045707Y-100848390D02*
X89045707Y-100991247D01*
X89045707Y-100991247D02*
X88998088Y-101181723D01*
X88998088Y-101181723D02*
X88950469Y-101276961D01*
X88950469Y-101276961D02*
X88855231Y-101372200D01*
X88855231Y-101372200D02*
X88712374Y-101419819D01*
X88712374Y-101419819D02*
X88474279Y-101419819D01*
X89855231Y-101372200D02*
X89759993Y-101419819D01*
X89759993Y-101419819D02*
X89569517Y-101419819D01*
X89569517Y-101419819D02*
X89474279Y-101372200D01*
X89474279Y-101372200D02*
X89426660Y-101276961D01*
X89426660Y-101276961D02*
X89426660Y-100896009D01*
X89426660Y-100896009D02*
X89474279Y-100800771D01*
X89474279Y-100800771D02*
X89569517Y-100753152D01*
X89569517Y-100753152D02*
X89759993Y-100753152D01*
X89759993Y-100753152D02*
X89855231Y-100800771D01*
X89855231Y-100800771D02*
X89902850Y-100896009D01*
X89902850Y-100896009D02*
X89902850Y-100991247D01*
X89902850Y-100991247D02*
X89426660Y-101086485D01*
X90331422Y-101419819D02*
X90331422Y-100419819D01*
X90331422Y-100800771D02*
X90426660Y-100753152D01*
X90426660Y-100753152D02*
X90617136Y-100753152D01*
X90617136Y-100753152D02*
X90712374Y-100800771D01*
X90712374Y-100800771D02*
X90759993Y-100848390D01*
X90759993Y-100848390D02*
X90807612Y-100943628D01*
X90807612Y-100943628D02*
X90807612Y-101229342D01*
X90807612Y-101229342D02*
X90759993Y-101324580D01*
X90759993Y-101324580D02*
X90712374Y-101372200D01*
X90712374Y-101372200D02*
X90617136Y-101419819D01*
X90617136Y-101419819D02*
X90426660Y-101419819D01*
X90426660Y-101419819D02*
X90331422Y-101372200D01*
X91664755Y-100753152D02*
X91664755Y-101419819D01*
X91236184Y-100753152D02*
X91236184Y-101276961D01*
X91236184Y-101276961D02*
X91283803Y-101372200D01*
X91283803Y-101372200D02*
X91379041Y-101419819D01*
X91379041Y-101419819D02*
X91521898Y-101419819D01*
X91521898Y-101419819D02*
X91617136Y-101372200D01*
X91617136Y-101372200D02*
X91664755Y-101324580D01*
X92569517Y-100753152D02*
X92569517Y-101562676D01*
X92569517Y-101562676D02*
X92521898Y-101657914D01*
X92521898Y-101657914D02*
X92474279Y-101705533D01*
X92474279Y-101705533D02*
X92379041Y-101753152D01*
X92379041Y-101753152D02*
X92236184Y-101753152D01*
X92236184Y-101753152D02*
X92140946Y-101705533D01*
X92569517Y-101372200D02*
X92474279Y-101419819D01*
X92474279Y-101419819D02*
X92283803Y-101419819D01*
X92283803Y-101419819D02*
X92188565Y-101372200D01*
X92188565Y-101372200D02*
X92140946Y-101324580D01*
X92140946Y-101324580D02*
X92093327Y-101229342D01*
X92093327Y-101229342D02*
X92093327Y-100943628D01*
X92093327Y-100943628D02*
X92140946Y-100848390D01*
X92140946Y-100848390D02*
X92188565Y-100800771D01*
X92188565Y-100800771D02*
X92283803Y-100753152D01*
X92283803Y-100753152D02*
X92474279Y-100753152D01*
X92474279Y-100753152D02*
X92569517Y-100800771D01*
X93569517Y-101419819D02*
X92998089Y-101419819D01*
X93283803Y-101419819D02*
X93283803Y-100419819D01*
X93283803Y-100419819D02*
X93188565Y-100562676D01*
X93188565Y-100562676D02*
X93093327Y-100657914D01*
X93093327Y-100657914D02*
X92998089Y-100705533D01*
X133286667Y-70697200D02*
X133429524Y-70744819D01*
X133429524Y-70744819D02*
X133667619Y-70744819D01*
X133667619Y-70744819D02*
X133762857Y-70697200D01*
X133762857Y-70697200D02*
X133810476Y-70649580D01*
X133810476Y-70649580D02*
X133858095Y-70554342D01*
X133858095Y-70554342D02*
X133858095Y-70459104D01*
X133858095Y-70459104D02*
X133810476Y-70363866D01*
X133810476Y-70363866D02*
X133762857Y-70316247D01*
X133762857Y-70316247D02*
X133667619Y-70268628D01*
X133667619Y-70268628D02*
X133477143Y-70221009D01*
X133477143Y-70221009D02*
X133381905Y-70173390D01*
X133381905Y-70173390D02*
X133334286Y-70125771D01*
X133334286Y-70125771D02*
X133286667Y-70030533D01*
X133286667Y-70030533D02*
X133286667Y-69935295D01*
X133286667Y-69935295D02*
X133334286Y-69840057D01*
X133334286Y-69840057D02*
X133381905Y-69792438D01*
X133381905Y-69792438D02*
X133477143Y-69744819D01*
X133477143Y-69744819D02*
X133715238Y-69744819D01*
X133715238Y-69744819D02*
X133858095Y-69792438D01*
X134191429Y-69744819D02*
X134429524Y-70744819D01*
X134429524Y-70744819D02*
X134620000Y-70030533D01*
X134620000Y-70030533D02*
X134810476Y-70744819D01*
X134810476Y-70744819D02*
X135048572Y-69744819D01*
X135334286Y-69744819D02*
X135953333Y-69744819D01*
X135953333Y-69744819D02*
X135620000Y-70125771D01*
X135620000Y-70125771D02*
X135762857Y-70125771D01*
X135762857Y-70125771D02*
X135858095Y-70173390D01*
X135858095Y-70173390D02*
X135905714Y-70221009D01*
X135905714Y-70221009D02*
X135953333Y-70316247D01*
X135953333Y-70316247D02*
X135953333Y-70554342D01*
X135953333Y-70554342D02*
X135905714Y-70649580D01*
X135905714Y-70649580D02*
X135858095Y-70697200D01*
X135858095Y-70697200D02*
X135762857Y-70744819D01*
X135762857Y-70744819D02*
X135477143Y-70744819D01*
X135477143Y-70744819D02*
X135381905Y-70697200D01*
X135381905Y-70697200D02*
X135334286Y-70649580D01*
X132991905Y-73694819D02*
X132991905Y-72694819D01*
X132991905Y-72694819D02*
X133230000Y-72694819D01*
X133230000Y-72694819D02*
X133372857Y-72742438D01*
X133372857Y-72742438D02*
X133468095Y-72837676D01*
X133468095Y-72837676D02*
X133515714Y-72932914D01*
X133515714Y-72932914D02*
X133563333Y-73123390D01*
X133563333Y-73123390D02*
X133563333Y-73266247D01*
X133563333Y-73266247D02*
X133515714Y-73456723D01*
X133515714Y-73456723D02*
X133468095Y-73551961D01*
X133468095Y-73551961D02*
X133372857Y-73647200D01*
X133372857Y-73647200D02*
X133230000Y-73694819D01*
X133230000Y-73694819D02*
X132991905Y-73694819D01*
X134515714Y-73694819D02*
X133944286Y-73694819D01*
X134230000Y-73694819D02*
X134230000Y-72694819D01*
X134230000Y-72694819D02*
X134134762Y-72837676D01*
X134134762Y-72837676D02*
X134039524Y-72932914D01*
X134039524Y-72932914D02*
X133944286Y-72980533D01*
X131034819Y-85166666D02*
X130558628Y-85499999D01*
X131034819Y-85738094D02*
X130034819Y-85738094D01*
X130034819Y-85738094D02*
X130034819Y-85357142D01*
X130034819Y-85357142D02*
X130082438Y-85261904D01*
X130082438Y-85261904D02*
X130130057Y-85214285D01*
X130130057Y-85214285D02*
X130225295Y-85166666D01*
X130225295Y-85166666D02*
X130368152Y-85166666D01*
X130368152Y-85166666D02*
X130463390Y-85214285D01*
X130463390Y-85214285D02*
X130511009Y-85261904D01*
X130511009Y-85261904D02*
X130558628Y-85357142D01*
X130558628Y-85357142D02*
X130558628Y-85738094D01*
X131034819Y-84214285D02*
X131034819Y-84785713D01*
X131034819Y-84499999D02*
X130034819Y-84499999D01*
X130034819Y-84499999D02*
X130177676Y-84595237D01*
X130177676Y-84595237D02*
X130272914Y-84690475D01*
X130272914Y-84690475D02*
X130320533Y-84785713D01*
X133970057Y-86738094D02*
X133922438Y-86690475D01*
X133922438Y-86690475D02*
X133874819Y-86595237D01*
X133874819Y-86595237D02*
X133874819Y-86357142D01*
X133874819Y-86357142D02*
X133922438Y-86261904D01*
X133922438Y-86261904D02*
X133970057Y-86214285D01*
X133970057Y-86214285D02*
X134065295Y-86166666D01*
X134065295Y-86166666D02*
X134160533Y-86166666D01*
X134160533Y-86166666D02*
X134303390Y-86214285D01*
X134303390Y-86214285D02*
X134874819Y-86785713D01*
X134874819Y-86785713D02*
X134874819Y-86166666D01*
X133970057Y-85785713D02*
X133922438Y-85738094D01*
X133922438Y-85738094D02*
X133874819Y-85642856D01*
X133874819Y-85642856D02*
X133874819Y-85404761D01*
X133874819Y-85404761D02*
X133922438Y-85309523D01*
X133922438Y-85309523D02*
X133970057Y-85261904D01*
X133970057Y-85261904D02*
X134065295Y-85214285D01*
X134065295Y-85214285D02*
X134160533Y-85214285D01*
X134160533Y-85214285D02*
X134303390Y-85261904D01*
X134303390Y-85261904D02*
X134874819Y-85833332D01*
X134874819Y-85833332D02*
X134874819Y-85214285D01*
X133874819Y-84595237D02*
X133874819Y-84499999D01*
X133874819Y-84499999D02*
X133922438Y-84404761D01*
X133922438Y-84404761D02*
X133970057Y-84357142D01*
X133970057Y-84357142D02*
X134065295Y-84309523D01*
X134065295Y-84309523D02*
X134255771Y-84261904D01*
X134255771Y-84261904D02*
X134493866Y-84261904D01*
X134493866Y-84261904D02*
X134684342Y-84309523D01*
X134684342Y-84309523D02*
X134779580Y-84357142D01*
X134779580Y-84357142D02*
X134827200Y-84404761D01*
X134827200Y-84404761D02*
X134874819Y-84499999D01*
X134874819Y-84499999D02*
X134874819Y-84595237D01*
X134874819Y-84595237D02*
X134827200Y-84690475D01*
X134827200Y-84690475D02*
X134779580Y-84738094D01*
X134779580Y-84738094D02*
X134684342Y-84785713D01*
X134684342Y-84785713D02*
X134493866Y-84833332D01*
X134493866Y-84833332D02*
X134255771Y-84833332D01*
X134255771Y-84833332D02*
X134065295Y-84785713D01*
X134065295Y-84785713D02*
X133970057Y-84738094D01*
X133970057Y-84738094D02*
X133922438Y-84690475D01*
X133922438Y-84690475D02*
X133874819Y-84595237D01*
X134874819Y-83261904D02*
X134398628Y-83595237D01*
X134874819Y-83833332D02*
X133874819Y-83833332D01*
X133874819Y-83833332D02*
X133874819Y-83452380D01*
X133874819Y-83452380D02*
X133922438Y-83357142D01*
X133922438Y-83357142D02*
X133970057Y-83309523D01*
X133970057Y-83309523D02*
X134065295Y-83261904D01*
X134065295Y-83261904D02*
X134208152Y-83261904D01*
X134208152Y-83261904D02*
X134303390Y-83309523D01*
X134303390Y-83309523D02*
X134351009Y-83357142D01*
X134351009Y-83357142D02*
X134398628Y-83452380D01*
X134398628Y-83452380D02*
X134398628Y-83833332D01*
X125926660Y-101124104D02*
X126402850Y-101124104D01*
X125831422Y-101409819D02*
X126164755Y-100409819D01*
X126164755Y-100409819D02*
X126498088Y-101409819D01*
X127355231Y-101409819D02*
X126783803Y-101409819D01*
X127069517Y-101409819D02*
X127069517Y-100409819D01*
X127069517Y-100409819D02*
X126974279Y-100552676D01*
X126974279Y-100552676D02*
X126879041Y-100647914D01*
X126879041Y-100647914D02*
X126783803Y-100695533D01*
X54515237Y-74944819D02*
X54181904Y-74468628D01*
X53943809Y-74944819D02*
X53943809Y-73944819D01*
X53943809Y-73944819D02*
X54324761Y-73944819D01*
X54324761Y-73944819D02*
X54419999Y-73992438D01*
X54419999Y-73992438D02*
X54467618Y-74040057D01*
X54467618Y-74040057D02*
X54515237Y-74135295D01*
X54515237Y-74135295D02*
X54515237Y-74278152D01*
X54515237Y-74278152D02*
X54467618Y-74373390D01*
X54467618Y-74373390D02*
X54419999Y-74421009D01*
X54419999Y-74421009D02*
X54324761Y-74468628D01*
X54324761Y-74468628D02*
X53943809Y-74468628D01*
X55324761Y-74897200D02*
X55229523Y-74944819D01*
X55229523Y-74944819D02*
X55039047Y-74944819D01*
X55039047Y-74944819D02*
X54943809Y-74897200D01*
X54943809Y-74897200D02*
X54896190Y-74801961D01*
X54896190Y-74801961D02*
X54896190Y-74421009D01*
X54896190Y-74421009D02*
X54943809Y-74325771D01*
X54943809Y-74325771D02*
X55039047Y-74278152D01*
X55039047Y-74278152D02*
X55229523Y-74278152D01*
X55229523Y-74278152D02*
X55324761Y-74325771D01*
X55324761Y-74325771D02*
X55372380Y-74421009D01*
X55372380Y-74421009D02*
X55372380Y-74516247D01*
X55372380Y-74516247D02*
X54896190Y-74611485D01*
X55753333Y-74897200D02*
X55848571Y-74944819D01*
X55848571Y-74944819D02*
X56039047Y-74944819D01*
X56039047Y-74944819D02*
X56134285Y-74897200D01*
X56134285Y-74897200D02*
X56181904Y-74801961D01*
X56181904Y-74801961D02*
X56181904Y-74754342D01*
X56181904Y-74754342D02*
X56134285Y-74659104D01*
X56134285Y-74659104D02*
X56039047Y-74611485D01*
X56039047Y-74611485D02*
X55896190Y-74611485D01*
X55896190Y-74611485D02*
X55800952Y-74563866D01*
X55800952Y-74563866D02*
X55753333Y-74468628D01*
X55753333Y-74468628D02*
X55753333Y-74421009D01*
X55753333Y-74421009D02*
X55800952Y-74325771D01*
X55800952Y-74325771D02*
X55896190Y-74278152D01*
X55896190Y-74278152D02*
X56039047Y-74278152D01*
X56039047Y-74278152D02*
X56134285Y-74325771D01*
X56991428Y-74897200D02*
X56896190Y-74944819D01*
X56896190Y-74944819D02*
X56705714Y-74944819D01*
X56705714Y-74944819D02*
X56610476Y-74897200D01*
X56610476Y-74897200D02*
X56562857Y-74801961D01*
X56562857Y-74801961D02*
X56562857Y-74421009D01*
X56562857Y-74421009D02*
X56610476Y-74325771D01*
X56610476Y-74325771D02*
X56705714Y-74278152D01*
X56705714Y-74278152D02*
X56896190Y-74278152D01*
X56896190Y-74278152D02*
X56991428Y-74325771D01*
X56991428Y-74325771D02*
X57039047Y-74421009D01*
X57039047Y-74421009D02*
X57039047Y-74516247D01*
X57039047Y-74516247D02*
X56562857Y-74611485D01*
X57324762Y-74278152D02*
X57705714Y-74278152D01*
X57467619Y-73944819D02*
X57467619Y-74801961D01*
X57467619Y-74801961D02*
X57515238Y-74897200D01*
X57515238Y-74897200D02*
X57610476Y-74944819D01*
X57610476Y-74944819D02*
X57705714Y-74944819D01*
X58800953Y-74944819D02*
X58800953Y-73944819D01*
X58800953Y-73944819D02*
X59039048Y-73944819D01*
X59039048Y-73944819D02*
X59181905Y-73992438D01*
X59181905Y-73992438D02*
X59277143Y-74087676D01*
X59277143Y-74087676D02*
X59324762Y-74182914D01*
X59324762Y-74182914D02*
X59372381Y-74373390D01*
X59372381Y-74373390D02*
X59372381Y-74516247D01*
X59372381Y-74516247D02*
X59324762Y-74706723D01*
X59324762Y-74706723D02*
X59277143Y-74801961D01*
X59277143Y-74801961D02*
X59181905Y-74897200D01*
X59181905Y-74897200D02*
X59039048Y-74944819D01*
X59039048Y-74944819D02*
X58800953Y-74944819D01*
X60181905Y-74897200D02*
X60086667Y-74944819D01*
X60086667Y-74944819D02*
X59896191Y-74944819D01*
X59896191Y-74944819D02*
X59800953Y-74897200D01*
X59800953Y-74897200D02*
X59753334Y-74801961D01*
X59753334Y-74801961D02*
X59753334Y-74421009D01*
X59753334Y-74421009D02*
X59800953Y-74325771D01*
X59800953Y-74325771D02*
X59896191Y-74278152D01*
X59896191Y-74278152D02*
X60086667Y-74278152D01*
X60086667Y-74278152D02*
X60181905Y-74325771D01*
X60181905Y-74325771D02*
X60229524Y-74421009D01*
X60229524Y-74421009D02*
X60229524Y-74516247D01*
X60229524Y-74516247D02*
X59753334Y-74611485D01*
X60658096Y-74944819D02*
X60658096Y-73944819D01*
X60658096Y-74325771D02*
X60753334Y-74278152D01*
X60753334Y-74278152D02*
X60943810Y-74278152D01*
X60943810Y-74278152D02*
X61039048Y-74325771D01*
X61039048Y-74325771D02*
X61086667Y-74373390D01*
X61086667Y-74373390D02*
X61134286Y-74468628D01*
X61134286Y-74468628D02*
X61134286Y-74754342D01*
X61134286Y-74754342D02*
X61086667Y-74849580D01*
X61086667Y-74849580D02*
X61039048Y-74897200D01*
X61039048Y-74897200D02*
X60943810Y-74944819D01*
X60943810Y-74944819D02*
X60753334Y-74944819D01*
X60753334Y-74944819D02*
X60658096Y-74897200D01*
X61991429Y-74278152D02*
X61991429Y-74944819D01*
X61562858Y-74278152D02*
X61562858Y-74801961D01*
X61562858Y-74801961D02*
X61610477Y-74897200D01*
X61610477Y-74897200D02*
X61705715Y-74944819D01*
X61705715Y-74944819D02*
X61848572Y-74944819D01*
X61848572Y-74944819D02*
X61943810Y-74897200D01*
X61943810Y-74897200D02*
X61991429Y-74849580D01*
X62896191Y-74278152D02*
X62896191Y-75087676D01*
X62896191Y-75087676D02*
X62848572Y-75182914D01*
X62848572Y-75182914D02*
X62800953Y-75230533D01*
X62800953Y-75230533D02*
X62705715Y-75278152D01*
X62705715Y-75278152D02*
X62562858Y-75278152D01*
X62562858Y-75278152D02*
X62467620Y-75230533D01*
X62896191Y-74897200D02*
X62800953Y-74944819D01*
X62800953Y-74944819D02*
X62610477Y-74944819D01*
X62610477Y-74944819D02*
X62515239Y-74897200D01*
X62515239Y-74897200D02*
X62467620Y-74849580D01*
X62467620Y-74849580D02*
X62420001Y-74754342D01*
X62420001Y-74754342D02*
X62420001Y-74468628D01*
X62420001Y-74468628D02*
X62467620Y-74373390D01*
X62467620Y-74373390D02*
X62515239Y-74325771D01*
X62515239Y-74325771D02*
X62610477Y-74278152D01*
X62610477Y-74278152D02*
X62800953Y-74278152D01*
X62800953Y-74278152D02*
X62896191Y-74325771D01*
%TO.C,Debug*%
D12*
X54500000Y-63580000D02*
X55880000Y-63580000D01*
X54500000Y-64960000D02*
X54500000Y-63580000D01*
X54500000Y-66230000D02*
X54500000Y-71420000D01*
X54500000Y-66230000D02*
X57150000Y-66230000D01*
X54500000Y-71420000D02*
X59800000Y-71420000D01*
X57150000Y-63580000D02*
X59800000Y-63580000D01*
X57150000Y-66230000D02*
X57150000Y-63580000D01*
X59800000Y-63580000D02*
X59800000Y-71420000D01*
%TO.C,Reset*%
X93020000Y-77990000D02*
X93020000Y-79490000D01*
X94270000Y-81990000D02*
X98770000Y-81990000D01*
X98770000Y-75490000D02*
X94270000Y-75490000D01*
X100020000Y-79490000D02*
X100020000Y-77990000D01*
%TO.C,Debug1*%
X65780000Y-53130000D02*
X65300000Y-53130000D01*
X65780000Y-53130000D02*
X65780000Y-53550000D01*
X65780000Y-55670000D02*
X65780000Y-56090000D01*
X65780000Y-58210000D02*
X65780000Y-58630000D01*
X65780000Y-60750000D02*
X65780000Y-61170000D01*
X65780000Y-63290000D02*
X65780000Y-63710000D01*
X65780000Y-65830000D02*
X65780000Y-66250000D01*
X65780000Y-68370000D02*
X65780000Y-68790000D01*
X65780000Y-70910000D02*
X65780000Y-71330000D01*
X65780000Y-73450000D02*
X65780000Y-73870000D01*
X65780000Y-75990000D02*
X65780000Y-76410000D01*
X65780000Y-78530000D02*
X65780000Y-78950000D01*
X65780000Y-81070000D02*
X65780000Y-81490000D01*
X65780000Y-83610000D02*
X65780000Y-84030000D01*
X65780000Y-86150000D02*
X65780000Y-86570000D01*
X65780000Y-88690000D02*
X65780000Y-89110000D01*
X65780000Y-91230000D02*
X65780000Y-91650000D01*
X65780000Y-93770000D02*
X65780000Y-94190000D01*
X65780000Y-96310000D02*
X65780000Y-96730000D01*
X65780000Y-98850000D02*
X65780000Y-99270000D01*
X65810324Y-51010000D02*
X65300000Y-51010000D01*
X66390000Y-50590000D02*
X68880000Y-50590000D01*
X66390000Y-101810000D02*
X70227939Y-101810000D01*
X68880000Y-50590000D02*
X70227940Y-50590000D01*
X71152061Y-50590000D02*
X72155000Y-50590000D01*
X72155000Y-50590000D02*
X80625000Y-50590000D01*
X72490000Y-50590000D02*
X72490000Y-51506000D01*
X72490000Y-53894000D02*
X72490000Y-55110000D01*
X72490000Y-55110000D02*
X72786090Y-55110000D01*
X72790000Y-101810000D02*
X71152061Y-101810000D01*
X74910000Y-101810000D02*
X75330000Y-101810000D01*
X75143910Y-55110000D02*
X77636090Y-55110000D01*
X77450000Y-101810000D02*
X77870000Y-101810000D01*
X79993910Y-55110000D02*
X80290000Y-55110000D01*
X80290000Y-50590000D02*
X80290000Y-51506000D01*
X80290000Y-53894000D02*
X80290000Y-55110000D01*
X80625000Y-50590000D02*
X81627939Y-50590000D01*
X81627939Y-101810000D02*
X79990000Y-101810000D01*
X82552061Y-50590000D02*
X83900000Y-50590000D01*
X82552061Y-101810000D02*
X86390000Y-101810000D01*
X86390000Y-50590000D02*
X83900000Y-50590000D01*
X87000000Y-53130000D02*
X87000000Y-53550000D01*
X87000000Y-55670000D02*
X87000000Y-56090000D01*
X87000000Y-58210000D02*
X87000000Y-58630000D01*
X87000000Y-60750000D02*
X87000000Y-61170000D01*
X87000000Y-63290000D02*
X87000000Y-63710000D01*
X87000000Y-65830000D02*
X87000000Y-66250000D01*
X87000000Y-68370000D02*
X87000000Y-68790000D01*
X87000000Y-70910000D02*
X87000000Y-71330000D01*
X87000000Y-73450000D02*
X87000000Y-73870000D01*
X87000000Y-75990000D02*
X87000000Y-76410000D01*
X87000000Y-78530000D02*
X87000000Y-78950000D01*
X87000000Y-81070000D02*
X87000000Y-81490000D01*
X87000000Y-83610000D02*
X87000000Y-84030000D01*
X87000000Y-86150000D02*
X87000000Y-86570000D01*
X87000000Y-88690000D02*
X87000000Y-89110000D01*
X87000000Y-91230000D02*
X87000000Y-91650000D01*
X87000000Y-93770000D02*
X87000000Y-94190000D01*
X87000000Y-96310000D02*
X87000000Y-96730000D01*
X87000000Y-98850000D02*
X87000000Y-99270000D01*
X65810324Y-51010000D02*
G75*
G02*
X66390000Y-50590000I579692J-190051D01*
G01*
X66390000Y-101810000D02*
G75*
G02*
X65810324Y-101389937I1J610002D01*
G01*
X86390000Y-50590000D02*
G75*
G02*
X86969676Y-51010063I0J-610000D01*
G01*
X86969676Y-101389937D02*
G75*
G02*
X86390000Y-101809948I-579476J189737D01*
G01*
%TO.C,SW3*%
X131120000Y-65290000D02*
X131120000Y-66790000D01*
X132370000Y-69290000D02*
X136870000Y-69290000D01*
X136870000Y-62790000D02*
X132370000Y-62790000D01*
X138120000Y-66790000D02*
X138120000Y-65290000D01*
%TO.C,D1*%
X132170000Y-74964000D02*
X132170000Y-75120000D01*
X132170000Y-77280000D02*
X132170000Y-77436000D01*
X132170000Y-74964484D02*
G75*
G02*
X135401437Y-75120000I1560000J-1235516D01*
G01*
X132689039Y-75120000D02*
G75*
G02*
X134770961Y-75120000I1040961J-1080000D01*
G01*
X134770961Y-77280000D02*
G75*
G02*
X132689039Y-77280000I-1040961J1080000D01*
G01*
X135401437Y-77280000D02*
G75*
G02*
X132170000Y-77435516I-1671437J1080000D01*
G01*
%TO.C,R1*%
X132500000Y-82130000D02*
X132500000Y-83080000D01*
X132500000Y-87870000D02*
X132500000Y-86920000D01*
X131580000Y-83080000D02*
X133420000Y-83080000D01*
X133420000Y-86920000D01*
X131580000Y-86920000D01*
X131580000Y-83080000D01*
%TO.C,A1*%
X103280000Y-53120000D02*
X102800000Y-53120000D01*
X103280000Y-53120000D02*
X103280000Y-53540000D01*
X103280000Y-55660000D02*
X103280000Y-56080000D01*
X103280000Y-58200000D02*
X103280000Y-58620000D01*
X103280000Y-60740000D02*
X103280000Y-61160000D01*
X103280000Y-63280000D02*
X103280000Y-63700000D01*
X103280000Y-65820000D02*
X103280000Y-66240000D01*
X103280000Y-68360000D02*
X103280000Y-68780000D01*
X103280000Y-70900000D02*
X103280000Y-71320000D01*
X103280000Y-73440000D02*
X103280000Y-73860000D01*
X103280000Y-75980000D02*
X103280000Y-76400000D01*
X103280000Y-78520000D02*
X103280000Y-78940000D01*
X103280000Y-81060000D02*
X103280000Y-81480000D01*
X103280000Y-83600000D02*
X103280000Y-84020000D01*
X103280000Y-86140000D02*
X103280000Y-86560000D01*
X103280000Y-88680000D02*
X103280000Y-89100000D01*
X103280000Y-91220000D02*
X103280000Y-91640000D01*
X103280000Y-93760000D02*
X103280000Y-94180000D01*
X103280000Y-96300000D02*
X103280000Y-96720000D01*
X103280000Y-98840000D02*
X103280000Y-99260000D01*
X103310324Y-51000000D02*
X102800000Y-51000000D01*
X103890000Y-50580000D02*
X106380000Y-50580000D01*
X103890000Y-101800000D02*
X107727939Y-101800000D01*
X106380000Y-50580000D02*
X107727940Y-50580000D01*
X108652061Y-50580000D02*
X109655000Y-50580000D01*
X109655000Y-50580000D02*
X118125000Y-50580000D01*
X109990000Y-50580000D02*
X109990000Y-51496000D01*
X109990000Y-53884000D02*
X109990000Y-55100000D01*
X109990000Y-55100000D02*
X110286090Y-55100000D01*
X110290000Y-101800000D02*
X108652061Y-101800000D01*
X112410000Y-101800000D02*
X112830000Y-101800000D01*
X112643910Y-55100000D02*
X115136090Y-55100000D01*
X114950000Y-101800000D02*
X115370000Y-101800000D01*
X117493910Y-55100000D02*
X117790000Y-55100000D01*
X117790000Y-50580000D02*
X117790000Y-51496000D01*
X117790000Y-53884000D02*
X117790000Y-55100000D01*
X118125000Y-50580000D02*
X119127939Y-50580000D01*
X119127939Y-101800000D02*
X117490000Y-101800000D01*
X120052061Y-50580000D02*
X121400000Y-50580000D01*
X120052061Y-101800000D02*
X123890000Y-101800000D01*
X123890000Y-50580000D02*
X121400000Y-50580000D01*
X124500000Y-53120000D02*
X124500000Y-53540000D01*
X124500000Y-55660000D02*
X124500000Y-56080000D01*
X124500000Y-58200000D02*
X124500000Y-58620000D01*
X124500000Y-60740000D02*
X124500000Y-61160000D01*
X124500000Y-63280000D02*
X124500000Y-63700000D01*
X124500000Y-65820000D02*
X124500000Y-66240000D01*
X124500000Y-68360000D02*
X124500000Y-68780000D01*
X124500000Y-70900000D02*
X124500000Y-71320000D01*
X124500000Y-73440000D02*
X124500000Y-73860000D01*
X124500000Y-75980000D02*
X124500000Y-76400000D01*
X124500000Y-78520000D02*
X124500000Y-78940000D01*
X124500000Y-81060000D02*
X124500000Y-81480000D01*
X124500000Y-83600000D02*
X124500000Y-84020000D01*
X124500000Y-86140000D02*
X124500000Y-86560000D01*
X124500000Y-88680000D02*
X124500000Y-89100000D01*
X124500000Y-91220000D02*
X124500000Y-91640000D01*
X124500000Y-93760000D02*
X124500000Y-94180000D01*
X124500000Y-96300000D02*
X124500000Y-96720000D01*
X124500000Y-98840000D02*
X124500000Y-99260000D01*
X103310324Y-51000000D02*
G75*
G02*
X103890000Y-50580000I579692J-190051D01*
G01*
X103890000Y-101800000D02*
G75*
G02*
X103310324Y-101379937I1J610002D01*
G01*
X123890000Y-50580000D02*
G75*
G02*
X124469676Y-51000063I0J-610000D01*
G01*
X124469676Y-101379937D02*
G75*
G02*
X123890000Y-101799948I-579476J189737D01*
G01*
%TO.C,Reset Debug*%
X54920000Y-77990000D02*
X54920000Y-79490000D01*
X56170000Y-81990000D02*
X60670000Y-81990000D01*
X60670000Y-75490000D02*
X56170000Y-75490000D01*
X61920000Y-79490000D02*
X61920000Y-77990000D01*
%TD*%
M02*
