%TF.GenerationSoftware,KiCad,Pcbnew,10.0.3*%
%TF.CreationDate,2026-07-15T13:12:54+01:00*%
%TF.ProjectId,pico_debug,7069636f-5f64-4656-9275-672e6b696361,rev?*%
%TF.SameCoordinates,Original*%
%TF.FileFunction,Soldermask,Bot*%
%TF.FilePolarity,Negative*%
%FSLAX46Y46*%
G04 Gerber Fmt 4.6, Leading zero omitted, Abs format (unit mm)*
G04 Created by KiCad (PCBNEW 10.0.3) date 2026-07-15 13:12:54*
%MOMM*%
%LPD*%
G01*
G04 APERTURE LIST*
%ADD10C,0.800000*%
%ADD11C,6.400000*%
%ADD12R,1.700000X1.700000*%
%ADD13C,1.700000*%
%ADD14C,2.000000*%
%ADD15C,2.200000*%
%ADD16C,1.850000*%
%ADD17R,1.800000X1.800000*%
%ADD18C,1.800000*%
%ADD19C,1.600000*%
G04 APERTURE END LIST*
D10*
%TO.C,H1*%
X52600000Y-55000000D03*
X53302944Y-53302944D03*
X53302944Y-56697056D03*
X55000000Y-52600000D03*
D11*
X55000000Y-55000000D03*
D10*
X55000000Y-57400000D03*
X56697056Y-53302944D03*
X56697056Y-56697056D03*
X57400000Y-55000000D03*
%TD*%
D12*
%TO.C,Debug*%
X55880000Y-64960000D03*
D13*
X58420000Y-64960000D03*
X55880000Y-67500000D03*
X58420000Y-67500000D03*
X55880000Y-70040000D03*
X58420000Y-70040000D03*
%TD*%
D10*
%TO.C,H2*%
X137600000Y-55000000D03*
X138302944Y-53302944D03*
X138302944Y-56697056D03*
X140000000Y-52600000D03*
D11*
X140000000Y-55000000D03*
D10*
X140000000Y-57400000D03*
X141697056Y-53302944D03*
X141697056Y-56697056D03*
X142400000Y-55000000D03*
%TD*%
%TO.C,H3*%
X137600000Y-100000000D03*
X138302944Y-98302944D03*
X138302944Y-101697056D03*
X140000000Y-97600000D03*
D11*
X140000000Y-100000000D03*
D10*
X140000000Y-102400000D03*
X141697056Y-98302944D03*
X141697056Y-101697056D03*
X142400000Y-100000000D03*
%TD*%
D14*
%TO.C,Reset*%
X93270000Y-76490000D03*
X99770000Y-76490000D03*
X93270000Y-80990000D03*
X99770000Y-80990000D03*
%TD*%
D15*
%TO.C,Debug1*%
X73665000Y-52200000D03*
D16*
X73965000Y-55230000D03*
X78815000Y-55230000D03*
D15*
X79115000Y-52200000D03*
%TD*%
D10*
%TO.C,H4*%
X52600000Y-100000000D03*
X53302944Y-98302944D03*
X53302944Y-101697056D03*
X55000000Y-97600000D03*
D11*
X55000000Y-100000000D03*
D10*
X55000000Y-102400000D03*
X56697056Y-98302944D03*
X56697056Y-101697056D03*
X57400000Y-100000000D03*
%TD*%
D14*
%TO.C,SW3*%
X137870000Y-68290000D03*
X131370000Y-68290000D03*
X137870000Y-63790000D03*
X131370000Y-63790000D03*
%TD*%
D17*
%TO.C,D1*%
X132460000Y-76200000D03*
D18*
X135000000Y-76200000D03*
%TD*%
D19*
%TO.C,R1*%
X135000000Y-92580000D03*
X135000000Y-82420000D03*
%TD*%
D15*
%TO.C,A1*%
X111165000Y-52190000D03*
D16*
X111465000Y-55220000D03*
X116315000Y-55220000D03*
D15*
X116615000Y-52190000D03*
%TD*%
D14*
%TO.C,Reset Debug*%
X55170000Y-76490000D03*
X61670000Y-76490000D03*
X55170000Y-80990000D03*
X61670000Y-80990000D03*
%TD*%
M02*
